<svg width="50" height="50" viewBox="0 0 50 50" fill="none" xmlns="http://www.w3.org/2000/svg">
<path d="M27.3503 21.9298C25.0603 20.0198 22.0303 18.7898 18.6503 18.5998C18.3303 18.5698 18.0003 18.5498 17.6703 18.5498C10.0303 18.5498 3.82031 23.8498 3.82031 30.3498C3.82031 33.0198 4.90031 35.5598 6.92031 37.6998C6.95031 37.7298 7.03031 37.8298 7.14031 38.0698C7.20031 38.1998 8.24031 40.7198 6.31031 43.8498C7.83031 43.5998 9.39031 42.5598 10.6903 41.7098C10.9903 41.4998 11.2603 41.3298 11.5203 41.1498L11.7703 40.9898L12.0603 41.0998C13.8703 41.7998 15.7603 42.1498 17.6603 42.1498C25.2803 42.1498 31.4903 36.8598 31.4903 30.3498C31.4903 30.0998 31.4703 29.8398 31.4603 29.5898C31.2403 26.5998 29.7003 23.9098 27.3503 21.9298ZM10.4103 27.9298C10.7803 27.9298 11.0603 28.2298 11.0603 28.5798C11.0603 28.9298 10.7703 29.2298 10.4103 29.2298C10.0603 29.2298 9.77031 28.9298 9.77031 28.5798C9.77031 28.2298 10.0603 27.9298 10.4103 27.9298ZM24.9703 34.4998H10.2503C9.93031 34.4998 9.66031 34.2298 9.66031 33.8998C9.66031 33.5698 9.93031 33.2998 10.2503 33.2998H24.9703C25.3003 33.2998 25.5703 33.5698 25.5703 33.8998C25.5703 34.2298 25.3003 34.4998 24.9703 34.4998ZM24.9703 29.1798H13.2503C12.9203 29.1798 12.6503 28.9098 12.6503 28.5798C12.6503 28.2498 12.9203 27.9798 13.2503 27.9798H24.9703C25.3003 27.9798 25.5703 28.2498 25.5703 28.5798C25.5703 28.9098 25.3003 29.1798 24.9703 29.1798Z" fill="url(#paint0_linear_2160_1435)"/>
<path d="M43.0395 25.3599C45.0895 23.2199 46.1795 20.6399 46.1795 17.9599C46.1795 11.4499 39.9695 6.15991 32.3495 6.15991C24.9495 6.15991 18.8895 11.1299 18.5195 17.3699C22.1695 17.5399 25.4695 18.8599 27.9695 20.9099H39.6595C39.9895 20.9099 40.2595 21.1799 40.2595 21.5099C40.2595 21.8399 39.9895 22.0999 39.6595 22.0999H29.2695C31.2695 24.1999 32.5195 26.8299 32.6795 29.7199C34.4395 29.6899 36.1695 29.3499 37.8595 28.7399C38.0695 28.6599 38.2395 28.6599 38.2895 28.6799L38.4795 28.6999L38.6195 28.8099C40.8695 30.5999 42.5295 31.2699 43.6795 31.4599C41.7195 28.2499 42.8095 25.5799 43.0395 25.3599ZM25.0995 16.8299C24.7495 16.8299 24.4595 16.5399 24.4595 16.1899C24.4595 15.8199 24.7495 15.5399 25.0995 15.5399C25.4695 15.5399 25.7495 15.8299 25.7495 16.1899C25.7495 16.5499 25.4595 16.8299 25.0995 16.8299ZM39.6595 16.7799H27.9195C27.5995 16.7799 27.3295 16.5099 27.3295 16.1899C27.3295 15.8599 27.5995 15.5899 27.9195 15.5899H39.6495C39.9795 15.5899 40.2495 15.8599 40.2495 16.1899C40.2595 16.5099 39.9895 16.7799 39.6595 16.7799Z" fill="url(#paint1_linear_2160_1435)"/>
<defs>
<linearGradient id="paint0_linear_2160_1435" x1="-472.899" y1="31.1921" x2="55.4325" y2="31.1921" gradientUnits="userSpaceOnUse">
<stop stop-color="#D62300"/>
<stop offset="1" stop-color="#FF8732"/>
</linearGradient>
<linearGradient id="paint1_linear_2160_1435" x1="-457.923" y1="18.8076" x2="70.1049" y2="18.8076" gradientUnits="userSpaceOnUse">
<stop stop-color="#D62300"/>
<stop offset="1" stop-color="#FF8732"/>
</linearGradient>
</defs>
</svg>
