<svg width="207" height="182" viewBox="0 0 207 182" fill="none" xmlns="http://www.w3.org/2000/svg">
<path d="M55.9886 145.75H46.0341C45.8523 144.462 45.4811 143.318 44.9205 142.318C44.3599 141.303 43.6402 140.439 42.7614 139.727C41.8826 139.015 40.8674 138.47 39.7159 138.091C38.5795 137.712 37.3447 137.523 36.0114 137.523C33.6023 137.523 31.5038 138.121 29.7159 139.318C27.928 140.5 26.5417 142.227 25.5568 144.5C24.572 146.758 24.0795 149.5 24.0795 152.727C24.0795 156.045 24.572 158.833 25.5568 161.091C26.5568 163.348 27.9508 165.053 29.7386 166.205C31.5265 167.356 33.5947 167.932 35.9432 167.932C37.2614 167.932 38.4811 167.758 39.6023 167.409C40.7386 167.061 41.7462 166.553 42.625 165.886C43.5038 165.205 44.2311 164.379 44.8068 163.409C45.3977 162.439 45.8068 161.333 46.0341 160.091L55.9886 160.136C55.7311 162.273 55.0871 164.333 54.0568 166.318C53.0417 168.288 51.6705 170.053 49.9432 171.614C48.2311 173.159 46.1856 174.386 43.8068 175.295C41.4432 176.189 38.7689 176.636 35.7841 176.636C31.6326 176.636 27.9205 175.697 24.6477 173.818C21.3902 171.939 18.8144 169.22 16.9205 165.659C15.0417 162.098 14.1023 157.788 14.1023 152.727C14.1023 147.652 15.0568 143.333 16.9659 139.773C18.875 136.212 21.4659 133.5 24.7386 131.636C28.0114 129.758 31.6932 128.818 35.7841 128.818C38.4811 128.818 40.9811 129.197 43.2841 129.955C45.6023 130.712 47.6553 131.818 49.4432 133.273C51.2311 134.712 52.6856 136.477 53.8068 138.568C54.9432 140.659 55.6705 143.053 55.9886 145.75ZM63.0455 176V129.455H72.8864V149.977H73.5L90.25 129.455H102.045L84.7727 150.295L102.25 176H90.4773L77.7273 156.864L72.8864 162.773V176H63.0455ZM125.926 148.886V156.568H104.699V148.886H125.926ZM142.381 176H131.835L147.903 129.455H160.585L176.631 176H166.085L154.426 140.091H154.062L142.381 176ZM141.722 157.705H166.631V165.386H141.722V157.705ZM192.074 129.455V176H182.233V129.455H192.074Z" fill="#868686"/>
<path d="M203 0.0505899L146.228 56.8618L144.711 58.3794L146.127 59.7959L202.292 116H163.719C158.613 116 154.316 113.622 151.738 110.992C151.738 110.992 125.703 85.5456 119.384 78.6655L98.7574 99.2551C89.0005 109.019 76.362 114.887 62.7124 116H53.006C39.3564 114.887 26.6673 109.019 16.9103 99.2551C-5.63678 76.6926 -5.63678 39.9145 16.9103 17.3519C39.508 -5.21064 76.2103 -5.21064 98.7574 17.3519L111.952 30.5556L99.3135 43.2028C95.067 47.4522 88.2927 47.4522 84.0967 43.2028L78.5358 37.638C67.1611 26.2556 48.6078 26.2556 37.2331 37.638C23.2802 51.5499 26.4145 76.1361 46.4845 85.3432C46.7373 85.495 47.0406 85.5456 47.2934 85.6973C58.7691 89.7444 70.5483 86.9621 78.4853 78.969L119.384 37.9922L151.586 5.76712C155.277 2.07414 160.282 0 165.489 0H203V0.0505899Z" fill="url(#paint0_linear_2185_1420)"/>
<defs>
<linearGradient id="paint0_linear_2185_1420" x1="-615.168" y1="58.0253" x2="824.999" y2="58.0253" gradientUnits="userSpaceOnUse">
<stop offset="0.375" stop-color="#868686"/>
</linearGradient>
</defs>
</svg>
