<svg width="50" height="50" viewBox="0 0 50 50" fill="none" xmlns="http://www.w3.org/2000/svg">
<path d="M45.0691 13.54L33.8391 24.77L33.5391 25.07L33.8191 25.35L44.9291 36.46H37.2991C36.2891 36.46 35.4391 35.99 34.9291 35.47C34.9291 35.47 29.7791 30.44 28.5291 29.08L24.4491 33.15C22.5191 35.08 20.0191 36.24 17.3191 36.46H15.3991C12.6991 36.24 10.1891 35.08 8.25906 33.15C3.79906 28.69 3.79906 21.42 8.25906 16.96C12.7291 12.5 19.9891 12.5 24.4491 16.96L27.0591 19.57L24.5591 22.07C23.7191 22.91 22.3791 22.91 21.5491 22.07L20.4491 20.97C18.1991 18.72 14.5291 18.72 12.2791 20.97C9.51906 23.72 10.1391 28.58 14.1091 30.4C14.1591 30.43 14.2191 30.44 14.2691 30.47C16.5391 31.27 18.8691 30.72 20.4391 29.14L28.5291 21.04L34.8991 14.67C35.6291 13.94 36.6191 13.53 37.6491 13.53H45.0691V13.54Z" fill="url(#paint0_linear_2160_1463)"/>
<defs>
<linearGradient id="paint0_linear_2160_1463" x1="-116.771" y1="25" x2="168.105" y2="25" gradientUnits="userSpaceOnUse">
<stop stop-color="#D62300"/>
<stop offset="1" stop-color="#FF8732"/>
</linearGradient>
</defs>
</svg>
