<svg width="100" height="100" viewBox="0 0 100 100" fill="none" xmlns="http://www.w3.org/2000/svg">
<path d="M75.6363 49.3699H89.0001C88.7203 39.3417 84.7176 30.2173 78.2402 23.417L68.793 32.8642C72.8387 37.2758 75.3565 43.0216 75.6363 49.3699ZM77.7883 35.3605C79.4238 34.6934 81.3175 35.4896 81.9846 37.1251C82.6517 38.7606 81.8555 40.6113 80.22 41.3C78.5845 41.9671 76.7338 41.1709 76.0452 39.5569C75.3996 37.9214 76.1743 36.0276 77.7883 35.3605Z" fill="url(#paint0_linear_2216_3250)"/>
<path d="M68.793 68.1566L78.2402 77.6038C84.7176 70.8035 88.7203 61.7006 89.0001 51.6509H75.6363C75.3565 57.9992 72.7957 63.745 68.793 68.1566ZM75.9591 61.7437C76.6262 60.1297 78.5199 59.3335 80.1339 60.0436C81.7694 60.7107 82.5441 62.6045 81.877 64.24C81.1884 65.854 79.3162 66.6502 77.6807 65.94C76.0236 65.2729 75.2704 63.3792 75.9591 61.7437Z" fill="url(#paint1_linear_2216_3250)"/>
<path d="M65.5423 68.157C66.1233 67.662 66.6613 67.124 67.1778 66.543C70.7932 62.5618 73.0743 57.354 73.354 51.6513C73.3755 51.2854 73.3755 50.8981 73.3755 50.4892C73.3755 50.1234 73.3755 49.736 73.354 49.3702C73.0743 43.6459 70.7932 38.4596 67.1778 34.4784C66.6613 33.9405 66.1234 33.3809 65.5638 32.8645C65.5423 32.8645 65.5423 32.8645 65.5423 32.8645C61.5611 29.2491 56.3964 26.968 50.6721 26.6883C50.3063 26.6667 49.9189 26.6667 49.51 26.6667C49.1227 26.6667 48.7138 26.6667 48.348 26.6883C42.6237 26.968 37.4589 29.2491 33.4778 32.8645C33.4778 32.8645 33.4778 32.8645 33.4562 32.8645C32.9182 33.3809 32.3587 33.9189 31.8422 34.4784C28.2269 38.4596 25.9458 43.6674 25.666 49.3702C25.6445 49.736 25.6445 50.1234 25.6445 50.4892C25.6445 50.8766 25.6445 51.2854 25.666 51.6513C25.9458 57.3756 28.2269 62.5618 31.8422 66.543C32.3587 67.124 32.8967 67.662 33.4778 68.157C37.4589 71.7723 42.6237 74.0534 48.348 74.3332C48.7138 74.3547 49.1012 74.3547 49.51 74.3547C49.8974 74.3547 50.3063 74.3547 50.6721 74.3332C56.3964 74.0534 61.5611 71.7723 65.5423 68.157ZM43.1617 63.4226C42.9465 63.7885 42.5591 64.0252 42.1287 64.0252C41.9566 64.0252 41.7629 63.9606 41.6123 63.8745C41.0312 63.5948 40.816 62.9062 41.1173 62.3251C41.6553 61.2706 42.1502 60.1947 42.5376 59.0971C43.1186 57.6123 43.549 56.1274 43.7858 54.5995C43.9579 53.6311 44.087 52.6197 44.087 51.6513L44.1086 51.6298H39.8261C39.1805 51.6298 38.7071 51.1133 38.7071 50.4677C38.7071 49.9297 39.0514 49.4993 39.5248 49.3702C39.6109 49.3056 39.74 49.3056 39.8261 49.3056H44.087C44.0655 48.3372 43.9579 47.3904 43.7858 46.422C43.549 44.8941 43.1186 43.4092 42.5376 41.9243C42.1502 40.8268 41.6553 39.7723 41.1173 38.6963C40.816 38.1153 41.0312 37.4267 41.6123 37.1469C42.1502 36.8456 42.8604 37.0608 43.1617 37.5988C44.4744 40.0951 45.4213 42.6775 45.9377 45.2814C46.1745 46.4865 46.3251 47.7347 46.3897 48.9828C46.4112 49.0689 46.4112 49.198 46.4112 49.2841H46.6909H48.3695H49.1012H49.9619H50.6936H52.3722H52.6089C52.6089 49.198 52.6089 49.1119 52.6304 49.0043C52.695 47.7562 52.8456 46.508 53.1254 45.2599C53.6418 42.656 54.5887 40.0521 55.9014 37.5773C56.2027 37.0393 56.9129 36.8241 57.4509 37.1254C58.0319 37.4051 58.2471 38.0938 57.9458 38.6748C57.4078 39.7293 56.9129 40.8053 56.5255 41.9028C55.9445 43.3877 55.5141 44.8725 55.2774 46.4004C55.1052 47.3688 54.9976 48.3157 54.9761 49.2841H59.194C59.3231 49.2841 59.4092 49.2841 59.4952 49.3487C59.9902 49.4778 60.356 49.8867 60.356 50.4462C60.356 51.0918 59.8396 51.6082 59.194 51.6082H54.933L54.9545 51.6298C54.9545 52.5982 55.0837 53.6096 55.2558 54.578C55.4925 56.1059 55.9229 57.5908 56.504 59.0756C56.8913 60.1731 57.3863 61.2276 57.9243 62.3036C58.2256 62.8846 58.0104 63.5733 57.4293 63.853C57.2787 63.9391 57.0635 64.0037 56.9129 64.0037C56.4825 64.0037 56.0951 63.7669 55.8799 63.4011C54.5672 60.9048 53.6203 58.3224 53.1038 55.7185C52.8241 54.4704 52.6734 53.2222 52.6089 51.9741C52.5874 51.888 52.5874 51.7589 52.5874 51.6298C52.5874 51.6298 52.5874 51.6298 52.5874 51.6082H52.243H50.6721H50.0265H48.9936H48.348H46.777H46.4112C46.4112 51.6298 46.4112 51.6298 46.4112 51.6298C46.4112 51.7589 46.4112 51.8665 46.3897 51.9956C46.3251 53.2437 46.1745 54.4919 45.9377 55.697C45.4213 58.3439 44.4744 60.9263 43.1617 63.4226Z" fill="url(#paint2_linear_2216_3250)"/>
<path d="M76.6209 21.7816C69.8206 15.3472 60.7177 11.3015 50.668 11.0217V24.3855C57.0163 24.6653 62.8052 27.2047 67.1737 31.2289L76.6209 21.7816ZM64.785 22.3412C64.1179 23.9767 62.2241 24.7514 60.6101 24.0843C58.9746 23.3956 58.1999 21.5234 58.867 19.8879C59.5557 18.2524 61.4279 17.4777 63.0634 18.1878C64.7204 18.8549 65.4736 20.7272 64.785 22.3412Z" fill="url(#paint3_linear_2216_3250)"/>
<path d="M50.668 76.6358V89.9996C60.7393 89.7198 69.8206 85.6741 76.6209 79.2397L67.1737 69.7925C62.8052 73.8167 57.0163 76.356 50.668 76.6358ZM62.8052 82.8335C61.1697 83.5006 59.2759 82.7474 58.6088 81.0904C57.9417 79.4549 58.7379 77.5611 60.3734 76.894C62.0089 76.2269 63.8596 77.0232 64.5483 78.6587C65.2369 80.2942 64.4407 82.1664 62.8052 82.8335Z" fill="url(#paint4_linear_2216_3250)"/>
<path d="M48.367 24.3853V11C38.3387 11.2798 29.2574 15.2824 22.4141 21.7599L31.8613 31.2071C36.2728 27.2044 42.0186 24.6651 48.367 24.3853ZM36.2298 18.0585C37.8653 17.3914 39.716 18.1446 40.4046 19.8016C41.0718 21.4371 40.3186 23.3309 38.6615 23.998C37.0045 24.6651 35.1323 23.8689 34.4652 22.2334C33.7981 20.5763 34.5943 18.7256 36.2298 18.0585Z" fill="url(#paint5_linear_2216_3250)"/>
<path d="M22.4141 79.2396C29.2574 85.7171 38.3387 89.7198 48.367 89.9995V76.6357C42.0186 76.356 36.2298 73.8166 31.8398 69.8354L22.4141 79.2396ZM34.2285 78.6801C34.9171 77.0446 36.8108 76.2699 38.4248 76.937C40.0603 77.6256 40.835 79.4979 40.1679 81.1334C39.4793 82.7689 37.5855 83.5436 35.9716 82.8334C34.3145 82.1663 33.5613 80.2941 34.2285 78.6801Z" fill="url(#paint6_linear_2216_3250)"/>
<path d="M30.2306 32.8427L20.7834 23.3955C14.3489 30.1958 10.3032 39.3202 10.0234 49.3915H23.3873C23.6455 43.0216 26.2064 37.2328 30.2306 32.8427ZM23.086 39.4278C22.4189 41.0418 20.5251 41.838 18.8896 41.1279C17.2756 40.4607 16.4794 38.567 17.1895 36.9315C17.8567 35.3175 19.7504 34.5213 21.3859 35.2314C22.9784 35.8985 23.7746 37.7923 23.086 39.4278Z" fill="url(#paint7_linear_2216_3250)"/>
<path d="M23.3853 51.6509H10C10.2798 61.7222 14.3255 70.8251 20.7599 77.6468L30.2071 68.1996C26.2044 63.7881 23.6436 57.9992 23.3853 51.6509ZM21.2118 65.5312C19.5978 66.1983 17.7256 65.4021 17.037 63.7665C16.3699 62.1526 17.1661 60.2803 18.8016 59.5917C20.4371 58.9246 22.2878 59.7208 22.9765 61.3563C23.6436 62.9918 22.8689 64.8641 21.2118 65.5312Z" fill="url(#paint8_linear_2216_3250)"/>
<defs>
<linearGradient id="paint0_linear_2216_3250" x1="44.4964" y1="36.3915" x2="1055.93" y2="36.3915" gradientUnits="userSpaceOnUse">
<stop stop-color="#D62300"/>
<stop offset="1" stop-color="#FF8732"/>
</linearGradient>
<linearGradient id="paint1_linear_2216_3250" x1="44.4964" y1="64.6295" x2="1055.93" y2="64.6295" gradientUnits="userSpaceOnUse">
<stop offset="1" stop-color="#FF8732"/>
</linearGradient>
<linearGradient id="paint2_linear_2216_3250" x1="-31.7026" y1="50.5107" x2="2356.2" y2="50.5107" gradientUnits="userSpaceOnUse">
<stop stop-color="#D62300"/>
<stop offset="1" stop-color="#FF8732"/>
</linearGradient>
<linearGradient id="paint3_linear_2216_3250" x1="19.4696" y1="21.1173" x2="1318.36" y2="21.1173" gradientUnits="userSpaceOnUse">
<stop offset="1" stop-color="#FF8732"/>
</linearGradient>
<linearGradient id="paint4_linear_2216_3250" x1="19.4696" y1="79.904" x2="1318.36" y2="79.904" gradientUnits="userSpaceOnUse">
<stop stop-color="#D62300"/>
<stop offset="1" stop-color="#FF8732"/>
</linearGradient>
<linearGradient id="paint5_linear_2216_3250" x1="-8.78362" y1="21.1002" x2="1290.25" y2="21.1002" gradientUnits="userSpaceOnUse">
<stop stop-color="#D62300"/>
<stop offset="1" stop-color="#FF8732"/>
</linearGradient>
<linearGradient id="paint6_linear_2216_3250" x1="-8.78362" y1="79.9142" x2="1290.25" y2="79.9142" gradientUnits="userSpaceOnUse">
<stop offset="1" stop-color="#FF8732"/>
</linearGradient>
<linearGradient id="paint7_linear_2216_3250" x1="-14.2673" y1="36.3892" x2="997.17" y2="36.3892" gradientUnits="userSpaceOnUse">
<stop offset="1" stop-color="#FF8732"/>
</linearGradient>
<linearGradient id="paint8_linear_2216_3250" x1="-14.2907" y1="64.6446" x2="997.147" y2="64.6446" gradientUnits="userSpaceOnUse">
<stop stop-color="#D62300"/>
<stop offset="1" stop-color="#FF8732"/>
</linearGradient>
</defs>
</svg>
