<svg width="50" height="50" viewBox="0 0 50 50" fill="none" xmlns="http://www.w3.org/2000/svg">
<path d="M37.0784 24.4699H43.2884C43.1584 19.8099 41.2984 15.5699 38.2884 12.4099L33.8984 16.7999C35.7784 18.8499 36.9484 21.5199 37.0784 24.4699ZM38.0784 17.9599C38.8384 17.6499 39.7184 18.0199 40.0284 18.7799C40.3384 19.5399 39.9684 20.3999 39.2084 20.7199C38.4484 21.0299 37.5884 20.6599 37.2684 19.9099C36.9684 19.1499 37.3284 18.2699 38.0784 17.9599Z" fill="url(#paint0_linear_2160_1439)"/>
<path d="M33.8984 33.1998L38.2884 37.5898C41.2984 34.4298 43.1584 30.1998 43.2884 25.5298H37.0784C36.9484 28.4798 35.7584 31.1498 33.8984 33.1998ZM37.2284 30.2198C37.5384 29.4698 38.4184 29.0998 39.1684 29.4298C39.9284 29.7398 40.2884 30.6198 39.9784 31.3798C39.6584 32.1298 38.7884 32.4998 38.0284 32.1698C37.2584 31.8598 36.9084 30.9798 37.2284 30.2198Z" fill="url(#paint1_linear_2160_1439)"/>
<path d="M32.3877 33.1999C32.6577 32.9699 32.9077 32.7199 33.1477 32.4499C34.8277 30.5999 35.8877 28.1799 36.0177 25.5299C36.0277 25.3599 36.0277 25.1799 36.0277 24.9899C36.0277 24.8199 36.0277 24.6399 36.0177 24.4699C35.8877 21.8099 34.8277 19.3999 33.1477 17.5499C32.9077 17.2999 32.6577 17.0399 32.3977 16.7999C32.3877 16.7999 32.3877 16.7999 32.3877 16.7999C30.5377 15.1199 28.1377 14.0599 25.4777 13.9299C25.3077 13.9199 25.1277 13.9199 24.9377 13.9199C24.7577 13.9199 24.5677 13.9199 24.3977 13.9299C21.7377 14.0599 19.3377 15.1199 17.4877 16.7999C17.4877 16.7999 17.4877 16.7999 17.4777 16.7999C17.2277 17.0399 16.9677 17.2899 16.7277 17.5499C15.0477 19.3999 13.9877 21.8199 13.8577 24.4699C13.8477 24.6399 13.8477 24.8199 13.8477 24.9899C13.8477 25.1699 13.8477 25.3599 13.8577 25.5299C13.9877 28.1899 15.0477 30.5999 16.7277 32.4499C16.9677 32.7199 17.2177 32.9699 17.4877 33.1999C19.3377 34.8799 21.7377 35.9399 24.3977 36.0699C24.5677 36.0799 24.7477 36.0799 24.9377 36.0799C25.1177 36.0799 25.3077 36.0799 25.4777 36.0699C28.1377 35.9399 30.5377 34.8799 32.3877 33.1999ZM21.9877 30.9999C21.8877 31.1699 21.7077 31.2799 21.5077 31.2799C21.4277 31.2799 21.3377 31.2499 21.2677 31.2099C20.9977 31.0799 20.8977 30.7599 21.0377 30.4899C21.2877 29.9999 21.5177 29.4999 21.6977 28.9899C21.9677 28.2999 22.1677 27.6099 22.2777 26.8999C22.3577 26.4499 22.4177 25.9799 22.4177 25.5299L22.4277 25.5199H20.4377C20.1377 25.5199 19.9177 25.2799 19.9177 24.9799C19.9177 24.7299 20.0777 24.5299 20.2977 24.4699C20.3377 24.4399 20.3977 24.4399 20.4377 24.4399H22.4177C22.4077 23.9899 22.3577 23.5499 22.2777 23.0999C22.1677 22.3899 21.9677 21.6999 21.6977 21.0099C21.5177 20.4999 21.2877 20.0099 21.0377 19.5099C20.8977 19.2399 20.9977 18.9199 21.2677 18.7899C21.5177 18.6499 21.8477 18.7499 21.9877 18.9999C22.5977 20.1599 23.0377 21.3599 23.2777 22.5699C23.3877 23.1299 23.4577 23.7099 23.4877 24.2899C23.4977 24.3299 23.4977 24.3899 23.4977 24.4299H23.6277H24.4077H24.7477H25.1477H25.4877H26.2677H26.3777C26.3777 24.3899 26.3777 24.3499 26.3877 24.2999C26.4177 23.7199 26.4877 23.1399 26.6177 22.5599C26.8577 21.3499 27.2977 20.1399 27.9077 18.9899C28.0477 18.7399 28.3777 18.6399 28.6277 18.7799C28.8977 18.9099 28.9977 19.2299 28.8577 19.4999C28.6077 19.9899 28.3777 20.4899 28.1977 20.9999C27.9277 21.6899 27.7277 22.3799 27.6177 23.0899C27.5377 23.5399 27.4877 23.9799 27.4777 24.4299H29.4377C29.4977 24.4299 29.5377 24.4299 29.5777 24.4599C29.8077 24.5199 29.9777 24.7099 29.9777 24.9699C29.9777 25.2699 29.7377 25.5099 29.4377 25.5099H27.4577L27.4677 25.5199C27.4677 25.9699 27.5277 26.4399 27.6077 26.8899C27.7177 27.5999 27.9177 28.2899 28.1877 28.9799C28.3677 29.4899 28.5977 29.9799 28.8477 30.4799C28.9877 30.7499 28.8877 31.0699 28.6177 31.1999C28.5477 31.2399 28.4477 31.2699 28.3777 31.2699C28.1777 31.2699 27.9977 31.1599 27.8977 30.9899C27.2877 29.8299 26.8477 28.6299 26.6077 27.4199C26.4777 26.8399 26.4077 26.2599 26.3777 25.6799C26.3677 25.6399 26.3677 25.5799 26.3677 25.5199C26.3677 25.5199 26.3677 25.5199 26.3677 25.5099H26.2077H25.4777H25.1777H24.6977H24.3977H23.6677H23.4977C23.4977 25.5199 23.4977 25.5199 23.4977 25.5199C23.4977 25.5799 23.4977 25.6299 23.4877 25.6899C23.4577 26.2699 23.3877 26.8499 23.2777 27.4099C23.0377 28.6399 22.5977 29.8399 21.9877 30.9999Z" fill="url(#paint2_linear_2160_1439)"/>
<path d="M37.5366 11.6499C34.3766 8.6599 30.1466 6.7799 25.4766 6.6499V12.8599C28.4266 12.9899 31.1166 14.1699 33.1466 16.0399L37.5366 11.6499ZM32.0366 11.9099C31.7266 12.6699 30.8466 13.0299 30.0966 12.7199C29.3366 12.3999 28.9766 11.5299 29.2866 10.7699C29.6066 10.0099 30.4766 9.6499 31.2366 9.9799C32.0066 10.2899 32.3566 11.1599 32.0366 11.9099Z" fill="url(#paint3_linear_2160_1439)"/>
<path d="M25.4766 37.14V43.35C30.1566 43.22 34.3766 41.34 37.5366 38.35L33.1466 33.96C31.1166 35.83 28.4266 37.01 25.4766 37.14ZM31.1166 40.02C30.3566 40.33 29.4766 39.98 29.1666 39.21C28.8566 38.45 29.2266 37.57 29.9866 37.26C30.7466 36.95 31.6066 37.32 31.9266 38.08C32.2466 38.84 31.8766 39.71 31.1166 40.02Z" fill="url(#paint4_linear_2160_1439)"/>
<path d="M24.4077 12.8599V6.63989C19.7477 6.76989 15.5277 8.62989 12.3477 11.6399L16.7377 16.0299C18.7877 14.1699 21.4577 12.9899 24.4077 12.8599ZM18.7677 9.91989C19.5277 9.60989 20.3877 9.95989 20.7077 10.7299C21.0177 11.4899 20.6677 12.3699 19.8977 12.6799C19.1277 12.9899 18.2577 12.6199 17.9477 11.8599C17.6377 11.0899 18.0077 10.2299 18.7677 9.91989Z" fill="url(#paint5_linear_2160_1439)"/>
<path d="M12.3477 38.35C15.5277 41.36 19.7477 43.22 24.4077 43.35V37.14C21.4577 37.01 18.7677 35.83 16.7277 33.98L12.3477 38.35ZM17.8377 38.09C18.1577 37.33 19.0377 36.97 19.7877 37.28C20.5477 37.6 20.9077 38.47 20.5977 39.23C20.2777 39.99 19.3977 40.35 18.6477 40.02C17.8777 39.71 17.5277 38.84 17.8377 38.09Z" fill="url(#paint6_linear_2160_1439)"/>
<path d="M15.9798 16.7899L11.5898 12.3999C8.59984 15.5599 6.71984 19.7999 6.58984 24.4799H12.7998C12.9198 21.5199 14.1098 18.8299 15.9798 16.7899ZM12.6598 19.8499C12.3498 20.5999 11.4698 20.9699 10.7098 20.6399C9.95984 20.3299 9.58984 19.4499 9.91984 18.6899C10.2298 17.9399 11.1098 17.5699 11.8698 17.8999C12.6098 18.2099 12.9798 19.0899 12.6598 19.8499Z" fill="url(#paint7_linear_2160_1439)"/>
<path d="M12.7981 25.5298H6.57812C6.70812 30.2098 8.58812 34.4398 11.5781 37.6098L15.9681 33.2198C14.1081 31.1698 12.9181 28.4798 12.7981 25.5298ZM11.7881 31.9798C11.0381 32.2898 10.1681 31.9198 9.84813 31.1598C9.53813 30.4098 9.90813 29.5398 10.6681 29.2198C11.4281 28.9098 12.2881 29.2798 12.6081 30.0398C12.9181 30.7998 12.5581 31.6698 11.7881 31.9798Z" fill="url(#paint8_linear_2160_1439)"/>
<defs>
<linearGradient id="paint0_linear_2160_1439" x1="22.6081" y1="18.439" x2="492.611" y2="18.439" gradientUnits="userSpaceOnUse">
<stop stop-color="#D62300"/>
<stop offset="1" stop-color="#FF8732"/>
</linearGradient>
<linearGradient id="paint1_linear_2160_1439" x1="22.6081" y1="31.5608" x2="492.611" y2="31.5608" gradientUnits="userSpaceOnUse">
<stop stop-color="#D62300"/>
<stop offset="1" stop-color="#FF8732"/>
</linearGradient>
<linearGradient id="paint2_linear_2160_1439" x1="-12.8008" y1="24.9999" x2="1096.83" y2="24.9999" gradientUnits="userSpaceOnUse">
<stop stop-color="#D62300"/>
<stop offset="1" stop-color="#FF8732"/>
</linearGradient>
<linearGradient id="paint3_linear_2160_1439" x1="10.9791" y1="11.3412" x2="614.559" y2="11.3412" gradientUnits="userSpaceOnUse">
<stop stop-color="#D62300"/>
<stop offset="1" stop-color="#FF8732"/>
</linearGradient>
<linearGradient id="paint4_linear_2160_1439" x1="10.9791" y1="38.6587" x2="614.559" y2="38.6587" gradientUnits="userSpaceOnUse">
<stop stop-color="#D62300"/>
<stop offset="1" stop-color="#FF8732"/>
</linearGradient>
<linearGradient id="paint5_linear_2160_1439" x1="-2.15594" y1="11.3412" x2="601.426" y2="11.3412" gradientUnits="userSpaceOnUse">
<stop stop-color="#D62300"/>
<stop offset="1" stop-color="#FF8732"/>
</linearGradient>
<linearGradient id="paint6_linear_2160_1439" x1="-2.15594" y1="38.6657" x2="601.426" y2="38.6657" gradientUnits="userSpaceOnUse">
<stop stop-color="#D62300"/>
<stop offset="1" stop-color="#FF8732"/>
</linearGradient>
<linearGradient id="paint7_linear_2160_1439" x1="-4.70776" y1="18.4319" x2="465.295" y2="18.4319" gradientUnits="userSpaceOnUse">
<stop stop-color="#D62300"/>
<stop offset="1" stop-color="#FF8732"/>
</linearGradient>
<linearGradient id="paint8_linear_2160_1439" x1="-4.70948" y1="31.5678" x2="465.293" y2="31.5678" gradientUnits="userSpaceOnUse">
<stop stop-color="#D62300"/>
<stop offset="1" stop-color="#FF8732"/>
</linearGradient>
</defs>
</svg>
