<svg width="79" height="79" viewBox="0 0 79 79" fill="none" xmlns="http://www.w3.org/2000/svg">
<path d="M65.6363 38.3699H79.0001C78.7203 28.3417 74.7176 19.2173 68.2402 12.417L58.793 21.8642C62.8387 26.2758 65.3565 32.0216 65.6363 38.3699ZM67.7883 24.3605C69.4238 23.6934 71.3175 24.4896 71.9846 26.1251C72.6517 27.7606 71.8555 29.6113 70.22 30.3C68.5845 30.9671 66.7338 30.1709 66.0452 28.5569C65.3996 26.9214 66.1743 25.0276 67.7883 24.3605Z" fill="url(#paint0_linear_2186_1457)"/>
<path d="M58.793 57.1566L68.2402 66.6038C74.7176 59.8035 78.7203 50.7006 79.0001 40.6509H65.6363C65.3565 46.9992 62.7957 52.745 58.793 57.1566ZM65.9591 50.7437C66.6262 49.1297 68.5199 48.3335 70.1339 49.0436C71.7694 49.7107 72.5441 51.6045 71.877 53.24C71.1884 54.854 69.3162 55.6502 67.6807 54.94C66.0236 54.2729 65.2704 52.3792 65.9591 50.7437Z" fill="url(#paint1_linear_2186_1457)"/>
<path d="M55.5423 57.157C56.1233 56.662 56.6613 56.124 57.1778 55.543C60.7932 51.5618 63.0743 46.354 63.354 40.6513C63.3755 40.2854 63.3755 39.8981 63.3755 39.4892C63.3755 39.1234 63.3755 38.736 63.354 38.3702C63.0743 32.6459 60.7932 27.4596 57.1778 23.4784C56.6613 22.9405 56.1234 22.3809 55.5638 21.8645C55.5423 21.8645 55.5423 21.8645 55.5423 21.8645C51.5611 18.2491 46.3964 15.968 40.6721 15.6883C40.3063 15.6667 39.9189 15.6667 39.51 15.6667C39.1227 15.6667 38.7138 15.6667 38.348 15.6883C32.6237 15.968 27.4589 18.2491 23.4778 21.8645C23.4778 21.8645 23.4778 21.8645 23.4562 21.8645C22.9182 22.3809 22.3587 22.9189 21.8422 23.4784C18.2269 27.4596 15.9458 32.6674 15.666 38.3702C15.6445 38.736 15.6445 39.1234 15.6445 39.4892C15.6445 39.8766 15.6445 40.2854 15.666 40.6513C15.9458 46.3756 18.2269 51.5618 21.8422 55.543C22.3587 56.124 22.8967 56.662 23.4778 57.157C27.4589 60.7723 32.6237 63.0534 38.348 63.3332C38.7138 63.3547 39.1012 63.3547 39.51 63.3547C39.8974 63.3547 40.3063 63.3547 40.6721 63.3332C46.3964 63.0534 51.5611 60.7723 55.5423 57.157ZM33.1617 52.4226C32.9465 52.7885 32.5591 53.0252 32.1287 53.0252C31.9566 53.0252 31.7629 52.9606 31.6123 52.8745C31.0312 52.5948 30.816 51.9062 31.1173 51.3251C31.6553 50.2706 32.1502 49.1947 32.5376 48.0971C33.1186 46.6123 33.549 45.1274 33.7858 43.5995C33.9579 42.6311 34.087 41.6197 34.087 40.6513L34.1086 40.6298H29.8261C29.1805 40.6298 28.7071 40.1133 28.7071 39.4677C28.7071 38.9297 29.0514 38.4993 29.5248 38.3702C29.6109 38.3056 29.74 38.3056 29.8261 38.3056H34.087C34.0655 37.3372 33.9579 36.3904 33.7858 35.422C33.549 33.8941 33.1186 32.4092 32.5376 30.9243C32.1502 29.8268 31.6553 28.7723 31.1173 27.6963C30.816 27.1153 31.0312 26.4267 31.6123 26.1469C32.1502 25.8456 32.8604 26.0608 33.1617 26.5988C34.4744 29.0951 35.4213 31.6775 35.9377 34.2814C36.1745 35.4865 36.3251 36.7347 36.3897 37.9828C36.4112 38.0689 36.4112 38.198 36.4112 38.2841H36.6909H38.3695H39.1012H39.9619H40.6936H42.3722H42.6089C42.6089 38.198 42.6089 38.1119 42.6304 38.0043C42.695 36.7562 42.8456 35.508 43.1254 34.2599C43.6418 31.656 44.5887 29.0521 45.9014 26.5773C46.2027 26.0393 46.9129 25.8241 47.4509 26.1254C48.0319 26.4051 48.2471 27.0938 47.9458 27.6748C47.4078 28.7293 46.9129 29.8053 46.5255 30.9028C45.9445 32.3877 45.5141 33.8725 45.2774 35.4004C45.1052 36.3688 44.9976 37.3157 44.9761 38.2841H49.194C49.3231 38.2841 49.4092 38.2841 49.4952 38.3487C49.9902 38.4778 50.356 38.8867 50.356 39.4462C50.356 40.0918 49.8396 40.6082 49.194 40.6082H44.933L44.9545 40.6298C44.9545 41.5982 45.0837 42.6096 45.2558 43.578C45.4925 45.1059 45.9229 46.5908 46.504 48.0756C46.8913 49.1731 47.3863 50.2276 47.9243 51.3036C48.2256 51.8846 48.0104 52.5733 47.4293 52.853C47.2787 52.9391 47.0635 53.0037 46.9129 53.0037C46.4825 53.0037 46.0951 52.7669 45.8799 52.4011C44.5672 49.9048 43.6203 47.3224 43.1038 44.7185C42.8241 43.4704 42.6734 42.2222 42.6089 40.9741C42.5874 40.888 42.5874 40.7589 42.5874 40.6298C42.5874 40.6298 42.5874 40.6298 42.5874 40.6082H42.243H40.6721H40.0265H38.9936H38.348H36.777H36.4112C36.4112 40.6298 36.4112 40.6298 36.4112 40.6298C36.4112 40.7589 36.4112 40.8665 36.3897 40.9956C36.3251 42.2437 36.1745 43.4919 35.9377 44.697C35.4213 47.3439 34.4744 49.9263 33.1617 52.4226Z" fill="url(#paint2_linear_2186_1457)"/>
<path d="M66.6209 10.7816C59.8206 4.34722 50.7177 0.301486 40.668 0.0217285V13.3855C47.0163 13.6653 52.8052 16.2047 57.1737 20.2289L66.6209 10.7816ZM54.785 11.3412C54.1179 12.9767 52.2241 13.7514 50.6101 13.0843C48.9746 12.3956 48.1999 10.5234 48.867 8.8879C49.5557 7.2524 51.4279 6.47768 53.0634 7.18783C54.7204 7.85495 55.4736 9.72718 54.785 11.3412Z" fill="url(#paint3_linear_2186_1457)"/>
<path d="M40.668 65.6358V78.9996C50.7393 78.7198 59.8206 74.6741 66.6209 68.2397L57.1737 58.7925C52.8052 62.8167 47.0163 65.356 40.668 65.6358ZM52.8052 71.8335C51.1697 72.5006 49.2759 71.7474 48.6088 70.0904C47.9417 68.4549 48.7379 66.5611 50.3734 65.894C52.0089 65.2269 53.8596 66.0232 54.5483 67.6587C55.2369 69.2942 54.4407 71.1664 52.8052 71.8335Z" fill="url(#paint4_linear_2186_1457)"/>
<path d="M38.367 13.3853V0C28.3387 0.279758 19.2574 4.28245 12.4141 10.7599L21.8613 20.2071C26.2728 16.2044 32.0186 13.6651 38.367 13.3853ZM26.2298 7.05851C27.8653 6.39139 29.716 7.14459 30.4046 8.80161C31.0718 10.4371 30.3186 12.3309 28.6615 12.998C27.0045 13.6651 25.1323 12.8689 24.4652 11.2334C23.7981 9.57633 24.5943 7.72562 26.2298 7.05851Z" fill="url(#paint5_linear_2186_1457)"/>
<path d="M12.4141 68.2396C19.2574 74.7171 28.3387 78.7198 38.367 78.9995V65.6357C32.0186 65.356 26.2298 62.8166 21.8398 58.8354L12.4141 68.2396ZM24.2285 67.6801C24.9171 66.0446 26.8108 65.2699 28.4248 65.937C30.0603 66.6256 30.835 68.4979 30.1679 70.1334C29.4793 71.7689 27.5855 72.5436 25.9716 71.8334C24.3145 71.1663 23.5613 69.2941 24.2285 67.6801Z" fill="url(#paint6_linear_2186_1457)"/>
<path d="M20.2306 21.8427L10.7834 12.3955C4.34892 19.1958 0.303195 28.3202 0.0234375 38.3915H13.3873C13.6455 32.0216 16.2064 26.2328 20.2306 21.8427ZM13.086 28.4278C12.4189 30.0418 10.5251 30.838 8.88961 30.1279C7.27562 29.4607 6.47939 27.567 7.18954 25.9315C7.85666 24.3175 9.7504 23.5213 11.3859 24.2314C12.9784 24.8985 13.7746 26.7923 13.086 28.4278Z" fill="url(#paint7_linear_2186_1457)"/>
<path d="M13.3853 40.6509H0C0.279758 50.7222 4.32549 59.8251 10.7599 66.6468L20.2071 57.1996C16.2044 52.7881 13.6436 46.9992 13.3853 40.6509ZM11.2118 54.5312C9.59785 55.1983 7.72562 54.4021 7.03699 52.7665C6.36987 51.1526 7.16611 49.2803 8.80161 48.5917C10.4371 47.9246 12.2878 48.7208 12.9765 50.3563C13.6436 51.9918 12.8689 53.8641 11.2118 54.5312Z" fill="url(#paint8_linear_2186_1457)"/>
<defs>
<linearGradient id="paint0_linear_2186_1457" x1="34.4964" y1="25.3915" x2="1045.93" y2="25.3915" gradientUnits="userSpaceOnUse">
<stop stop-color="#D62300"/>
<stop offset="1" stop-color="#FF8732"/>
</linearGradient>
<linearGradient id="paint1_linear_2186_1457" x1="34.4964" y1="53.6295" x2="1045.93" y2="53.6295" gradientUnits="userSpaceOnUse">
<stop offset="1" stop-color="#FF8732"/>
</linearGradient>
<linearGradient id="paint2_linear_2186_1457" x1="-41.7026" y1="39.5107" x2="2346.2" y2="39.5107" gradientUnits="userSpaceOnUse">
<stop stop-color="#D62300"/>
<stop offset="1" stop-color="#FF8732"/>
</linearGradient>
<linearGradient id="paint3_linear_2186_1457" x1="9.46958" y1="10.1173" x2="1308.36" y2="10.1173" gradientUnits="userSpaceOnUse">
<stop offset="1" stop-color="#FF8732"/>
</linearGradient>
<linearGradient id="paint4_linear_2186_1457" x1="9.46958" y1="68.904" x2="1308.36" y2="68.904" gradientUnits="userSpaceOnUse">
<stop stop-color="#D62300"/>
<stop offset="1" stop-color="#FF8732"/>
</linearGradient>
<linearGradient id="paint5_linear_2186_1457" x1="-18.7836" y1="10.1002" x2="1280.25" y2="10.1002" gradientUnits="userSpaceOnUse">
<stop stop-color="#D62300"/>
<stop offset="1" stop-color="#FF8732"/>
</linearGradient>
<linearGradient id="paint6_linear_2186_1457" x1="-18.7836" y1="68.9142" x2="1280.25" y2="68.9142" gradientUnits="userSpaceOnUse">
<stop offset="1" stop-color="#FF8732"/>
</linearGradient>
<linearGradient id="paint7_linear_2186_1457" x1="-24.2673" y1="25.3892" x2="987.17" y2="25.3892" gradientUnits="userSpaceOnUse">
<stop offset="1" stop-color="#FF8732"/>
</linearGradient>
<linearGradient id="paint8_linear_2186_1457" x1="-24.2907" y1="53.6446" x2="987.147" y2="53.6446" gradientUnits="userSpaceOnUse">
<stop stop-color="#D62300"/>
<stop offset="1" stop-color="#FF8732"/>
</linearGradient>
</defs>
</svg>
