<svg width="50" height="50" viewBox="0 0 50 50" fill="none" xmlns="http://www.w3.org/2000/svg">
<path d="M32.4414 22.86C28.8514 22.84 25.9414 19.91 25.9414 16.31C25.9414 12.71 28.8814 9.77002 32.4814 9.77002C36.0814 9.77002 39.0214 12.71 39.0214 16.31C39.0214 19.93 36.0814 22.86 32.4814 22.86C32.4614 22.86 32.4514 22.86 32.4414 22.86Z" fill="url(#paint0_linear_2160_1415)"/>
<path d="M17.2822 22.86C13.6822 22.86 10.7422 19.92 10.7422 16.31C10.7422 12.71 13.6822 9.77002 17.2822 9.77002C20.8822 9.77002 23.8222 12.71 23.8222 16.31C23.8222 19.89 20.9522 22.8 17.3922 22.86C17.3522 22.86 17.3122 22.86 17.2822 22.86Z" fill="url(#paint1_linear_2160_1415)"/>
<path d="M42.0305 29.1401C39.5205 26.7001 36.3705 25.3701 33.0505 25.3701C32.9205 25.3701 32.7905 25.3701 32.6605 25.3701C30.3005 25.4401 28.0005 26.1701 25.9805 27.4401C26.2205 27.6301 26.4505 27.8201 26.6805 28.0201C29.8005 30.8401 31.5105 34.6601 31.5105 38.7901V40.2301H45.8005C46.1705 40.2301 46.4805 39.9301 46.4805 39.5501C46.4805 35.6801 44.8705 31.8901 42.0305 29.1401Z" fill="url(#paint2_linear_2160_1415)"/>
<path d="M17.3417 25.3701C18.9017 25.4101 20.4517 25.7501 21.9117 26.3401C23.3717 26.9301 24.7217 27.7701 25.9117 28.8601C28.7817 31.4601 30.3717 34.9801 30.3717 38.7801V40.2201H4.21172C3.83172 40.2201 3.51172 39.9201 3.51172 39.5401C3.51172 35.6701 5.14172 31.8701 7.96172 29.1301C10.4717 26.6901 13.6417 25.3601 16.9417 25.3501C16.9517 25.3501 16.9517 25.3501 16.9717 25.3501C17.1017 25.3601 17.2217 25.3601 17.3417 25.3701Z" fill="url(#paint3_linear_2160_1415)"/>
<defs>
<linearGradient id="paint0_linear_2160_1415" x1="-91.6623" y1="16.3121" x2="320.484" y2="16.3121" gradientUnits="userSpaceOnUse">
<stop stop-color="#D62300"/>
<stop offset="1" stop-color="#FF8732"/>
</linearGradient>
<linearGradient id="paint1_linear_2160_1415" x1="-89.3825" y1="16.3121" x2="322.764" y2="16.3121" gradientUnits="userSpaceOnUse">
<stop stop-color="#D62300"/>
<stop offset="1" stop-color="#FF8732"/>
</linearGradient>
<linearGradient id="paint2_linear_2160_1415" x1="-98.5044" y1="32.8045" x2="338.279" y2="32.8045" gradientUnits="userSpaceOnUse">
<stop stop-color="#D62300"/>
<stop offset="1" stop-color="#FF8732"/>
</linearGradient>
<linearGradient id="paint3_linear_2160_1415" x1="-96.088" y1="32.7979" x2="340.696" y2="32.7979" gradientUnits="userSpaceOnUse">
<stop stop-color="#D62300"/>
<stop offset="1" stop-color="#FF8732"/>
</linearGradient>
</defs>
</svg>
