<svg width="88" height="86" viewBox="0 0 88 86" fill="none" xmlns="http://www.w3.org/2000/svg">
<path fill-rule="evenodd" clip-rule="evenodd" d="M82.5547 8.84712C82.5547 6.96781 81.0312 5.44434 79.1519 5.44434H70.9852C69.1059 5.44434 67.5825 6.96781 67.5825 8.84712V17.0138C67.5825 18.8931 69.1059 20.4166 70.9852 20.4166H79.1519C81.0312 20.4166 82.5547 18.8931 82.5547 17.0138V8.84712ZM79.1519 8.16656C79.5278 8.16656 79.8325 8.47125 79.8325 8.84712V17.0138C79.8325 17.3896 79.5278 17.6943 79.1519 17.6943H70.9852C70.6094 17.6943 70.3047 17.3896 70.3047 17.0138V8.84712C70.3047 8.47125 70.6094 8.16656 70.9852 8.16656H79.1519ZM64.8602 8.84712C64.8602 6.96781 63.3368 5.44434 61.4575 5.44434H53.2908C51.4115 5.44434 49.888 6.96781 49.888 8.84712V17.0138C49.888 18.8931 51.4115 20.4166 53.2908 20.4166H61.4575C63.3368 20.4166 64.8602 18.8931 64.8602 17.0138V8.84712ZM61.4575 8.16656C61.8333 8.16656 62.138 8.47125 62.138 8.84712V17.0138C62.138 17.3896 61.8333 17.6943 61.4575 17.6943H53.2908C52.9149 17.6943 52.6102 17.3896 52.6102 17.0138V8.84712C52.6102 8.47125 52.9149 8.16656 53.2908 8.16656H61.4575ZM77.1102 12.2499C77.1102 11.4982 76.5009 10.8888 75.7491 10.8888H74.388C73.6363 10.8888 73.0269 11.4982 73.0269 12.2499V13.611C73.0269 14.3627 73.6363 14.9721 74.388 14.9721H75.7491C76.5009 14.9721 77.1102 14.3627 77.1102 13.611V12.2499ZM59.4158 12.2499C59.4158 11.4982 58.8064 10.8888 58.0547 10.8888H56.6936C55.9419 10.8888 55.3325 11.4982 55.3325 12.2499V13.611C55.3325 14.3627 55.9419 14.9721 56.6936 14.9721H58.0547C58.8064 14.9721 59.4158 14.3627 59.4158 13.611V12.2499ZM82.5547 26.5416C82.5547 24.6623 81.0312 23.1388 79.1519 23.1388H70.9852C69.1059 23.1388 67.5825 24.6623 67.5825 26.5416V34.7082C67.5825 36.5875 69.1059 38.111 70.9852 38.111H79.1519C81.0312 38.111 82.5547 36.5875 82.5547 34.7082V26.5416ZM79.1519 25.861C79.5278 25.861 79.8325 26.1657 79.8325 26.5416V34.7082C79.8325 35.0841 79.5278 35.3888 79.1519 35.3888H70.9852C70.6094 35.3888 70.3047 35.0841 70.3047 34.7082V26.5416C70.3047 26.1657 70.6094 25.861 70.9852 25.861H79.1519ZM64.8602 24.4999C64.8602 23.7482 64.2509 23.1388 63.4991 23.1388H62.138C61.3863 23.1388 60.7769 23.7482 60.7769 24.4999V25.861C60.7769 26.6127 61.3863 27.2221 62.138 27.2221H63.4991C64.2509 27.2221 64.8602 26.6127 64.8602 25.861V24.4999ZM53.9714 24.4999C53.9714 23.7482 53.362 23.1388 52.6102 23.1388H51.2491C50.4974 23.1388 49.888 23.7482 49.888 24.4999V25.861C49.888 26.6127 50.4974 27.2221 51.2491 27.2221H52.6102C53.362 27.2221 53.9714 26.6127 53.9714 25.861V24.4999ZM77.1102 29.9443C77.1102 29.1926 76.5009 28.5832 75.7491 28.5832H74.388C73.6363 28.5832 73.0269 29.1926 73.0269 29.9443V31.3055C73.0269 32.0572 73.6363 32.6666 74.388 32.6666H75.7491C76.5009 32.6666 77.1102 32.0572 77.1102 31.3055V29.9443ZM59.4158 29.9443C59.4158 29.1926 58.8064 28.5832 58.0547 28.5832H56.6936C55.9419 28.5832 55.3325 29.1926 55.3325 29.9443V31.3055C55.3325 32.0572 55.9419 32.6666 56.6936 32.6666H58.0547C58.8064 32.6666 59.4158 32.0572 59.4158 31.3055V29.9443ZM64.8602 35.3888C64.8602 34.6371 64.2509 34.0277 63.4991 34.0277H62.138C61.3863 34.0277 60.7769 34.6371 60.7769 35.3888V36.7499C60.7769 37.5016 61.3863 38.111 62.138 38.111H63.4991C64.2509 38.111 64.8602 37.5016 64.8602 36.7499V35.3888ZM53.9714 35.3888C53.9714 34.6371 53.362 34.0277 52.6102 34.0277H51.2491C50.4974 34.0277 49.888 34.6371 49.888 35.3888V36.7499C49.888 37.5016 50.4974 38.111 51.2491 38.111H52.6102C53.362 38.111 53.9714 37.5016 53.9714 36.7499V35.3888Z" fill="url(#paint0_linear_2210_3239)"/>
<path d="M14.1671 29.8472C14.1671 22.6752 19.9812 16.8611 27.1532 16.8611C34.3252 16.8611 40.1393 22.6752 40.1393 29.8472C40.1393 37.0192 34.3252 42.8333 27.1532 42.8333C19.9812 42.8333 14.1671 37.0192 14.1671 29.8472Z" fill="url(#paint1_linear_2210_3239)"/>
<path d="M44.8615 36.9305C44.8615 31.0625 49.6185 26.3055 55.4865 26.3055C61.3546 26.3055 66.1115 31.0625 66.1115 36.9305C66.1115 42.7986 61.3546 47.5555 55.4865 47.5555C49.6185 47.5555 44.8615 42.7986 44.8615 36.9305Z" fill="url(#paint2_linear_2210_3239)"/>
<path d="M4.72266 69.9861C4.72266 57.598 14.7652 47.5555 27.1532 47.5555C39.5413 47.5555 49.5838 57.598 49.5838 69.9861V69.9941C49.5837 70.1195 49.5826 70.2454 49.5805 70.37C49.5668 71.1838 49.135 71.9332 48.4377 72.353C42.2193 76.097 34.9341 78.25 27.1532 78.25C19.3723 78.25 12.0871 76.097 5.86877 72.353C5.17146 71.9332 4.73957 71.1838 4.72589 70.37C4.72374 70.2423 4.72266 70.1144 4.72266 69.9861Z" fill="url(#paint3_linear_2210_3239)"/>
<path d="M54.3055 69.996C54.3054 70.1473 54.3041 70.299 54.3016 70.4494C54.2837 71.5155 54.0265 72.5448 53.5683 73.471C54.2028 73.5087 54.8423 73.5278 55.4861 73.5278C60.5096 73.5278 65.268 72.364 69.5003 70.2891C70.2779 69.9079 70.7844 69.1316 70.8201 68.2663C70.8289 68.0535 70.8333 67.8397 70.8333 67.625C70.8333 59.149 63.9621 52.2778 55.4861 52.2778C53.1361 52.2778 50.9095 52.8059 48.9186 53.75C52.3021 58.2785 54.3055 63.8984 54.3055 69.9861V69.996Z" fill="url(#paint4_linear_2210_3239)"/>
<defs>
<linearGradient id="paint0_linear_2210_3239" x1="261.316" y1="21.7752" x2="-131.731" y2="21.7752" gradientUnits="userSpaceOnUse">
<stop stop-color="#D62300"/>
<stop offset="1" stop-color="#FF8732"/>
</linearGradient>
<linearGradient id="paint1_linear_2210_3239" x1="37.778" y1="16.8611" x2="37.778" y2="78.25" gradientUnits="userSpaceOnUse">
<stop stop-color="#D72702"/>
<stop offset="1" stop-color="#FF8732"/>
</linearGradient>
<linearGradient id="paint2_linear_2210_3239" x1="37.778" y1="16.8611" x2="37.778" y2="78.25" gradientUnits="userSpaceOnUse">
<stop stop-color="#D72702"/>
<stop offset="1" stop-color="#FF8732"/>
</linearGradient>
<linearGradient id="paint3_linear_2210_3239" x1="37.778" y1="16.8611" x2="37.778" y2="78.25" gradientUnits="userSpaceOnUse">
<stop stop-color="#D72702"/>
<stop offset="1" stop-color="#FF8732"/>
</linearGradient>
<linearGradient id="paint4_linear_2210_3239" x1="37.778" y1="16.8611" x2="37.778" y2="78.25" gradientUnits="userSpaceOnUse">
<stop stop-color="#D72702"/>
<stop offset="1" stop-color="#FF8732"/>
</linearGradient>
</defs>
</svg>
