<svg width="85" height="60" viewBox="0 0 85 60" fill="none" xmlns="http://www.w3.org/2000/svg">
<path d="M56.9872 25.7846C49.9157 25.7452 44.1836 19.9737 44.1836 12.8824C44.1836 5.79119 49.9748 0 57.066 0C64.1573 0 69.9485 5.79119 69.9485 12.8824C69.9485 20.0131 64.1573 25.7846 57.066 25.7846C57.0266 25.7846 57.0069 25.7846 56.9872 25.7846Z" fill="url(#paint0_linear_2186_1438)"/>
<path d="M27.1207 25.7846C20.0295 25.7846 14.2383 19.9934 14.2383 12.8824C14.2383 5.79119 20.0295 0 27.1207 0C34.212 0 40.0032 5.79119 40.0032 12.8824C40.0032 19.9343 34.3499 25.6664 27.3374 25.7846C27.2586 25.7846 27.1798 25.7846 27.1207 25.7846Z" fill="url(#paint1_linear_2186_1438)"/>
<path d="M75.8769 38.1551C70.9327 33.3488 64.7279 30.729 58.1881 30.729C57.9321 30.729 57.676 30.729 57.4199 30.729C52.7712 30.8669 48.2407 32.3048 44.2617 34.8065C44.7345 35.1807 45.1875 35.555 45.6406 35.949C51.7863 41.5038 55.1547 49.0284 55.1547 57.1636V60.0001H83.303C84.0318 60.0001 84.6425 59.4092 84.6425 58.6607C84.6425 51.0376 81.4711 43.572 75.8769 38.1551Z" fill="url(#paint2_linear_2186_1438)"/>
<path d="M27.2422 30.7291C30.3151 30.8079 33.3683 31.4776 36.2442 32.6398C39.1201 33.802 41.7793 35.4566 44.1233 37.6037C49.7766 42.7251 52.9086 49.6588 52.9086 57.144V59.9805H1.37885C0.630334 59.9805 0 59.3896 0 58.641C0 51.018 3.21076 43.5327 8.76557 38.1355C13.7098 33.3292 19.954 30.7094 26.4543 30.6897C26.474 30.6897 26.474 30.6897 26.5134 30.6897C26.7695 30.7094 27.0058 30.7094 27.2422 30.7291Z" fill="url(#paint3_linear_2186_1438)"/>
<defs>
<linearGradient id="paint0_linear_2186_1438" x1="-187.471" y1="12.8866" x2="624.371" y2="12.8866" gradientUnits="userSpaceOnUse">
<stop offset="1" stop-color="#FF8732"/>
</linearGradient>
<linearGradient id="paint1_linear_2186_1438" x1="-182.987" y1="12.8866" x2="628.856" y2="12.8866" gradientUnits="userSpaceOnUse">
<stop stop-color="#D62300"/>
<stop offset="1" stop-color="#FF8732"/>
</linearGradient>
<linearGradient id="paint2_linear_2186_1438" x1="-200.948" y1="45.3732" x2="659.425" y2="45.3732" gradientUnits="userSpaceOnUse">
<stop stop-color="#FF8732"/>
</linearGradient>
<linearGradient id="paint3_linear_2186_1438" x1="-196.191" y1="45.3603" x2="664.182" y2="45.3603" gradientUnits="userSpaceOnUse">
<stop stop-color="#E03C0D"/>
<stop offset="1" stop-color="#FF8732"/>
</linearGradient>
</defs>
</svg>
