<svg width="70" height="70" viewBox="0 0 70 70" fill="none" xmlns="http://www.w3.org/2000/svg">
<path d="M34.5154 40.2396C32.5761 40.2396 30.7487 39.6056 29.257 38.5428L21.1456 48.1272C20.7727 48.5747 20.9405 49.0409 20.9965 49.1901C21.0524 49.3206 21.2948 49.7495 21.8729 49.7495H48.2394C48.8175 49.7495 49.0785 49.3206 49.1158 49.1901C49.1718 49.0409 49.3396 48.5747 48.9666 48.1272L40.4264 38.0393C38.8228 39.4378 36.753 40.2396 34.5154 40.2396Z" fill="url(#paint0_linear_2186_1531)"/>
<path d="M34.5197 23.8679C30.8836 23.8679 27.8255 26.5903 27.3594 30.1332H41.6615C41.2139 26.5903 38.1745 23.8679 34.5197 23.8679Z" fill="url(#paint1_linear_2186_1531)"/>
<path d="M34.5197 38.319C38.1932 38.319 41.2139 35.5966 41.6801 32.0537H27.3594C27.8069 35.5966 30.865 38.319 34.5197 38.319Z" fill="url(#paint2_linear_2186_1531)"/>
<path d="M60.6207 0.205115C59.9121 0.0745874 59.2035 0 58.4763 0H11.561C10.8338 0 10.1252 0.0745874 9.41662 0.205115C4.04635 1.21204 0 5.89238 0 11.5237V58.439C0 64.8162 5.1838 70 11.561 70H58.4763C64.8535 70 70 64.8162 70 58.439V11.5237C70 5.89238 65.9537 1.21204 60.6207 0.205115ZM34.5152 21.9286C39.2515 21.9286 43.13 25.5461 43.6148 30.1145H62.9515C63.455 30.1145 63.8839 30.5434 63.8839 31.0842C63.8839 31.6249 63.455 32.0538 62.9515 32.0538H43.6148C43.447 33.7693 42.7571 35.3729 41.7688 36.6596L50.4395 46.8966C51.1668 47.773 51.3159 48.9478 50.8684 49.9734C50.3836 51.0176 49.3767 51.6329 48.2392 51.6329H21.8727C20.7352 51.6329 19.7283 50.9989 19.2435 49.9734C18.7587 48.9291 18.9451 47.773 19.6724 46.8966L27.821 37.2936C26.4971 35.8764 25.6393 34.049 25.4529 32.0538H7.10442C6.58231 32.0538 6.13479 31.6249 6.13479 31.0842C6.13479 30.5434 6.56367 30.1145 7.10442 30.1145H25.4529C25.919 25.5461 29.7976 21.9286 34.5152 21.9286ZM5.98561 11.3745C5.98561 8.76398 7.83165 6.56366 10.3117 6.0602C10.666 6.00426 11.0202 5.96697 11.3932 5.96697H22.8423C23.3644 5.96697 23.8119 6.39584 23.8119 6.9366C23.8119 7.45871 23.3831 7.90623 22.8423 7.90623H11.3932C9.45392 7.90623 7.88759 9.47256 7.88759 11.3932V22.8609C7.88759 23.3831 7.47736 23.8306 6.95525 23.8306C6.43314 23.8306 5.98561 23.4017 5.98561 22.8609V11.3745ZM22.8609 64.0144H11.4118C8.42834 64.0144 6.00426 61.5903 6.00426 58.6068V47.1577C6.00426 46.6356 6.43314 46.1881 6.9739 46.1881C7.51465 46.1881 7.90623 46.6169 7.90623 47.1577V58.6068C7.90623 60.5461 9.47256 62.1124 11.4118 62.1124H22.8609C23.3831 62.1124 23.8306 62.5413 23.8306 63.0448C23.8119 63.5669 23.3831 64.0144 22.8609 64.0144ZM64.0144 58.5882C64.0144 61.5717 61.6089 63.9957 58.6255 63.9957H47.1577C46.6356 63.9957 46.1881 63.5669 46.1881 63.0261C46.1881 62.5226 46.6169 62.0938 47.1577 62.0938H58.6255C60.5461 62.0938 62.1124 60.5274 62.1124 58.5882V47.1391C62.1124 46.6169 62.5413 46.1694 63.0821 46.1694C63.6228 46.1694 64.0144 46.5983 64.0144 47.1391V58.5882ZM64.0144 22.8609C64.0144 23.3831 63.6042 23.8306 63.0821 23.8306C62.5599 23.8306 62.1124 23.4017 62.1124 22.8609V11.3932C62.1124 9.47256 60.5461 7.90623 58.6255 7.90623H47.1577C46.6356 7.90623 46.1881 7.47736 46.1881 6.9366C46.1881 6.41449 46.6169 5.96697 47.1577 5.96697H58.6255C58.9984 5.96697 59.3527 6.02291 59.707 6.0602C62.1684 6.56366 63.9957 8.76398 63.9957 11.3745V22.8609H64.0144Z" fill="url(#paint3_linear_2186_1531)"/>
<defs>
<linearGradient id="paint0_linear_2186_1531" x1="26.7706" y1="47.993" x2="33.1291" y2="33.5258" gradientUnits="userSpaceOnUse">
<stop stop-color="#D62300"/>
<stop offset="0.542388" stop-color="#FF8732"/>
</linearGradient>
<linearGradient id="paint1_linear_2186_1531" x1="30.3219" y1="29.1934" x2="33.8538" y2="21.6008" gradientUnits="userSpaceOnUse">
<stop stop-color="#D62300"/>
<stop offset="0.542388" stop-color="#FF8732"/>
</linearGradient>
<linearGradient id="paint2_linear_2186_1531" x1="30.3258" y1="37.3792" x2="33.8547" y2="29.783" gradientUnits="userSpaceOnUse">
<stop stop-color="#D62300"/>
<stop offset="0.542388" stop-color="#FF8732"/>
</linearGradient>
<linearGradient id="paint3_linear_2186_1531" x1="14.5" y1="59.5" x2="66" y2="11" gradientUnits="userSpaceOnUse">
<stop stop-color="#D62300"/>
<stop offset="0.542388" stop-color="#FF8732"/>
</linearGradient>
</defs>
</svg>
