<svg width="50" height="50" viewBox="0 0 50 50" fill="none" xmlns="http://www.w3.org/2000/svg">
<path d="M24.7416 27.8099C23.7016 27.8099 22.7216 27.4699 21.9216 26.8999L17.5716 32.0399C17.3716 32.2799 17.4616 32.5299 17.4916 32.6099C17.5216 32.6799 17.6516 32.9099 17.9616 32.9099H32.1016C32.4116 32.9099 32.5516 32.6799 32.5716 32.6099C32.6016 32.5299 32.6916 32.2799 32.4916 32.0399L27.9116 26.6299C27.0516 27.3799 25.9416 27.8099 24.7416 27.8099Z" fill="url(#paint0_linear_2160_1465)"/>
<path d="M24.7423 19.03C22.7923 19.03 21.1523 20.49 20.9023 22.39H28.5723C28.3323 20.49 26.7023 19.03 24.7423 19.03Z" fill="url(#paint1_linear_2160_1465)"/>
<path d="M24.7423 26.7799C26.7123 26.7799 28.3323 25.3199 28.5823 23.4199H20.9023C21.1423 25.3199 22.7823 26.7799 24.7423 26.7799Z" fill="url(#paint2_linear_2160_1465)"/>
<path d="M38.7405 6.33998C38.3605 6.26998 37.9805 6.22998 37.5905 6.22998H12.4305C12.0405 6.22998 11.6605 6.26998 11.2805 6.33998C8.40047 6.87998 6.23047 9.38998 6.23047 12.41V37.57C6.23047 40.99 9.01047 43.77 12.4305 43.77H37.5905C41.0105 43.77 43.7705 40.99 43.7705 37.57V12.41C43.7705 9.38998 41.6005 6.87998 38.7405 6.33998ZM24.7405 17.99C27.2805 17.99 29.3605 19.93 29.6205 22.38H39.9905C40.2605 22.38 40.4905 22.61 40.4905 22.9C40.4905 23.19 40.2605 23.42 39.9905 23.42H29.6205C29.5305 24.34 29.1605 25.2 28.6305 25.89L33.2805 31.38C33.6705 31.85 33.7505 32.48 33.5105 33.03C33.2505 33.59 32.7105 33.92 32.1005 33.92H17.9605C17.3505 33.92 16.8105 33.58 16.5505 33.03C16.2905 32.47 16.3905 31.85 16.7805 31.38L21.1505 26.23C20.4405 25.47 19.9805 24.49 19.8805 23.42H10.0405C9.76047 23.42 9.52047 23.19 9.52047 22.9C9.52047 22.61 9.75047 22.38 10.0405 22.38H19.8805C20.1305 19.93 22.2105 17.99 24.7405 17.99ZM9.44047 12.33C9.44047 10.93 10.4305 9.74998 11.7605 9.47998C11.9505 9.44998 12.1405 9.42998 12.3405 9.42998H18.4805C18.7605 9.42998 19.0005 9.65998 19.0005 9.94998C19.0005 10.23 18.7705 10.47 18.4805 10.47H12.3405C11.3005 10.47 10.4605 11.31 10.4605 12.34V18.49C10.4605 18.77 10.2405 19.01 9.96047 19.01C9.68047 19.01 9.44047 18.78 9.44047 18.49V12.33ZM18.4905 40.56H12.3505C10.7505 40.56 9.45047 39.26 9.45047 37.66V31.52C9.45047 31.24 9.68047 31 9.97047 31C10.2605 31 10.4705 31.23 10.4705 31.52V37.66C10.4705 38.7 11.3105 39.54 12.3505 39.54H18.4905C18.7705 39.54 19.0105 39.77 19.0105 40.04C19.0005 40.32 18.7705 40.56 18.4905 40.56ZM40.5605 37.65C40.5605 39.25 39.2705 40.55 37.6705 40.55H31.5205C31.2405 40.55 31.0005 40.32 31.0005 40.03C31.0005 39.76 31.2305 39.53 31.5205 39.53H37.6705C38.7005 39.53 39.5405 38.69 39.5405 37.65V31.51C39.5405 31.23 39.7705 30.99 40.0605 30.99C40.3505 30.99 40.5605 31.22 40.5605 31.51V37.65ZM40.5605 18.49C40.5605 18.77 40.3405 19.01 40.0605 19.01C39.7805 19.01 39.5405 18.78 39.5405 18.49V12.34C39.5405 11.31 38.7005 10.47 37.6705 10.47H31.5205C31.2405 10.47 31.0005 10.24 31.0005 9.94998C31.0005 9.66998 31.2305 9.42998 31.5205 9.42998H37.6705C37.8705 9.42998 38.0605 9.45998 38.2505 9.47998C39.5705 9.74998 40.5505 10.93 40.5505 12.33V18.49H40.5605Z" fill="url(#paint3_linear_2160_1465)"/>
<defs>
<linearGradient id="paint0_linear_2160_1465" x1="-113.853" y1="29.7696" x2="78.8866" y2="29.7696" gradientUnits="userSpaceOnUse">
<stop stop-color="#D62300"/>
<stop offset="1" stop-color="#FF8732"/>
</linearGradient>
<linearGradient id="paint1_linear_2160_1465" x1="-45.4615" y1="20.7062" x2="51.9611" y2="20.7062" gradientUnits="userSpaceOnUse">
<stop stop-color="#D62300"/>
<stop offset="1" stop-color="#FF8732"/>
</linearGradient>
<linearGradient id="paint2_linear_2160_1465" x1="-45.4615" y1="25.0989" x2="51.9611" y2="25.0989" gradientUnits="userSpaceOnUse">
<stop stop-color="#D62300"/>
<stop offset="1" stop-color="#FF8732"/>
</linearGradient>
<linearGradient id="paint3_linear_2160_1465" x1="-318.383" y1="25" x2="158.164" y2="25" gradientUnits="userSpaceOnUse">
<stop stop-color="#D62300"/>
<stop offset="1" stop-color="#FF8732"/>
</linearGradient>
</defs>
</svg>
