<svg width="50" height="50" viewBox="0 0 50 50" fill="none" xmlns="http://www.w3.org/2000/svg">
<path d="M8.80104 44C8.0448 44 7.38883 43.7223 6.83313 43.1669C6.27771 42.6112 6 41.9552 6 41.199V9.80104C6 9.06356 6.27771 8.41235 6.83313 7.84741C7.38883 7.28247 8.0448 7 8.80104 7H40.199C40.9364 7 41.5876 7.28247 42.1526 7.84741C42.7175 8.41235 43 9.06356 43 9.80104V41.199C43 41.9552 42.7175 42.6112 42.1526 43.1669C41.5876 43.7223 40.9364 44 40.199 44H8.80104ZM16.0832 42.3195L18.044 40.2747L14.7669 36.9976H36.2497V27.4748H33.4487V34.197H14.7669L18.044 30.9199L16.0832 28.8752L9.36108 35.5973L16.0832 42.3195ZM12.7222 23.5533H15.5232V16.8312H34.2049L30.9279 20.1082L32.8886 22.153L39.6108 15.4308L32.8886 8.70869L30.9279 10.7535L34.2049 14.0305H12.7222V23.5533ZM23.8137 30.4998H26.0266V20.4725H21.4051V22.6853H23.8137V30.4998Z" fill="#FFA629"/>
</svg>
