<svg width="100" height="100" viewBox="0 0 100 100" fill="none" xmlns="http://www.w3.org/2000/svg">
<path d="M16.8292 89C15.2554 89 13.8903 88.4221 12.7338 87.2662C11.5779 86.1097 11 84.7446 11 83.1708V17.8292C11 16.2944 11.5779 14.9392 12.7338 13.7635C13.8903 12.5878 15.2554 12 16.8292 12H82.1708C83.7056 12 85.0608 12.5878 86.2365 13.7635C87.4122 14.9392 88 16.2944 88 17.8292V83.1708C88 84.7446 87.4122 86.1097 86.2365 87.2662C85.0608 88.4221 83.7056 89 82.1708 89H16.8292ZM31.984 85.5027L36.0645 81.2473L29.2447 74.4275H73.9521V54.6098H68.1229V68.5992H29.2447L36.0645 61.7793L31.984 57.524L17.9947 71.5133L31.984 85.5027ZM24.9893 46.4488H30.8185V32.4594H69.6967L62.8769 39.2792L66.9574 43.5346L80.9467 29.5453L66.9574 15.5559L62.8769 19.8113L69.6967 26.6311H24.9893V46.4488ZM48.0718 60.905H52.6769V40.0373H43.0592V44.6424H48.0718V60.905Z" fill="#CBC9C7"/>
</svg>
