<svg width="71" height="68" viewBox="0 0 71 68" fill="none" xmlns="http://www.w3.org/2000/svg">
<path d="M71 8.37096V59.6103C71 64.2462 67.2592 68 62.6394 68H8.36064C3.74078 68 0 64.2462 0 59.6103V8.38973C0 3.75379 3.74078 0 8.36064 0H62.6581C67.2592 0 71 3.75379 71 8.37096ZM57.5332 20.7585C57.5332 16.2352 53.8859 12.6128 49.4157 12.6128C44.9081 12.6128 41.2982 16.2539 41.2982 20.7585C41.2982 25.2443 44.9268 28.9042 49.4157 28.9042C53.8859 28.9042 57.5332 25.2443 57.5332 20.7585ZM57.5332 47.2415C57.5332 42.7557 53.8859 39.0958 49.4157 39.0958C44.9081 39.0958 41.2982 42.7557 41.2982 47.2415C41.2982 51.7273 44.9268 55.3873 49.4157 55.3873C53.8859 55.3873 57.5332 51.7273 57.5332 47.2415ZM29.7392 20.7585C29.7392 16.2352 26.0919 12.6128 21.6217 12.6128C17.1141 12.6128 13.5042 16.2539 13.5042 20.7585C13.5042 25.2443 17.1328 28.9042 21.6217 28.9042C26.0919 28.9042 29.7392 25.2443 29.7392 20.7585ZM29.7392 47.2415C29.7392 42.7557 26.0919 39.0958 21.6217 39.0958C17.1141 39.0958 13.5042 42.7557 13.5042 47.2415C13.5042 51.7273 17.1328 55.3873 21.6217 55.3873C26.0919 55.3873 29.7392 51.7273 29.7392 47.2415Z" fill="url(#paint0_linear_2186_1539)"/>
<defs>
<linearGradient id="paint0_linear_2186_1539" x1="-2.21396e-08" y1="46.5" x2="79" y2="45" gradientUnits="userSpaceOnUse">
<stop stop-color="#D62300"/>
<stop offset="0.687787" stop-color="#FF8732"/>
</linearGradient>
</defs>
</svg>
