<svg width="50" height="50" viewBox="0 0 50 50" fill="none" xmlns="http://www.w3.org/2000/svg">
<path d="M43.9795 10.69V37.99C43.9795 40.46 41.9795 42.46 39.5095 42.46H10.4895C8.01953 42.46 6.01953 40.46 6.01953 37.99V10.7C6.01953 8.22998 8.01953 6.22998 10.4895 6.22998H39.5195C41.9795 6.22998 43.9795 8.22998 43.9795 10.69ZM36.7795 17.29C36.7795 14.88 34.8295 12.95 32.4395 12.95C30.0295 12.95 28.0995 14.89 28.0995 17.29C28.0995 19.68 30.0395 21.63 32.4395 21.63C34.8295 21.63 36.7795 19.68 36.7795 17.29ZM36.7795 31.4C36.7795 29.01 34.8295 27.06 32.4395 27.06C30.0295 27.06 28.0995 29.01 28.0995 31.4C28.0995 33.79 30.0395 35.74 32.4395 35.74C34.8295 35.74 36.7795 33.79 36.7795 31.4ZM21.9195 17.29C21.9195 14.88 19.9695 12.95 17.5795 12.95C15.1695 12.95 13.2395 14.89 13.2395 17.29C13.2395 19.68 15.1795 21.63 17.5795 21.63C19.9695 21.63 21.9195 19.68 21.9195 17.29ZM21.9195 31.4C21.9195 29.01 19.9695 27.06 17.5795 27.06C15.1695 27.06 13.2395 29.01 13.2395 31.4C13.2395 33.79 15.1795 35.74 17.5795 35.74C19.9695 35.74 21.9195 33.79 21.9195 31.4Z" fill="url(#paint0_linear_2160_1450)"/>
<defs>
<linearGradient id="paint0_linear_2160_1450" x1="-408.437" y1="24.3455" x2="51.4917" y2="24.3455" gradientUnits="userSpaceOnUse">
<stop stop-color="#D62300"/>
<stop offset="1" stop-color="#FF8732"/>
</linearGradient>
</defs>
</svg>
