<svg width="76" height="66" viewBox="0 0 76 66" fill="none" xmlns="http://www.w3.org/2000/svg">
<path d="M64.4688 29.6283V45.3473C64.4688 45.4961 64.3448 45.5952 64.2208 45.5952H48.5018C48.3531 45.5952 48.2539 45.4961 48.2539 45.3473V29.6283C48.2539 29.5043 48.3531 29.3804 48.5018 29.3804H64.2208C64.3448 29.3804 64.4688 29.5043 64.4688 29.6283Z" fill="url(#paint0_linear_2186_1491)"/>
<path d="M0 6.64463C0 2.97521 2.97521 0 6.64463 0H68.8017C72.4711 0 75.4463 2.97521 75.4463 6.64463V64.5124C75.4463 65.3554 74.7769 66 73.9587 66H10.3884C9.54545 66 8.90083 65.3306 8.90083 64.5124V57.9174V8.38017C8.90083 6.76859 7.58678 5.45455 5.97521 5.45455H4.1405C3.64463 5.45455 3.22314 5.87603 3.22314 6.3967C3.22314 6.91736 3.64463 7.33884 4.1405 7.33884H5.97521C6.57025 7.33884 7.04132 7.83471 7.04132 8.40496V57H1.5124C0.669423 57 0 56.3058 0 55.4876V6.64463ZM66.2975 45.3471V29.6281C66.2975 28.4876 65.3554 27.5455 64.2149 27.5455H48.4959C47.3554 27.5455 46.3884 28.4876 46.3884 29.6281V45.3471C46.3884 46.4876 47.3306 47.4545 48.4959 47.4545H64.2149C65.3554 47.4545 66.2975 46.4876 66.2975 45.3471ZM66.0248 56.0826C66.0248 55.562 65.6033 55.1405 65.1074 55.1405H18.9669C18.4463 55.1405 18.0248 55.562 18.0248 56.0826C18.0248 56.6033 18.4463 57 18.9669 57H65.1322C65.6033 57 66.0248 56.6033 66.0248 56.0826ZM66.2975 10.0661C66.2975 9.54545 65.876 9.14876 65.3802 9.14876H46.7603C46.2397 9.14876 45.8182 9.54545 45.8182 10.0661C45.8182 10.5868 46.2397 11.0083 46.7603 11.0083H65.3802C65.876 10.9835 66.2975 10.562 66.2975 10.0661ZM66.2975 19.2645C66.2975 18.7438 65.876 18.3471 65.3802 18.3471H46.7603C46.2397 18.3471 45.8182 18.7438 45.8182 19.2645C45.8182 19.7851 46.2397 20.2066 46.7603 20.2066H65.3802C65.876 20.1818 66.2975 19.7603 66.2975 19.2645ZM38.5041 10.0661C38.5041 9.54545 38.0826 9.14876 37.562 9.14876H18.9669C18.4463 9.14876 18.0248 9.54545 18.0248 10.0661C18.0248 10.5868 18.4463 11.0083 18.9669 11.0083H37.562C38.0826 10.9835 38.5041 10.562 38.5041 10.0661ZM38.5041 19.2645C38.5041 18.7438 38.0826 18.3471 37.562 18.3471H18.9669C18.4463 18.3471 18.0248 18.7438 18.0248 19.2645C18.0248 19.7851 18.4463 20.2066 18.9669 20.2066H37.562C38.0826 20.1818 38.5041 19.7603 38.5041 19.2645ZM38.5041 28.4628C38.5041 27.9669 38.0826 27.5455 37.562 27.5455H18.9669C18.4463 27.5455 18.0248 27.9669 18.0248 28.4628C18.0248 28.9835 18.4463 29.405 18.9669 29.405H37.562C38.0826 29.3802 38.5041 28.9835 38.5041 28.4628ZM38.5041 37.6859C38.5041 37.1653 38.0826 36.7438 37.562 36.7438H18.9669C18.4463 36.7438 18.0248 37.1653 18.0248 37.6859C18.0248 38.1818 18.4463 38.6033 18.9669 38.6033H37.562C38.0826 38.6033 38.5041 38.1818 38.5041 37.6859ZM38.5041 46.8843C38.5041 46.3636 38.0826 45.9421 37.562 45.9421H18.9669C18.4463 45.9421 18.0248 46.3636 18.0248 46.8843C18.0248 47.405 18.4463 47.8016 18.9669 47.8016H37.562C38.0826 47.8016 38.5041 47.405 38.5041 46.8843Z" fill="url(#paint1_linear_2186_1491)"/>
<defs>
<linearGradient id="paint0_linear_2186_1491" x1="62.3311" y1="33.1884" x2="48.5932" y2="42.2275" gradientUnits="userSpaceOnUse">
<stop stop-color="#FF8732"/>
<stop offset="1" stop-color="#E84F16"/>
</linearGradient>
<linearGradient id="paint1_linear_2186_1491" x1="65.5" y1="15.5" x2="7" y2="59.5" gradientUnits="userSpaceOnUse">
<stop stop-color="#FF8732"/>
<stop offset="1" stop-color="#E84F16"/>
</linearGradient>
</defs>
</svg>
