<svg width="50" height="50" viewBox="0 0 50 50" fill="none" xmlns="http://www.w3.org/2000/svg">
<path d="M35.7822 23.64V29.98C35.7822 30.04 35.7322 30.08 35.6822 30.08H29.3422C29.2822 30.08 29.2422 30.04 29.2422 29.98V23.64C29.2422 23.59 29.2822 23.54 29.3422 23.54H35.6822C35.7322 23.54 35.7822 23.59 35.7822 23.64Z" fill="url(#paint0_linear_2160_1452)"/>
<path d="M9.78125 14.3699C9.78125 12.8899 10.9813 11.6899 12.4613 11.6899H37.5312C39.0113 11.6899 40.2113 12.8899 40.2113 14.3699V37.7099C40.2113 38.0499 39.9413 38.3099 39.6113 38.3099H13.9713C13.6313 38.3099 13.3713 38.0399 13.3713 37.7099V35.0499V15.0699C13.3713 14.4199 12.8412 13.8899 12.1912 13.8899H11.4513C11.2513 13.8899 11.0813 14.0599 11.0813 14.2699C11.0813 14.4799 11.2513 14.6499 11.4513 14.6499H12.1912C12.4312 14.6499 12.6213 14.8499 12.6213 15.0799V34.6799H10.3913C10.0513 34.6799 9.78125 34.3999 9.78125 34.0699V14.3699ZM36.5213 29.9799V23.6399C36.5213 23.1799 36.1413 22.7999 35.6813 22.7999H29.3413C28.8813 22.7999 28.4912 23.1799 28.4912 23.6399V29.9799C28.4912 30.4399 28.8713 30.8299 29.3413 30.8299H35.6813C36.1413 30.8299 36.5213 30.4399 36.5213 29.9799ZM36.4113 34.3099C36.4113 34.0999 36.2413 33.9299 36.0413 33.9299H17.4313C17.2213 33.9299 17.0512 34.0999 17.0512 34.3099C17.0512 34.5199 17.2213 34.6799 17.4313 34.6799H36.0513C36.2413 34.6799 36.4113 34.5199 36.4113 34.3099ZM36.5213 15.7499C36.5213 15.5399 36.3513 15.3799 36.1513 15.3799H28.6413C28.4313 15.3799 28.2612 15.5399 28.2612 15.7499C28.2612 15.9599 28.4313 16.1299 28.6413 16.1299H36.1513C36.3513 16.1199 36.5213 15.9499 36.5213 15.7499ZM36.5213 19.4599C36.5213 19.2499 36.3513 19.0899 36.1513 19.0899H28.6413C28.4313 19.0899 28.2612 19.2499 28.2612 19.4599C28.2612 19.6699 28.4313 19.8399 28.6413 19.8399H36.1513C36.3513 19.8299 36.5213 19.6599 36.5213 19.4599ZM25.3112 15.7499C25.3112 15.5399 25.1413 15.3799 24.9313 15.3799H17.4313C17.2213 15.3799 17.0512 15.5399 17.0512 15.7499C17.0512 15.9599 17.2213 16.1299 17.4313 16.1299H24.9313C25.1413 16.1199 25.3112 15.9499 25.3112 15.7499ZM25.3112 19.4599C25.3112 19.2499 25.1413 19.0899 24.9313 19.0899H17.4313C17.2213 19.0899 17.0512 19.2499 17.0512 19.4599C17.0512 19.6699 17.2213 19.8399 17.4313 19.8399H24.9313C25.1413 19.8299 25.3112 19.6599 25.3112 19.4599ZM25.3112 23.1699C25.3112 22.9699 25.1413 22.7999 24.9313 22.7999H17.4313C17.2213 22.7999 17.0512 22.9699 17.0512 23.1699C17.0512 23.3799 17.2213 23.5499 17.4313 23.5499H24.9313C25.1413 23.5399 25.3112 23.3799 25.3112 23.1699ZM25.3112 26.8899C25.3112 26.6799 25.1413 26.5099 24.9313 26.5099H17.4313C17.2213 26.5099 17.0512 26.6799 17.0512 26.8899C17.0512 27.0899 17.2213 27.2599 17.4313 27.2599H24.9313C25.1413 27.2599 25.3112 27.0899 25.3112 26.8899ZM25.3112 30.5999C25.3112 30.3899 25.1413 30.2199 24.9313 30.2199H17.4313C17.2213 30.2199 17.0512 30.3899 17.0512 30.5999C17.0512 30.8099 17.2213 30.9699 17.4313 30.9699H24.9313C25.1413 30.9699 25.3112 30.8099 25.3112 30.5999Z" fill="url(#paint1_linear_2160_1452)"/>
<defs>
<linearGradient id="paint0_linear_2160_1452" x1="4.27949" y1="26.8113" x2="332.74" y2="26.8113" gradientUnits="userSpaceOnUse">
<stop stop-color="#D62300"/>
<stop offset="1" stop-color="#FF8732"/>
</linearGradient>
<linearGradient id="paint1_linear_2160_1452" x1="4.27855" y1="24.9999" x2="332.739" y2="24.9999" gradientUnits="userSpaceOnUse">
<stop stop-color="#D62300"/>
<stop offset="1" stop-color="#FF8732"/>
</linearGradient>
</defs>
</svg>
