<svg width="50" height="50" viewBox="0 0 50 50" fill="none" xmlns="http://www.w3.org/2000/svg">
<path d="M38.2119 9.56012C38.3919 9.40012 38.3919 9.11011 38.2119 8.94011C38.0319 8.77011 37.7519 8.76011 37.5819 8.94011L35.4219 11.1101L36.0419 11.7301L38.2119 9.56012Z" fill="url(#paint0_linear_2160_1456)"/>
<path d="M32.9713 14.17C32.8513 14.05 32.6813 13.98 32.4913 13.98C32.1013 13.98 31.7812 14.3 31.7812 14.69C31.7812 15.08 32.1113 15.39 32.4913 15.39C32.8913 15.39 33.2013 15.07 33.2013 14.69C33.2013 14.49 33.1213 14.31 32.9913 14.19C33.0013 14.18 32.9813 14.18 32.9713 14.17Z" fill="url(#paint1_linear_2160_1456)"/>
<path d="M24.912 20.6201C24.912 20.3301 24.662 20.0801 24.372 20.0801C24.082 20.0801 23.832 20.3301 23.832 20.6201C23.832 20.9101 24.082 21.1601 24.372 21.1601C24.662 21.1601 24.912 20.9101 24.912 20.6201Z" fill="url(#paint2_linear_2160_1456)"/>
<path d="M23.0205 26.9101C23.3105 26.9101 23.5605 26.6801 23.5605 26.3701C23.5605 26.0801 23.3105 25.8301 23.0205 25.8301C22.7205 25.8301 22.4805 26.0801 22.4805 26.3701C22.4805 26.6801 22.7205 26.9101 23.0205 26.9101Z" fill="url(#paint3_linear_2160_1456)"/>
<path d="M39.0002 19.12L38.2402 16.93L38.3702 16.11C38.5502 15 38.1702 13.85 37.3702 13.05L36.0502 11.73L35.7302 12.05L35.4102 12.37L33.8602 13.92C34.0002 14.15 34.0802 14.42 34.0802 14.72C34.0802 15.6 33.3702 16.31 32.4902 16.31C31.6102 16.31 30.9002 15.6 30.9002 14.72C30.9002 13.84 31.6102 13.11 32.4902 13.11C32.7602 13.11 33.0102 13.18 33.2302 13.31L34.7902 11.75L35.1102 11.43L35.4302 11.11H35.4202L34.1302 9.82001C33.3302 9.02001 32.2002 8.65002 31.0802 8.81002L26.9202 9.45001C26.1702 9.57001 25.4902 9.91001 24.9502 10.45L11.4302 23.97C10.5702 24.81 10.5702 26.2 11.4302 27.04L18.0602 33.68L17.6802 34.96C17.3402 36.12 18.0002 37.33 19.1602 37.67L30.9602 41.14C31.1602 41.2 31.3702 41.23 31.5702 41.23C32.5202 41.23 33.3902 40.61 33.6702 39.66L39.0602 21.33C39.2802 20.59 39.2502 19.83 39.0002 19.12ZM21.5902 26.37C21.5902 25.58 22.2302 24.95 23.0202 24.95C23.8102 24.95 24.4402 25.58 24.4402 26.37C24.4402 27.16 23.8102 27.8 23.0202 27.8C22.2402 27.8 21.5902 27.16 21.5902 26.37ZM28.2102 23.93H19.1602C18.9102 23.93 18.7102 23.73 18.7102 23.48C18.7102 23.23 18.9102 23.03 19.1602 23.03H28.2102C28.4602 23.03 28.6602 23.23 28.6602 23.48C28.6602 23.73 28.4602 23.93 28.2102 23.93ZM22.9402 20.62C22.9402 19.83 23.5802 19.19 24.3702 19.19C25.1602 19.19 25.7902 19.83 25.7902 20.62C25.7902 21.41 25.1602 22.05 24.3702 22.05C23.5902 22.05 22.9402 21.4 22.9402 20.62ZM38.2202 21.08L32.8202 39.42C32.6202 40.1 31.9102 40.5 31.2102 40.3L19.4102 36.83C18.7202 36.62 18.3302 35.9 18.5302 35.21L18.7802 34.4L20.1302 35.75C20.5402 36.16 21.0902 36.39 21.6702 36.39C22.2602 36.39 22.8102 36.16 23.2202 35.75L36.7302 22.24C37.2702 21.7 37.6202 21.01 37.7402 20.26L37.9602 18.81L38.1702 19.42C38.3602 19.95 38.3802 20.52 38.2202 21.08Z" fill="url(#paint4_linear_2160_1456)"/>
<defs>
<linearGradient id="paint0_linear_2160_1456" x1="24.1547" y1="10.263" x2="70.4224" y2="10.263" gradientUnits="userSpaceOnUse">
<stop stop-color="#D62300"/>
<stop offset="1" stop-color="#FF8732"/>
</linearGradient>
<linearGradient id="paint1_linear_2160_1456" x1="26.2625" y1="14.6943" x2="48.9092" y2="14.6943" gradientUnits="userSpaceOnUse">
<stop stop-color="#D62300"/>
<stop offset="1" stop-color="#FF8732"/>
</linearGradient>
<linearGradient id="paint2_linear_2160_1456" x1="19.674" y1="20.6184" x2="36.752" y2="20.6184" gradientUnits="userSpaceOnUse">
<stop stop-color="#D62300"/>
<stop offset="1" stop-color="#FF8732"/>
</linearGradient>
<linearGradient id="paint3_linear_2160_1456" x1="18.3248" y1="26.3726" x2="35.4028" y2="26.3726" gradientUnits="userSpaceOnUse">
<stop stop-color="#D62300"/>
<stop offset="1" stop-color="#FF8732"/>
</linearGradient>
<linearGradient id="paint4_linear_2160_1456" x1="-98.8442" y1="25" x2="351.286" y2="25" gradientUnits="userSpaceOnUse">
<stop stop-color="#D62300"/>
<stop offset="1" stop-color="#FF8732"/>
</linearGradient>
</defs>
</svg>
