<svg width="67" height="77" viewBox="0 0 67 77" fill="none" xmlns="http://www.w3.org/2000/svg">
<path d="M64.651 1.85421C65.0753 1.47705 65.0753 0.793439 64.651 0.392705C64.2267 -0.00802866 63.5666 -0.0316012 63.1659 0.392705L58.0742 5.50795L59.5357 6.96945L64.651 1.85421Z" fill="url(#paint0_linear_2186_1502)"/>
<path d="M52.3012 12.7211C52.0184 12.4382 51.6176 12.2732 51.1697 12.2732C50.2504 12.2732 49.4961 13.0275 49.4961 13.9468C49.4961 14.8662 50.274 15.5969 51.1697 15.5969C52.1127 15.5969 52.8434 14.8426 52.8434 13.9468C52.8434 13.4754 52.6548 13.0511 52.3484 12.7682C52.372 12.7446 52.3248 12.7446 52.3012 12.7211Z" fill="url(#paint1_linear_2186_1502)"/>
<path d="M33.2997 27.9255C33.2997 27.2419 32.7104 26.6526 32.0268 26.6526C31.3432 26.6526 30.7539 27.2419 30.7539 27.9255C30.7539 28.6091 31.3432 29.1984 32.0268 29.1984C32.7104 29.1984 33.2997 28.6091 33.2997 27.9255Z" fill="url(#paint2_linear_2186_1502)"/>
<path d="M28.8393 42.7526C29.5229 42.7526 30.1122 42.2105 30.1122 41.4797C30.1122 40.7961 29.5229 40.2068 28.8393 40.2068C28.1322 40.2068 27.5664 40.7961 27.5664 41.4797C27.5664 42.2105 28.1322 42.7526 28.8393 42.7526Z" fill="url(#paint3_linear_2186_1502)"/>
<path d="M66.51 24.3895L64.7185 19.2272L65.0249 17.2942C65.4492 14.6776 64.5535 11.9668 62.6677 10.081L59.5561 6.96941L58.8018 7.72374L58.0475 8.47806L54.3937 12.1318C54.7237 12.674 54.9123 13.3104 54.9123 14.0176C54.9123 16.092 53.2387 17.7656 51.1643 17.7656C49.0899 17.7656 47.4162 16.092 47.4162 14.0176C47.4162 11.9432 49.0899 10.2224 51.1643 10.2224C51.8007 10.2224 52.39 10.3874 52.9086 10.6939L56.586 7.01656L57.3403 6.26224L58.0946 5.50791H58.071L55.0302 2.46705C53.1444 0.581246 50.4807 -0.290938 47.8405 0.0862236L38.0343 1.59487C36.2664 1.87774 34.6635 2.6792 33.3906 3.95212L1.52043 35.8222C-0.50681 37.8023 -0.50681 41.0789 1.52043 43.059L17.149 58.7112L16.2533 61.7285C15.4518 64.4629 17.0076 67.3152 19.742 68.1167L47.5577 76.2963C48.0291 76.4378 48.5241 76.5085 48.9956 76.5085C51.235 76.5085 53.2858 75.047 53.9458 72.8076L66.6515 29.5991C67.1701 27.8547 67.0993 26.0632 66.51 24.3895ZM25.4702 41.4797C25.4702 39.6174 26.9788 38.1324 28.841 38.1324C30.7033 38.1324 32.1884 39.6174 32.1884 41.4797C32.1884 43.3419 30.7033 44.8505 28.841 44.8505C27.0024 44.8505 25.4702 43.3419 25.4702 41.4797ZM41.0752 35.728H19.742C19.1527 35.728 18.6813 35.2565 18.6813 34.6672C18.6813 34.0779 19.1527 33.6064 19.742 33.6064H41.0752C41.6645 33.6064 42.136 34.0779 42.136 34.6672C42.136 35.2565 41.6645 35.728 41.0752 35.728ZM28.6525 27.9254C28.6525 26.0632 30.1611 24.5546 32.0233 24.5546C33.8856 24.5546 35.3706 26.0632 35.3706 27.9254C35.3706 29.7877 33.8856 31.2963 32.0233 31.2963C30.1847 31.2963 28.6525 29.7641 28.6525 27.9254ZM64.6714 29.0098L51.9422 72.2419C51.4707 73.8448 49.7971 74.7877 48.147 74.3162L20.3313 66.1366C18.7048 65.6415 17.7855 63.9443 18.257 62.3178L18.8463 60.4084L22.0286 63.5907C22.995 64.5572 24.2915 65.0994 25.6587 65.0994C27.0495 65.0994 28.346 64.5572 29.3125 63.5907L61.159 31.7442C62.432 30.4713 63.257 28.8448 63.5399 27.0768L64.0585 23.6588L64.5535 25.0967C65.0014 26.3461 65.0485 27.6897 64.6714 29.0098Z" fill="url(#paint4_linear_2186_1502)"/>
<defs>
<linearGradient id="paint0_linear_2186_1502" x1="59.515" y1="6.96869" x2="63.241" y2="2.10703" gradientUnits="userSpaceOnUse">
<stop stop-color="#D62300"/>
<stop offset="1" stop-color="#FF8732"/>
</linearGradient>
<linearGradient id="paint1_linear_2186_1502" x1="50.1955" y1="15.5966" x2="51.9912" y2="13.24" gradientUnits="userSpaceOnUse">
<stop stop-color="#D62300"/>
<stop offset="1" stop-color="#FF8732"/>
</linearGradient>
<linearGradient id="paint2_linear_2186_1502" x1="31.2859" y1="29.1981" x2="32.6638" y2="27.4025" gradientUnits="userSpaceOnUse">
<stop stop-color="#D62300"/>
<stop offset="1" stop-color="#FF8732"/>
</linearGradient>
<linearGradient id="paint3_linear_2186_1502" x1="28.0984" y1="42.7523" x2="29.4763" y2="40.9567" gradientUnits="userSpaceOnUse">
<stop stop-color="#D62300"/>
<stop offset="1" stop-color="#FF8732"/>
</linearGradient>
<linearGradient id="paint4_linear_2186_1502" x1="14" y1="76.5" x2="56.5" y2="28" gradientUnits="userSpaceOnUse">
<stop stop-color="#D62300"/>
<stop offset="1" stop-color="#FF8732"/>
</linearGradient>
</defs>
</svg>
