<svg width="50" height="50" viewBox="0 0 50 50" fill="none" xmlns="http://www.w3.org/2000/svg">
<path d="M36.9092 15.58L39.3992 10.16L27.4092 4.29004L25.1992 9.14004L30.1692 11.89L36.9092 15.58Z" fill="url(#paint0_linear_2160_1422)"/>
<path d="M38.0797 17.0701H37.1797H28.0497H12.0297C12.0097 17.0701 11.9797 17.0701 11.9697 17.0701C9.14969 17.1001 6.92969 19.3901 6.92969 22.2201V37.1601C6.92969 39.9901 9.17969 42.3101 11.9297 42.3101H38.0797C40.8197 42.3101 43.0697 39.9901 43.0697 37.1601V34.9801H35.3497C32.7797 34.9801 30.6997 32.8301 30.6997 30.1801V28.8901C30.6997 26.2401 32.7897 24.0901 35.3497 24.0901H43.0697V22.2201C43.0697 19.3701 40.8197 17.0701 38.0797 17.0701Z" fill="url(#paint1_linear_2160_1422)"/>
<path d="M36.3484 31.29C37.2984 31.29 38.0684 30.5 38.0684 29.54C38.0684 28.56 37.2984 27.77 36.3484 27.77C35.4184 27.77 34.6484 28.56 34.6484 29.54C34.6484 30.49 35.4184 31.29 36.3484 31.29Z" fill="url(#paint2_linear_2160_1422)"/>
<path d="M29.0195 15.81H34.7595L30.1695 13.29L29.0195 15.81Z" fill="url(#paint3_linear_2160_1422)"/>
<path d="M31.9102 28.8801V30.1701C31.9102 32.1201 33.4502 33.7101 35.3602 33.7101H43.0802V25.3401H35.3602C33.4502 25.3401 31.9102 26.9301 31.9102 28.8801ZM38.8202 29.5301C38.8202 30.9201 37.7102 32.0601 36.3502 32.0601C35.0002 32.0601 33.9002 30.9201 33.9002 29.5301C33.9002 28.1201 35.0102 26.9801 36.3502 26.9801C37.7102 26.9901 38.8202 28.1301 38.8202 29.5301Z" fill="url(#paint4_linear_2160_1422)"/>
<path d="M29.0983 12.7001L24.1383 9.98009L24.1083 9.97009L17.2283 6.59009L12.9883 15.8101H27.6683L29.0983 12.7001Z" fill="url(#paint5_linear_2160_1422)"/>
<defs>
<linearGradient id="paint0_linear_2160_1422" x1="-303.238" y1="9.93254" x2="167.255" y2="9.93254" gradientUnits="userSpaceOnUse">
<stop stop-color="#D62300"/>
<stop offset="1" stop-color="#FF8732"/>
</linearGradient>
<linearGradient id="paint1_linear_2160_1422" x1="-829.194" y1="29.6829" x2="368.568" y2="29.6829" gradientUnits="userSpaceOnUse">
<stop stop-color="#D62300"/>
<stop offset="1" stop-color="#FF8732"/>
</linearGradient>
<linearGradient id="paint2_linear_2160_1422" x1="-44.3998" y1="29.5256" x2="68.836" y2="29.5256" gradientUnits="userSpaceOnUse">
<stop stop-color="#D62300"/>
<stop offset="1" stop-color="#FF8732"/>
</linearGradient>
<linearGradient id="paint3_linear_2160_1422" x1="-103.842" y1="14.5498" x2="86.4817" y2="14.5498" gradientUnits="userSpaceOnUse">
<stop stop-color="#D62300"/>
<stop offset="1" stop-color="#FF8732"/>
</linearGradient>
<linearGradient id="paint4_linear_2160_1422" x1="-226.391" y1="29.5257" x2="143.624" y2="29.5257" gradientUnits="userSpaceOnUse">
<stop stop-color="#D62300"/>
<stop offset="1" stop-color="#FF8732"/>
</linearGradient>
<linearGradient id="paint5_linear_2160_1422" x1="-359.609" y1="11.1986" x2="174.148" y2="11.1986" gradientUnits="userSpaceOnUse">
<stop stop-color="#D62300"/>
<stop offset="1" stop-color="#FF8732"/>
</linearGradient>
</defs>
</svg>
