<svg width="100" height="100" viewBox="0 0 100 100" fill="none" xmlns="http://www.w3.org/2000/svg">
<path d="M58.1872 19.1088L53.1648 37.8396C52.9756 37.444 52.7864 37.1 52.6316 36.7732C52.2876 36.1024 51.6168 35.6896 50.8428 35.6896C50.0688 35.6896 49.4152 36.1024 49.054 36.7732C48.8992 37.1 48.71 37.444 48.5208 37.8396L43.5156 19.1088C45.9236 18.524 48.366 18.2488 50.8428 18.2488C53.3196 18.2488 55.7792 18.524 58.1872 19.1088Z" fill="#FF8732"/>
<path d="M47.1274 40.7462V40.7634C46.6458 41.7266 46.1642 42.793 45.6654 43.8594L28.7578 26.969C32.3698 23.5634 36.7386 21.0522 41.4514 19.6418L47.1274 40.7462Z" fill="url(#paint0_linear_2216_3276)"/>
<path d="M47.1297 60.3543L41.4709 81.4759C36.7581 80.0655 32.3893 77.5371 28.7773 74.1487L44.6013 58.3247C45.3065 59.1503 46.1665 59.8555 47.1297 60.3543Z" fill="url(#paint1_linear_2216_3276)"/>
<path d="M58.9958 53.8528L81.7686 59.9416C80.1002 64.9812 77.9502 68.6792 74.4414 72.6696L58.2734 56.5016C58.6518 55.6416 58.9098 54.7816 58.9958 53.8528Z" fill="#FF8732"/>
<path d="M52.5652 61.0596L58.1896 82.0436C53.3736 83.1788 48.334 83.1788 43.5352 82.0436L49.1596 61.0596C50.2776 61.3004 51.43 61.3004 52.5652 61.0596Z" fill="#FF8732"/>
<path d="M72.9462 74.1486C69.3342 77.5542 64.9653 80.0654 60.2525 81.4758L55.9525 65.411L54.5938 60.3714C55.557 59.8554 56.4169 59.1674 57.1393 58.3418L72.9462 74.1486Z" fill="url(#paint2_linear_2216_3276)"/>
<path d="M72.9438 26.9862L56.0362 43.8766C55.5546 42.793 55.073 41.7438 54.5742 40.7462L56.3286 34.193L60.233 19.6418C64.963 21.0694 69.3318 23.5806 72.9438 26.9862Z" fill="url(#paint3_linear_2216_3276)"/>
<path d="M82.3003 43.2231C82.8851 45.6311 83.1603 48.0735 83.1603 50.5503C83.1603 53.0271 82.8851 55.5039 82.3003 57.9119L59.5447 51.8059L58.8223 51.5995C58.7019 51.0147 58.5299 50.3955 58.2891 49.6731L82.3003 43.2231Z" fill="url(#paint4_linear_2216_3276)"/>
<path d="M81.7681 41.1935L57.5849 47.6607C57.3785 47.1275 57.1721 46.5427 56.9141 45.9923L74.4409 28.4827C77.8465 32.0947 80.3577 36.4635 81.7681 41.1935Z" fill="#FF8732"/>
<path d="M10.5586 50.5503C10.5586 28.9127 28.1886 11.2827 49.8606 11.2827C71.5326 11.2827 89.1454 28.9127 89.1454 50.5503C89.1454 72.2223 71.5154 89.8351 49.8606 89.8351C28.2058 89.8351 10.5586 72.2223 10.5586 50.5503ZM15.2542 50.5503C15.2542 53.5775 15.6498 56.5875 16.441 59.5287C18.0062 65.3767 21.085 70.7431 25.385 75.0259C29.685 79.3259 35.0514 82.4219 40.8994 83.9699C43.8062 84.7611 46.8162 85.1567 49.8434 85.1567C52.8534 85.1567 55.8806 84.7611 58.7874 83.9699C64.6354 82.4219 70.0018 79.3259 74.3018 75.0259C78.5846 70.7431 81.6806 65.3767 83.2458 59.5287C84.037 56.5875 84.4326 53.5775 84.4326 50.5503C84.4326 47.5403 84.037 44.5303 83.2458 41.6063C81.6806 35.7583 78.5674 30.4091 74.3018 26.1091C70.0018 21.8091 64.6354 18.7131 58.7874 17.1651C52.9394 15.5999 46.713 15.5999 40.8822 17.1651C35.0342 18.7131 29.6678 21.8091 25.3678 26.1091C21.0678 30.4091 17.989 35.7755 16.4238 41.6063C15.6498 44.5475 15.2542 47.5403 15.2542 50.5503Z" fill="url(#paint5_linear_2216_3276)"/>
<path d="M42.7064 53.8528C42.7924 54.7816 43.0332 55.6416 43.4288 56.4844L27.2608 72.618C23.8552 69.006 21.344 64.6544 19.9336 59.9244L42.7064 53.8528Z" fill="#FF8732"/>
<path d="M19.4006 43.2231L43.4118 49.6731C43.1538 50.3955 42.999 51.0147 42.8786 51.5995L42.1562 51.8059L19.4006 57.9119C18.7986 55.5039 18.5234 53.0615 18.5234 50.5503C18.5234 48.0735 18.7986 45.6311 19.4006 43.2231Z" fill="url(#paint6_linear_2216_3276)"/>
<path d="M44.7704 45.9924C44.5468 46.5428 44.3232 47.1276 44.1168 47.6608L19.9336 41.1936C21.344 36.4808 23.8724 32.112 27.2608 28.5L44.1684 45.4076L44.7704 45.9924Z" fill="#FF8732"/>
<path d="M56.8619 52.58C56.7759 51.978 56.5695 51.1868 56.2599 50.2064L55.9331 49.2776C55.8127 48.9336 55.6751 48.5896 55.5375 48.2112C55.2623 47.5404 54.9871 46.8524 54.6775 46.1472C54.5915 45.9236 54.4883 45.7 54.4023 45.4764C53.9551 44.4616 53.4735 43.4124 53.0435 42.4492C52.8543 42.0536 52.6651 41.658 52.4931 41.2968L52.3383 40.9528C51.9599 40.196 51.6159 39.4908 51.3063 38.8544C51.1171 38.476 50.5839 38.476 50.3947 38.8544C50.0851 39.4908 49.7411 40.196 49.3799 40.9528L49.2251 41.2968C49.0359 41.6752 48.8467 42.0536 48.6747 42.4492C48.2103 43.4124 47.7459 44.4616 47.3159 45.4764C47.2299 45.7 47.1267 45.9236 47.0407 46.1472C46.7483 46.8352 46.4559 47.5404 46.1807 48.2112L45.7851 49.2776C45.6647 49.6044 45.5615 49.8968 45.4583 50.2064C45.1315 51.204 44.9251 51.9952 44.8563 52.58C44.8391 52.7692 44.8047 52.924 44.8047 53.096C44.8047 54.1624 45.0971 55.2288 45.6647 56.1404C46.3527 57.3444 47.4707 58.2732 48.7607 58.7548L49.2423 58.9096C50.4291 59.2364 51.6159 59.202 52.8027 58.7892C52.8543 58.7892 52.9231 58.772 52.9575 58.7376C54.2819 58.256 55.3655 57.3272 56.0535 56.1232C56.6039 55.1944 56.9135 54.128 56.9135 53.0788C56.9135 52.9412 56.8963 52.7692 56.8619 52.58ZM50.8591 56.708C48.7951 56.708 47.1439 55.0396 47.1439 52.9928C47.1439 50.9288 48.8123 49.2776 50.8591 49.2776C52.9231 49.2776 54.5743 50.946 54.5743 52.9928C54.5743 55.0396 52.9059 56.708 50.8591 56.708Z" fill="url(#paint7_linear_2216_3276)"/>
<defs>
<linearGradient id="paint0_linear_2216_3276" x1="-168.711" y1="31.7622" x2="144.447" y2="31.7622" gradientUnits="userSpaceOnUse">
<stop stop-color="#FF8732"/>
<stop offset="1" stop-color="#D62300"/>
</linearGradient>
<linearGradient id="paint1_linear_2216_3276" x1="-168.709" y1="69.8976" x2="144.45" y2="69.8976" gradientUnits="userSpaceOnUse">
<stop stop-color="#FF8732"/>
<stop offset="1" stop-color="#D62300"/>
</linearGradient>
<linearGradient id="paint2_linear_2216_3276" x1="-168.71" y1="69.8974" x2="144.449" y2="69.8974" gradientUnits="userSpaceOnUse">
<stop stop-color="#FF8732"/>
<stop offset="1" stop-color="#D62300"/>
</linearGradient>
<linearGradient id="paint3_linear_2216_3276" x1="-168.712" y1="31.7622" x2="144.446" y2="31.7622" gradientUnits="userSpaceOnUse">
<stop stop-color="#FF8732"/>
<stop offset="1" stop-color="#D62300"/>
</linearGradient>
<linearGradient id="paint4_linear_2216_3276" x1="-168.712" y1="50.5641" x2="144.446" y2="50.5641" gradientUnits="userSpaceOnUse">
<stop stop-color="#FF8732"/>
<stop offset="1" stop-color="#D62300"/>
</linearGradient>
<linearGradient id="paint5_linear_2216_3276" x1="-169.71" y1="50.5641" x2="143.448" y2="50.5641" gradientUnits="userSpaceOnUse">
<stop stop-color="#FF8732"/>
<stop offset="1" stop-color="#D62300"/>
</linearGradient>
<linearGradient id="paint6_linear_2216_3276" x1="-168.712" y1="50.5641" x2="144.447" y2="50.5641" gradientUnits="userSpaceOnUse">
<stop stop-color="#FF8732"/>
<stop offset="1" stop-color="#D62300"/>
</linearGradient>
<linearGradient id="paint7_linear_2216_3276" x1="-168.713" y1="48.8568" x2="144.447" y2="48.8568" gradientUnits="userSpaceOnUse">
<stop stop-color="#FF8732"/>
<stop offset="1" stop-color="#D62300"/>
</linearGradient>
</defs>
</svg>
