<?xml version="1.0" encoding="utf-8"?>
<!-- Generator: Adobe Illustrator 27.6.1, SVG Export Plug-In . SVG Version: 6.00 Build 0)  -->
<svg version="1.1" id="Layer_1" xmlns="http://www.w3.org/2000/svg" xmlns:xlink="http://www.w3.org/1999/xlink" x="0px" y="0px"
	 viewBox="0 0 50 50" style="enable-background:new 0 0 50 50;" xml:space="preserve">
<style type="text/css">
	.st0{fill:url(#SVGID_1_);}
	.st1{fill:#FF8732;}
	.st2{fill:url(#SVGID_00000081630973417575808080000009308728482441107072_);}
	.st3{fill:url(#SVGID_00000000221040919790582380000000396525539122526623_);}
	.st4{fill:url(#SVGID_00000066502856306443171900000007764390821528723122_);}
	.st5{fill:url(#SVGID_00000074431990973824074420000004477896143435145663_);}
	.st6{fill:url(#SVGID_00000144306399547354366400000010337317652048052892_);}
	.st7{fill:url(#SVGID_00000121998825440308280490000018112544415448208800_);}
	.st8{fill:url(#SVGID_00000032625072077193464590000014777816770055079344_);}
	.st9{fill:url(#SVGID_00000144297374506415340540000013575772299945061256_);}
</style>
<g>
	<g>
		<g>
			<g id="XMLID_00000078723362292780854270000015169819466024353465_">
				<g>
					<path class="st1" d="M29.76,7.04l-2.92,10.89c-0.11-0.23-0.22-0.43-0.31-0.62c-0.2-0.39-0.59-0.63-1.04-0.63
						s-0.83,0.24-1.04,0.63c-0.09,0.19-0.2,0.39-0.31,0.62L21.23,7.04c1.4-0.34,2.82-0.5,4.26-0.5S28.36,6.7,29.76,7.04z"/>
					<linearGradient id="SVGID_1_" gradientUnits="userSpaceOnUse" x1="-102.1576" y1="14.3967" x2="79.9113" y2="14.3967">
						<stop  offset="0" style="stop-color:#FF8732"/>
						<stop  offset="1" style="stop-color:#D62300"/>
					</linearGradient>
					<path class="st0" d="M23.33,19.62v0.01c-0.28,0.56-0.56,1.18-0.85,1.8l-9.83-9.82c2.1-1.98,4.64-3.44,7.38-4.26L23.33,19.62z"
						/>
					
						<linearGradient id="SVGID_00000120537111260491253910000003567150684526616962_" gradientUnits="userSpaceOnUse" x1="-102.1576" y1="36.5684" x2="79.9113" y2="36.5684">
						<stop  offset="0" style="stop-color:#FF8732"/>
						<stop  offset="1" style="stop-color:#D62300"/>
					</linearGradient>
					<path style="fill:url(#SVGID_00000120537111260491253910000003567150684526616962_);" d="M23.33,31.02L20.04,43.3
						c-2.74-0.82-5.28-2.29-7.38-4.26l9.2-9.2C22.27,30.32,22.77,30.73,23.33,31.02z"/>
					<path class="st1" d="M30.23,27.24l13.24,3.54c-0.97,2.93-2.22,5.08-4.26,7.4l-9.4-9.4C30.03,28.28,30.18,27.78,30.23,27.24z"/>
					<path class="st1" d="M26.49,31.43l3.27,12.2c-2.8,0.66-5.73,0.66-8.52,0l3.27-12.2C25.16,31.57,25.83,31.57,26.49,31.43z"/>
					
						<linearGradient id="SVGID_00000090273596417421932700000011702578225483713690_" gradientUnits="userSpaceOnUse" x1="-102.1576" y1="36.5684" x2="79.9113" y2="36.5684">
						<stop  offset="0" style="stop-color:#FF8732"/>
						<stop  offset="1" style="stop-color:#D62300"/>
					</linearGradient>
					<path style="fill:url(#SVGID_00000090273596417421932700000011702578225483713690_);" d="M38.34,39.04
						c-2.1,1.98-4.64,3.44-7.38,4.26l-2.5-9.34l-0.79-2.93c0.56-0.3,1.06-0.7,1.48-1.18L38.34,39.04z"/>
					
						<linearGradient id="SVGID_00000078045227503084712610000015715029732019541430_" gradientUnits="userSpaceOnUse" x1="-102.1576" y1="14.3967" x2="79.9113" y2="14.3967">
						<stop  offset="0" style="stop-color:#FF8732"/>
						<stop  offset="1" style="stop-color:#D62300"/>
					</linearGradient>
					<path style="fill:url(#SVGID_00000078045227503084712610000015715029732019541430_);" d="M38.34,11.62l-9.83,9.82
						c-0.28-0.63-0.56-1.24-0.85-1.82l1.02-3.81l2.27-8.46C33.7,8.18,36.24,9.64,38.34,11.62z"/>
					
						<linearGradient id="SVGID_00000059999504558171312770000012602924107451978684_" gradientUnits="userSpaceOnUse" x1="-102.1576" y1="25.328" x2="79.9113" y2="25.328">
						<stop  offset="0" style="stop-color:#FF8732"/>
						<stop  offset="1" style="stop-color:#D62300"/>
					</linearGradient>
					<path style="fill:url(#SVGID_00000059999504558171312770000012602924107451978684_);" d="M43.78,21.06
						c0.34,1.4,0.5,2.82,0.5,4.26c0,1.44-0.16,2.88-0.5,4.28l-13.23-3.55l-0.42-0.12c-0.07-0.34-0.17-0.7-0.31-1.12L43.78,21.06z"/>
					<path class="st1" d="M43.47,19.88l-14.06,3.76c-0.12-0.31-0.24-0.65-0.39-0.97l10.19-10.18
						C41.19,14.59,42.65,17.13,43.47,19.88z"/>
					
						<linearGradient id="SVGID_00000117642145294497444150000018058570568017413051_" gradientUnits="userSpaceOnUse" x1="-102.1576" y1="25.328" x2="79.9113" y2="25.328">
						<stop  offset="0" style="stop-color:#FF8732"/>
						<stop  offset="1" style="stop-color:#D62300"/>
					</linearGradient>
					<path style="fill:url(#SVGID_00000117642145294497444150000018058570568017413051_);" d="M2.65,25.32
						C2.65,12.74,12.9,2.49,25.5,2.49s22.84,10.25,22.84,22.83c0,12.6-10.25,22.84-22.84,22.84S2.65,37.92,2.65,25.32z M5.38,25.32
						c0,1.76,0.23,3.51,0.69,5.22c0.91,3.4,2.7,6.52,5.2,9.01c2.5,2.5,5.62,4.3,9.02,5.2c1.69,0.46,3.44,0.69,5.2,0.69
						c1.75,0,3.51-0.23,5.2-0.69c3.4-0.9,6.52-2.7,9.02-5.2c2.49-2.49,4.29-5.61,5.2-9.01c0.46-1.71,0.69-3.46,0.69-5.22
						c0-1.75-0.23-3.5-0.69-5.2c-0.91-3.4-2.72-6.51-5.2-9.01c-2.5-2.5-5.62-4.3-9.02-5.2c-3.4-0.91-7.02-0.91-10.41,0
						c-3.4,0.9-6.52,2.7-9.02,5.2s-4.29,5.62-5.2,9.01C5.61,21.83,5.38,23.57,5.38,25.32z"/>
					<path class="st1" d="M20.76,27.24c0.05,0.54,0.19,1.04,0.42,1.53l-9.4,9.38c-1.98-2.1-3.44-4.63-4.26-7.38L20.76,27.24z"/>
					
						<linearGradient id="SVGID_00000160873659049826983940000007187172984803870893_" gradientUnits="userSpaceOnUse" x1="-102.1576" y1="25.328" x2="79.9113" y2="25.328">
						<stop  offset="0" style="stop-color:#FF8732"/>
						<stop  offset="1" style="stop-color:#D62300"/>
					</linearGradient>
					<path style="fill:url(#SVGID_00000160873659049826983940000007187172984803870893_);" d="M7.21,21.06l13.96,3.75
						c-0.15,0.42-0.24,0.78-0.31,1.12l-0.42,0.12L7.21,29.6c-0.35-1.4-0.51-2.82-0.51-4.28C6.7,23.88,6.86,22.46,7.21,21.06z"/>
					<path class="st1" d="M21.96,22.67c-0.13,0.32-0.26,0.66-0.38,0.97L7.52,19.88c0.82-2.74,2.29-5.28,4.26-7.38l9.83,9.83
						L21.96,22.67z"/>
				</g>
			</g>
		</g>
	</g>
	
		<linearGradient id="SVGID_00000031206332361634659930000003424817015545775010_" gradientUnits="userSpaceOnUse" x1="-102.1579" y1="24.3354" x2="79.9115" y2="24.3354">
		<stop  offset="0" style="stop-color:#FF8732"/>
		<stop  offset="1" style="stop-color:#D62300"/>
	</linearGradient>
	<path style="fill:url(#SVGID_00000031206332361634659930000003424817015545775010_);" d="M28.99,26.5
		c-0.05-0.35-0.17-0.81-0.35-1.38l-0.19-0.54c-0.07-0.2-0.15-0.4-0.23-0.62c-0.16-0.39-0.32-0.79-0.5-1.2
		c-0.05-0.13-0.11-0.26-0.16-0.39c-0.26-0.59-0.54-1.2-0.79-1.76c-0.11-0.23-0.22-0.46-0.32-0.67l-0.09-0.2
		c-0.22-0.44-0.42-0.85-0.6-1.22c-0.11-0.22-0.42-0.22-0.53,0c-0.18,0.37-0.38,0.78-0.59,1.22l-0.09,0.2
		c-0.11,0.22-0.22,0.44-0.32,0.67c-0.27,0.56-0.54,1.17-0.79,1.76c-0.05,0.13-0.11,0.26-0.16,0.39c-0.17,0.4-0.34,0.81-0.5,1.2
		l-0.23,0.62c-0.07,0.19-0.13,0.36-0.19,0.54c-0.19,0.58-0.31,1.04-0.35,1.38c-0.01,0.11-0.03,0.2-0.03,0.3
		c0,0.62,0.17,1.24,0.5,1.77c0.4,0.7,1.05,1.24,1.8,1.52l0.28,0.09c0.69,0.19,1.38,0.17,2.07-0.07c0.03,0,0.07-0.01,0.09-0.03
		c0.77-0.28,1.4-0.82,1.8-1.52c0.32-0.54,0.5-1.16,0.5-1.77C29.02,26.71,29.01,26.61,28.99,26.5z M25.5,28.9
		c-1.2,0-2.16-0.97-2.16-2.16c0-1.2,0.97-2.16,2.16-2.16c1.2,0,2.16,0.97,2.16,2.16C27.66,27.93,26.69,28.9,25.5,28.9z"/>
</g>
</svg>
