<svg width="50" height="50" viewBox="0 0 50 50" fill="none" xmlns="http://www.w3.org/2000/svg">
<path d="M29.7566 7.04004L26.8366 17.93C26.7266 17.7 26.6166 17.5 26.5266 17.31C26.3266 16.92 25.9366 16.68 25.4866 16.68C25.0366 16.68 24.6566 16.92 24.4466 17.31C24.3566 17.5 24.2466 17.7 24.1366 17.93L21.2266 7.04004C22.6266 6.70004 24.0466 6.54004 25.4866 6.54004C26.9266 6.54004 28.3566 6.70004 29.7566 7.04004Z" fill="#FF8732"/>
<path d="M23.3284 19.6201V19.6301C23.0484 20.1901 22.7684 20.8101 22.4784 21.4301L12.6484 11.6101C14.7484 9.6301 17.2884 8.1701 20.0284 7.3501L23.3284 19.6201Z" fill="url(#paint0_linear_2198_3222)"/>
<path d="M23.3302 31.0201L20.0402 43.3001C17.3002 42.4801 14.7602 41.0101 12.6602 39.0401L21.8602 29.8401C22.2702 30.3201 22.7702 30.7301 23.3302 31.0201Z" fill="url(#paint1_linear_2198_3222)"/>
<path d="M30.2286 27.24L43.4686 30.78C42.4986 33.71 41.2486 35.86 39.2086 38.18L29.8086 28.78C30.0286 28.28 30.1786 27.78 30.2286 27.24Z" fill="#FF8732"/>
<path d="M26.4883 31.4299L29.7583 43.6299C26.9583 44.2899 24.0283 44.2899 21.2383 43.6299L24.5083 31.4299C25.1583 31.5699 25.8283 31.5699 26.4883 31.4299Z" fill="#FF8732"/>
<path d="M38.338 39.0401C36.238 41.0201 33.698 42.4801 30.958 43.3001L28.458 33.9601L27.668 31.0301C28.228 30.7301 28.728 30.3301 29.148 29.8501L38.338 39.0401Z" fill="url(#paint2_linear_2198_3222)"/>
<path d="M38.3402 11.6201L28.5102 21.4401C28.2302 20.8101 27.9502 20.2001 27.6602 19.6201L28.6802 15.8101L30.9502 7.3501C33.7002 8.1801 36.2402 9.6401 38.3402 11.6201Z" fill="url(#paint3_linear_2198_3222)"/>
<path d="M43.7803 21.0601C44.1203 22.4601 44.2803 23.8801 44.2803 25.3201C44.2803 26.7601 44.1203 28.2001 43.7803 29.6001L30.5503 26.0501L30.1303 25.9301C30.0603 25.5901 29.9603 25.2301 29.8203 24.8101L43.7803 21.0601Z" fill="url(#paint4_linear_2198_3222)"/>
<path d="M43.4695 19.88L29.4095 23.64C29.2895 23.33 29.1695 22.99 29.0195 22.67L39.2095 12.49C41.1895 14.59 42.6495 17.13 43.4695 19.88Z" fill="#FF8732"/>
<path d="M2.64844 25.32C2.64844 12.74 12.8984 2.48999 25.4984 2.48999C38.0984 2.48999 48.3384 12.74 48.3384 25.32C48.3384 37.92 38.0884 48.16 25.4984 48.16C12.9084 48.16 2.64844 37.92 2.64844 25.32ZM5.37844 25.32C5.37844 27.08 5.60844 28.83 6.06844 30.54C6.97844 33.94 8.76844 37.06 11.2684 39.55C13.7684 42.05 16.8884 43.85 20.2884 44.75C21.9784 45.21 23.7284 45.44 25.4884 45.44C27.2384 45.44 28.9984 45.21 30.6884 44.75C34.0884 43.85 37.2084 42.05 39.7084 39.55C42.1984 37.06 43.9984 33.94 44.9084 30.54C45.3684 28.83 45.5984 27.08 45.5984 25.32C45.5984 23.57 45.3684 21.82 44.9084 20.12C43.9984 16.72 42.1884 13.61 39.7084 11.11C37.2084 8.60999 34.0884 6.80999 30.6884 5.90999C27.2884 4.99999 23.6684 4.99999 20.2784 5.90999C16.8784 6.80999 13.7584 8.60999 11.2584 11.11C8.75844 13.61 6.96844 16.73 6.05844 20.12C5.60844 21.83 5.37844 23.57 5.37844 25.32Z" fill="url(#paint5_linear_2198_3222)"/>
<path d="M20.7595 27.24C20.8095 27.78 20.9495 28.28 21.1795 28.77L11.7795 38.15C9.79953 36.05 8.33953 33.52 7.51953 30.77L20.7595 27.24Z" fill="#FF8732"/>
<path d="M7.20922 21.0601L21.1692 24.8101C21.0192 25.2301 20.9292 25.5901 20.8592 25.9301L20.4392 26.0501L7.20922 29.6001C6.85922 28.2001 6.69922 26.7801 6.69922 25.3201C6.69922 23.8801 6.85922 22.4601 7.20922 21.0601Z" fill="url(#paint6_linear_2198_3222)"/>
<path d="M21.9595 22.67C21.8295 22.99 21.6995 23.33 21.5795 23.64L7.51953 19.88C8.33953 17.14 9.80953 14.6 11.7795 12.5L21.6095 22.33L21.9595 22.67Z" fill="#FF8732"/>
<path d="M28.9866 26.5C28.9366 26.15 28.8166 25.69 28.6366 25.12L28.4466 24.58C28.3766 24.38 28.2966 24.18 28.2166 23.96C28.0566 23.57 27.8966 23.17 27.7166 22.76C27.6666 22.63 27.6066 22.5 27.5566 22.37C27.2966 21.78 27.0166 21.17 26.7666 20.61C26.6566 20.38 26.5466 20.15 26.4466 19.94L26.3566 19.74C26.1366 19.3 25.9366 18.89 25.7566 18.52C25.6466 18.3 25.3366 18.3 25.2266 18.52C25.0466 18.89 24.8466 19.3 24.6366 19.74L24.5466 19.94C24.4366 20.16 24.3266 20.38 24.2266 20.61C23.9566 21.17 23.6866 21.78 23.4366 22.37C23.3866 22.5 23.3266 22.63 23.2766 22.76C23.1066 23.16 22.9366 23.57 22.7766 23.96L22.5466 24.58C22.4766 24.77 22.4166 24.94 22.3566 25.12C22.1666 25.7 22.0466 26.16 22.0066 26.5C21.9966 26.61 21.9766 26.7 21.9766 26.8C21.9766 27.42 22.1466 28.04 22.4766 28.57C22.8766 29.27 23.5266 29.81 24.2766 30.09L24.5566 30.18C25.2466 30.37 25.9366 30.35 26.6266 30.11C26.6566 30.11 26.6966 30.1 26.7166 30.08C27.4866 29.8 28.1166 29.26 28.5166 28.56C28.8366 28.02 29.0166 27.4 29.0166 26.79C29.0166 26.71 29.0066 26.61 28.9866 26.5ZM25.4966 28.9C24.2966 28.9 23.3366 27.93 23.3366 26.74C23.3366 25.54 24.3066 24.58 25.4966 24.58C26.6966 24.58 27.6566 25.55 27.6566 26.74C27.6566 27.93 26.6866 28.9 25.4966 28.9Z" fill="url(#paint7_linear_2198_3222)"/>
<defs>
<linearGradient id="paint0_linear_2198_3222" x1="-102.159" y1="14.3968" x2="79.9097" y2="14.3968" gradientUnits="userSpaceOnUse">
<stop stop-color="#FF8732"/>
<stop offset="1" stop-color="#D62300"/>
</linearGradient>
<linearGradient id="paint1_linear_2198_3222" x1="-102.157" y1="36.5685" x2="79.9115" y2="36.5685" gradientUnits="userSpaceOnUse">
<stop stop-color="#FF8732"/>
<stop offset="1" stop-color="#D62300"/>
</linearGradient>
<linearGradient id="paint2_linear_2198_3222" x1="-102.16" y1="36.5685" x2="79.9093" y2="36.5685" gradientUnits="userSpaceOnUse">
<stop stop-color="#FF8732"/>
<stop offset="1" stop-color="#D62300"/>
</linearGradient>
<linearGradient id="paint3_linear_2198_3222" x1="-102.157" y1="14.3968" x2="79.9115" y2="14.3968" gradientUnits="userSpaceOnUse">
<stop stop-color="#FF8732"/>
<stop offset="1" stop-color="#D62300"/>
</linearGradient>
<linearGradient id="paint4_linear_2198_3222" x1="-102.157" y1="25.3281" x2="79.9116" y2="25.3281" gradientUnits="userSpaceOnUse">
<stop stop-color="#FF8732"/>
<stop offset="1" stop-color="#D62300"/>
</linearGradient>
<linearGradient id="paint5_linear_2198_3222" x1="-102.159" y1="25.328" x2="79.9097" y2="25.328" gradientUnits="userSpaceOnUse">
<stop stop-color="#FF8732"/>
<stop offset="1" stop-color="#D62300"/>
</linearGradient>
<linearGradient id="paint6_linear_2198_3222" x1="-102.158" y1="25.3281" x2="79.9105" y2="25.3281" gradientUnits="userSpaceOnUse">
<stop stop-color="#FF8732"/>
<stop offset="1" stop-color="#D62300"/>
</linearGradient>
<linearGradient id="paint7_linear_2198_3222" x1="-102.161" y1="24.3354" x2="79.9081" y2="24.3354" gradientUnits="userSpaceOnUse">
<stop stop-color="#FF8732"/>
<stop offset="1" stop-color="#D62300"/>
</linearGradient>
</defs>
</svg>
