<svg width="25" height="25" viewBox="0 0 25 25" fill="none" xmlns="http://www.w3.org/2000/svg">
<path d="M9.89583 22.9167C8.59374 22.9167 7.48697 22.4609 6.57552 21.5495C5.66406 20.638 5.20833 19.5312 5.20833 18.2292C5.20833 17.6736 5.3342 17.1484 5.58593 16.6536C5.83767 16.1588 6.25868 15.6163 6.84895 15.026C7.10937 14.7656 7.3177 14.5486 7.47395 14.375C7.6302 14.2014 7.79513 14.0104 7.96874 13.8021C7.08333 12.4479 6.4019 11.0286 5.92447 9.54427C5.44704 8.05989 5.20833 6.61458 5.20833 5.20833C5.20833 4.20138 5.39062 3.42881 5.7552 2.89062C6.11979 2.35243 6.63194 2.08333 7.29166 2.08333C8.02083 2.08333 8.77604 2.43923 9.55729 3.15104C10.3385 3.86284 11.0243 4.80902 11.6146 5.98958C11.7882 6.3368 11.9488 6.69704 12.0963 7.07031C12.2439 7.44357 12.3785 7.8559 12.5 8.30729C12.6215 7.8559 12.7561 7.44357 12.9036 7.07031C13.0512 6.69704 13.2118 6.3368 13.3854 5.98958C13.9757 4.80902 14.6615 3.86284 15.4427 3.15104C16.224 2.43923 16.9792 2.08333 17.7083 2.08333C18.3681 2.08333 18.8802 2.35243 19.2448 2.89062C19.6094 3.42881 19.7917 4.20138 19.7917 5.20833C19.7917 6.61458 19.5529 8.05989 19.0755 9.54427C18.5981 11.0286 17.9167 12.4479 17.0312 13.8021C17.2049 14.0104 17.3698 14.2014 17.526 14.375C17.6823 14.5486 17.8906 14.7656 18.151 15.026C18.7413 15.6163 19.1623 16.1588 19.4141 16.6536C19.6658 17.1484 19.7917 17.6736 19.7917 18.2292C19.7917 19.5312 19.3359 20.638 18.4245 21.5495C17.513 22.4609 16.4062 22.9167 15.1042 22.9167C14.3229 22.9167 13.6936 22.8299 13.2161 22.6562L12.5 22.3958L11.7838 22.6562C11.3064 22.8299 10.6771 22.9167 9.89583 22.9167ZM9.89583 21.3542C10.191 21.3542 10.5382 21.3064 10.9375 21.2109C11.3368 21.1154 11.7621 20.9722 12.2135 20.7812C12.0226 20.6944 11.849 20.5469 11.6927 20.3385C11.5365 20.1302 11.4583 19.9479 11.4583 19.7917C11.4583 19.6528 11.5582 19.5312 11.7578 19.4271C11.9575 19.3229 12.2049 19.2708 12.5 19.2708C12.7951 19.2708 13.0425 19.3229 13.2422 19.4271C13.4418 19.5312 13.5417 19.6528 13.5417 19.7917C13.5417 19.9479 13.4635 20.1302 13.3073 20.3385C13.151 20.5469 12.9774 20.6944 12.7865 20.7812C13.2378 20.9722 13.6632 21.1154 14.0625 21.2109C14.4618 21.3064 14.809 21.3542 15.1042 21.3542C15.9722 21.3542 16.7101 21.0503 17.3177 20.4427C17.9253 19.8351 18.2292 19.0972 18.2292 18.2292C18.2292 17.8472 18.125 17.474 17.9167 17.1094C17.7083 16.7448 17.4045 16.3889 17.0052 16.0417C16.8142 15.8681 16.6016 15.6597 16.3672 15.4167C16.1328 15.1736 15.9201 14.9306 15.7292 14.6875C15.1736 13.9583 14.6962 13.4983 14.2969 13.3073C13.8976 13.1163 13.2986 13.0208 12.5 13.0208C11.7014 13.0208 11.1024 13.1163 10.7031 13.3073C10.3038 13.4983 9.82638 13.9583 9.27083 14.6875C9.07986 14.9306 8.86718 15.1736 8.63281 15.4167C8.39843 15.6597 8.18576 15.8681 7.99479 16.0417C7.59548 16.3889 7.29166 16.7448 7.08333 17.1094C6.87499 17.474 6.77083 17.8472 6.77083 18.2292C6.77083 19.0972 7.07465 19.8351 7.68229 20.4427C8.28993 21.0503 9.02777 21.3542 9.89583 21.3542ZM10.9375 17.4479C10.7986 17.4479 10.6771 17.3698 10.5729 17.2135C10.4687 17.0573 10.4167 16.875 10.4167 16.6667C10.4167 16.4583 10.4687 16.276 10.5729 16.1198C10.6771 15.9635 10.7986 15.8854 10.9375 15.8854C11.0764 15.8854 11.1979 15.9635 11.3021 16.1198C11.4062 16.276 11.4583 16.4583 11.4583 16.6667C11.4583 16.875 11.4062 17.0573 11.3021 17.2135C11.1979 17.3698 11.0764 17.4479 10.9375 17.4479ZM14.0625 17.4479C13.9236 17.4479 13.8021 17.3698 13.6979 17.2135C13.5937 17.0573 13.5417 16.875 13.5417 16.6667C13.5417 16.4583 13.5937 16.276 13.6979 16.1198C13.8021 15.9635 13.9236 15.8854 14.0625 15.8854C14.2014 15.8854 14.3229 15.9635 14.4271 16.1198C14.5312 16.276 14.5833 16.4583 14.5833 16.6667C14.5833 16.875 14.5312 17.0573 14.4271 17.2135C14.3229 17.3698 14.2014 17.4479 14.0625 17.4479ZM9.03645 12.5781C9.40104 12.2309 9.76128 11.9748 10.1172 11.8099C10.4731 11.645 10.9115 11.5365 11.4323 11.4844C11.3455 10.599 11.1979 9.73524 10.9896 8.89322C10.7812 8.05121 10.5121 7.30034 10.1823 6.64062C9.78298 5.82465 9.32291 5.14322 8.80208 4.59635C8.28124 4.04947 7.73437 3.68055 7.16145 3.48958C7.02256 3.74999 6.92274 4.02777 6.86197 4.32291C6.80121 4.61805 6.77083 4.91319 6.77083 5.20833C6.77083 6.45833 6.96614 7.71267 7.35677 8.97135C7.74739 10.23 8.30729 11.4323 9.03645 12.5781ZM15.9635 12.5781C16.6927 11.4323 17.2526 10.23 17.6432 8.97135C18.0338 7.71267 18.2292 6.45833 18.2292 5.20833C18.2292 4.91319 18.1988 4.61805 18.138 4.32291C18.0773 4.02777 17.9774 3.74999 17.8385 3.48958C17.2656 3.68055 16.7187 4.04947 16.1979 4.59635C15.6771 5.14322 15.217 5.82465 14.8177 6.64062C14.4878 7.30034 14.2187 8.05121 14.0104 8.89322C13.8021 9.73524 13.6545 10.599 13.5677 11.4844C14.0885 11.5365 14.5269 11.645 14.8828 11.8099C15.2387 11.9748 15.599 12.2309 15.9635 12.5781Z" fill="white"/>
</svg>
