<svg width="32" height="32" viewBox="0 0 32 32" fill="none" xmlns="http://www.w3.org/2000/svg">
<path d="M12.667 29.3334C11.0003 29.3334 9.58366 28.7501 8.41699 27.5834C7.25033 26.4167 6.66699 25.0001 6.66699 23.3334C6.66699 22.6223 6.8281 21.9501 7.15033 21.3167C7.47255 20.6834 8.01144 19.989 8.76699 19.2334C9.10033 18.9001 9.36699 18.6223 9.56699 18.4001C9.76699 18.1779 9.9781 17.9334 10.2003 17.6667C9.06699 15.9334 8.19477 14.1167 7.58366 12.2167C6.97255 10.3167 6.66699 8.46675 6.66699 6.66675C6.66699 5.37786 6.90033 4.38897 7.36699 3.70008C7.83366 3.01119 8.48921 2.66675 9.33366 2.66675C10.267 2.66675 11.2337 3.1223 12.2337 4.03341C13.2337 4.94453 14.1114 6.15564 14.867 7.66675C15.0892 8.11119 15.2948 8.5723 15.4837 9.05008C15.6725 9.52786 15.8448 10.0556 16.0003 10.6334C16.1559 10.0556 16.3281 9.52786 16.517 9.05008C16.7059 8.5723 16.9114 8.11119 17.1337 7.66675C17.8892 6.15564 18.767 4.94453 19.767 4.03341C20.767 3.1223 21.7337 2.66675 22.667 2.66675C23.5114 2.66675 24.167 3.01119 24.6337 3.70008C25.1003 4.38897 25.3337 5.37786 25.3337 6.66675C25.3337 8.46675 25.0281 10.3167 24.417 12.2167C23.8059 14.1167 22.9337 15.9334 21.8003 17.6667C22.0225 17.9334 22.2337 18.1779 22.4337 18.4001C22.6337 18.6223 22.9003 18.9001 23.2337 19.2334C23.9892 19.989 24.5281 20.6834 24.8503 21.3167C25.1725 21.9501 25.3337 22.6223 25.3337 23.3334C25.3337 25.0001 24.7503 26.4167 23.5837 27.5834C22.417 28.7501 21.0003 29.3334 19.3337 29.3334C18.3337 29.3334 17.5281 29.2223 16.917 29.0001L16.0003 28.6667L15.0837 29.0001C14.4725 29.2223 13.667 29.3334 12.667 29.3334ZM12.667 27.3334C13.0448 27.3334 13.4892 27.2723 14.0003 27.1501C14.5114 27.0279 15.0559 26.8445 15.6337 26.6001C15.3892 26.489 15.167 26.3001 14.967 26.0334C14.767 25.7667 14.667 25.5334 14.667 25.3334C14.667 25.1556 14.7948 25.0001 15.0503 24.8667C15.3059 24.7334 15.6225 24.6667 16.0003 24.6667C16.3781 24.6667 16.6948 24.7334 16.9503 24.8667C17.2059 25.0001 17.3337 25.1556 17.3337 25.3334C17.3337 25.5334 17.2337 25.7667 17.0337 26.0334C16.8337 26.3001 16.6114 26.489 16.367 26.6001C16.9448 26.8445 17.4892 27.0279 18.0003 27.1501C18.5114 27.2723 18.9559 27.3334 19.3337 27.3334C20.4448 27.3334 21.3892 26.9445 22.167 26.1667C22.9448 25.389 23.3337 24.4445 23.3337 23.3334C23.3337 22.8445 23.2003 22.3667 22.9337 21.9001C22.667 21.4334 22.2781 20.9779 21.767 20.5334C21.5225 20.3112 21.2503 20.0445 20.9503 19.7334C20.6503 19.4223 20.3781 19.1112 20.1337 18.8001C19.4225 17.8667 18.8114 17.2779 18.3003 17.0334C17.7892 16.789 17.0225 16.6667 16.0003 16.6667C14.9781 16.6667 14.2114 16.789 13.7003 17.0334C13.1892 17.2779 12.5781 17.8667 11.867 18.8001C11.6225 19.1112 11.3503 19.4223 11.0503 19.7334C10.7503 20.0445 10.4781 20.3112 10.2337 20.5334C9.72255 20.9779 9.33366 21.4334 9.06699 21.9001C8.80033 22.3667 8.66699 22.8445 8.66699 23.3334C8.66699 24.4445 9.05588 25.389 9.83366 26.1667C10.6114 26.9445 11.5559 27.3334 12.667 27.3334ZM14.0003 22.3334C13.8225 22.3334 13.667 22.2334 13.5337 22.0334C13.4003 21.8334 13.3337 21.6001 13.3337 21.3334C13.3337 21.0667 13.4003 20.8334 13.5337 20.6334C13.667 20.4334 13.8225 20.3334 14.0003 20.3334C14.1781 20.3334 14.3337 20.4334 14.467 20.6334C14.6003 20.8334 14.667 21.0667 14.667 21.3334C14.667 21.6001 14.6003 21.8334 14.467 22.0334C14.3337 22.2334 14.1781 22.3334 14.0003 22.3334ZM18.0003 22.3334C17.8225 22.3334 17.667 22.2334 17.5337 22.0334C17.4003 21.8334 17.3337 21.6001 17.3337 21.3334C17.3337 21.0667 17.4003 20.8334 17.5337 20.6334C17.667 20.4334 17.8225 20.3334 18.0003 20.3334C18.1781 20.3334 18.3337 20.4334 18.467 20.6334C18.6003 20.8334 18.667 21.0667 18.667 21.3334C18.667 21.6001 18.6003 21.8334 18.467 22.0334C18.3337 22.2334 18.1781 22.3334 18.0003 22.3334ZM11.567 16.1001C12.0337 15.6556 12.4948 15.3279 12.9503 15.1167C13.4059 14.9056 13.967 14.7667 14.6337 14.7001C14.5225 13.5667 14.3337 12.4612 14.067 11.3834C13.8003 10.3056 13.4559 9.34453 13.0337 8.50008C12.5225 7.45564 11.9337 6.58342 11.267 5.88341C10.6003 5.18341 9.90033 4.71119 9.16699 4.46675C8.98921 4.80008 8.86144 5.15564 8.78366 5.53341C8.70588 5.91119 8.66699 6.28897 8.66699 6.66675C8.66699 8.26675 8.91699 9.8723 9.41699 11.4834C9.91699 13.0945 10.6337 14.6334 11.567 16.1001ZM20.4337 16.1001C21.367 14.6334 22.0837 13.0945 22.5837 11.4834C23.0837 9.8723 23.3337 8.26675 23.3337 6.66675C23.3337 6.28897 23.2948 5.91119 23.217 5.53341C23.1392 5.15564 23.0114 4.80008 22.8337 4.46675C22.1003 4.71119 21.4003 5.18341 20.7337 5.88341C20.067 6.58342 19.4781 7.45564 18.967 8.50008C18.5448 9.34453 18.2003 10.3056 17.9337 11.3834C17.667 12.4612 17.4781 13.5667 17.367 14.7001C18.0337 14.7667 18.5948 14.9056 19.0503 15.1167C19.5059 15.3279 19.967 15.6556 20.4337 16.1001Z" fill="#F86064"/>
</svg>
