<svg width="113" height="116" viewBox="0 0 113 116" fill="none" xmlns="http://www.w3.org/2000/svg">
<path d="M56.5 15.91C67.9458 15.91 77.6406 19.9614 85.5844 28.064C93.5281 36.1666 97.5 46.0553 97.5 57.73C97.5 69.4048 93.5281 79.2935 85.5844 87.3961C77.6406 95.4987 67.9458 99.55 56.5 99.55C45.0542 99.55 35.3594 95.4987 27.4156 87.3961C19.4719 79.2935 15.5 69.4048 15.5 57.73C15.5 46.0553 19.4719 36.1666 27.4156 28.064C35.3594 19.9614 45.0542 15.91 56.5 15.91ZM56.5 89.095C65.0417 89.095 72.3021 86.0457 78.2812 79.9469C84.2604 73.8482 87.25 66.4425 87.25 57.73C87.25 49.0175 84.2604 41.6119 78.2812 35.5132C72.3021 29.4144 65.0417 26.365 56.5 26.365C47.9583 26.365 40.6979 29.4144 34.7188 35.5132C28.7396 41.6119 25.75 49.0175 25.75 57.73C25.75 66.4425 28.7396 73.8482 34.7188 79.9469C40.6979 86.0457 47.9583 89.095 56.5 89.095ZM56.5 76.0263C60.6 76.0263 64.2729 74.8283 67.5188 72.4324C70.7646 70.0364 73.0708 66.8782 74.4375 62.9575H38.5625C39.9292 66.8782 42.2354 70.0364 45.4813 72.4324C48.7271 74.8283 52.4 76.0263 56.5 76.0263ZM38.5625 47.275C38.5625 48.7562 39.0536 49.9977 40.0359 50.9996C41.0182 52.0016 42.2354 52.5025 43.6875 52.5025C45.1396 52.5025 46.3568 52.0016 47.3391 50.9996C48.3214 49.9977 48.8125 48.7562 48.8125 47.275C48.8125 45.7939 48.3214 44.5524 47.3391 43.5504C46.3568 42.5485 45.1396 42.0475 43.6875 42.0475C42.2354 42.0475 41.0182 42.5485 40.0359 43.5504C39.0536 44.5524 38.5625 45.7939 38.5625 47.275ZM64.1875 47.275C64.1875 48.7562 64.6786 49.9977 65.6609 50.9996C66.6432 52.0016 67.8604 52.5025 69.3125 52.5025C70.7646 52.5025 71.9818 52.0016 72.9641 50.9996C73.9464 49.9977 74.4375 48.7562 74.4375 47.275C74.4375 45.7939 73.9464 44.5524 72.9641 43.5504C71.9818 42.5485 70.7646 42.0475 69.3125 42.0475C67.8604 42.0475 66.6432 42.5485 65.6609 43.5504C64.6786 44.5524 64.1875 45.7939 64.1875 47.275ZM0.125 26.365V10.6825C0.125 7.80741 1.12865 5.34613 3.13594 3.2987C5.14323 1.25126 7.55625 0.227539 10.375 0.227539H25.75V10.6825H10.375V26.365H0.125ZM25.75 115.233H10.375C7.55625 115.233 5.14323 114.209 3.13594 112.161C1.12865 110.114 0.125 107.653 0.125 104.778V89.095H10.375V104.778H25.75V115.233ZM87.25 115.233V104.778H102.625V89.095H112.875V104.778C112.875 107.653 111.871 110.114 109.864 112.161C107.857 114.209 105.444 115.233 102.625 115.233H87.25ZM102.625 26.365V10.6825H87.25V0.227539H102.625C105.444 0.227539 107.857 1.25126 109.864 3.2987C111.871 5.34613 112.875 7.80741 112.875 10.6825V26.365H102.625Z" fill="white"/>
</svg>
