<svg width="32" height="32" viewBox="0 0 32 32" fill="none" xmlns="http://www.w3.org/2000/svg">
<g clip-path="url(#clip0_944_723)">
<path d="M12.1003 21.6667L16.0003 19.3L19.9003 21.6667L18.8669 17.2333L22.3336 14.2333L17.7669 13.8667L16.0003 9.66668L14.2336 13.8667L9.66693 14.2333L13.1336 17.2333L12.1003 21.6667ZM16.0003 31.0667L11.5336 26.6667H5.33359V20.4667L0.933594 16L5.33359 11.5333V5.33335H11.5336L16.0003 0.93335L20.4669 5.33335H26.6669V11.5333L31.0669 16L26.6669 20.4667V26.6667H20.4669L16.0003 31.0667ZM16.0003 27.3333L19.3336 24H24.0003V19.3333L27.3336 16L24.0003 12.6667V8.00002H19.3336L16.0003 4.66668L12.6669 8.00002H8.00026V12.6667L4.66693 16L8.00026 19.3333V24H12.6669L16.0003 27.3333Z" fill="#F86064"/>
</g>
<defs>
<clipPath id="clip0_944_723">
<rect width="32" height="32" fill="white"/>
</clipPath>
</defs>
</svg>
