<svg width="51" height="58" viewBox="0 0 51 58" fill="none" xmlns="http://www.w3.org/2000/svg">
<g clip-path="url(#clip0_2067_1469)">
<path d="M43.2501 10.8002C38.5201 6.07021 32.2501 3.47021 25.5801 3.47021C11.7801 3.47021 0.580078 14.7102 0.580078 28.4702C0.580078 42.2302 11.7801 53.4702 25.5801 53.4702C32.2401 53.4702 38.5501 50.8702 43.2501 46.1402C53.0301 36.3602 53.0301 20.5502 43.2501 10.7702M49.7501 28.0702H42.0201C41.9401 23.9702 40.3201 20.1002 37.4901 17.1502C37.5701 17.0702 43.2101 11.4302 42.9301 11.7102C47.2301 16.1302 49.6301 21.9202 49.7101 28.1102M26.0101 4.34021C32.1601 4.46021 37.9601 6.82021 42.4101 11.1202C42.2501 11.2802 36.7301 16.8002 36.9701 16.5602C34.0101 13.7202 30.1501 12.1402 26.0501 12.0302V4.30022L26.0101 4.34021ZM25.1901 4.34021V12.0302C21.0901 12.1502 17.2201 13.7302 14.2701 16.5602L8.83008 11.1202C13.0901 7.02021 18.8501 4.42021 25.2301 4.34021M8.19008 11.7102L13.6301 17.1502C10.7901 20.1102 9.21008 23.9702 9.10008 28.0702H1.37008C1.49008 21.7202 4.05008 15.9602 8.15008 11.6702M1.41008 28.9002H9.14008C9.26008 33.0002 10.8401 36.8702 13.6701 39.8602L8.23008 45.3002C4.13008 41.0402 1.53008 35.2802 1.45008 28.9002M25.1901 52.6802C18.8401 52.5602 13.0801 50.0002 8.79008 45.9002L14.2301 40.4602C17.2301 43.3002 21.0501 44.8802 25.1501 44.9902V52.7202L25.1901 52.6802ZM25.5801 44.1202C16.7901 44.1202 9.93008 36.9802 9.93008 28.4702C9.93008 19.4802 17.2201 12.8202 25.5801 12.8202C33.9401 12.8202 41.2301 19.8402 41.2301 28.4702C41.2301 37.1002 34.2501 44.1202 25.5801 44.1202ZM26.0101 52.6802V44.9502C30.1101 44.8702 33.9801 43.2502 36.9301 40.4202L42.3701 45.8602C37.9501 50.1602 32.1601 52.5602 25.9701 52.6402M42.9701 45.3102L37.5301 39.8702C40.3701 36.9102 41.9501 33.0502 42.0601 28.9502H49.7901C49.6701 35.1002 47.3101 40.9002 43.0101 45.3502" fill="#ACB4C9"/>
<path d="M43.2501 10.8002C38.5201 6.07021 32.2501 3.47021 25.5801 3.47021C11.7801 3.47021 0.580078 14.7102 0.580078 28.4702C0.580078 42.2302 11.7801 53.4702 25.5801 53.4702C32.2401 53.4702 38.5501 50.8702 43.2501 46.1402C53.0301 36.3602 53.0301 20.5502 43.2501 10.7702V10.8102V10.8002ZM49.7501 28.0702H42.0201C41.9401 23.9702 40.3201 20.1002 37.4901 17.1502C37.5701 17.0702 43.2101 11.4302 42.9301 11.7102C47.2301 16.1302 49.6301 21.9202 49.7101 28.1102L49.7501 28.0702ZM26.0101 4.34021C32.1601 4.46021 37.9601 6.82021 42.4101 11.1202C42.2501 11.2802 36.7301 16.8002 36.9701 16.5602C34.0101 13.7202 30.1501 12.1402 26.0501 12.0302V4.30022L26.0101 4.34021ZM25.1901 4.34021V12.0302C21.0901 12.1502 17.2201 13.7302 14.2701 16.5602L8.83008 11.1202C13.0901 7.02021 18.8501 4.42021 25.2301 4.34021H25.1901ZM8.19008 11.7102L13.6301 17.1502C10.7901 20.1102 9.21008 23.9702 9.10008 28.0702H1.37008C1.49008 21.7202 4.05008 15.9602 8.15008 11.6702L8.19008 11.7102ZM1.41008 28.9002H9.14008C9.26008 33.0002 10.8401 36.8702 13.6701 39.8602L8.23008 45.3002C4.13008 41.0402 1.53008 35.2802 1.45008 28.9002H1.41008ZM25.1901 52.6802C18.8401 52.5602 13.0801 50.0002 8.79008 45.9002L14.2301 40.4602C17.2301 43.3002 21.0501 44.8802 25.1501 44.9902V52.7202L25.1901 52.6802ZM25.5801 44.1202C16.7901 44.1202 9.93008 36.9802 9.93008 28.4702C9.93008 19.4802 17.2201 12.8202 25.5801 12.8202C33.9401 12.8202 41.2301 19.8402 41.2301 28.4702C41.2301 37.1002 34.2501 44.1202 25.5801 44.1202ZM26.0101 52.6802V44.9502C30.1101 44.8702 33.9801 43.2502 36.9301 40.4202L42.3701 45.8602C37.9501 50.1602 32.1601 52.5602 25.9701 52.6402L26.0101 52.6802ZM42.9701 45.3102L37.5301 39.8702C40.3701 36.9102 41.9501 33.0502 42.0601 28.9502H49.7901C49.6701 35.1002 47.3101 40.9002 43.0101 45.3502L42.9701 45.3102Z" stroke="#ACB4C9" stroke-miterlimit="10" stroke-linecap="round"/>
<path d="M33.3491 7.25C31.9291 7.25 30.7891 8.39 30.7891 9.81C30.7891 11.23 31.9291 12.37 33.3491 12.37C34.7691 12.37 35.9091 11.23 35.9091 9.81C35.9091 8.39 34.7691 7.25 33.3491 7.25ZM33.3491 11.55C32.3991 11.55 31.6091 10.76 31.6091 9.81C31.6091 8.86 32.3991 8.07 33.3491 8.07C34.2991 8.07 35.0891 8.86 35.0891 9.81C35.0891 10.76 34.2991 11.55 33.3491 11.55Z" fill="#ACB4C9"/>
<path d="M33.3491 7.25C31.9291 7.25 30.7891 8.39 30.7891 9.81C30.7891 11.23 31.9291 12.37 33.3491 12.37C34.7691 12.37 35.9091 11.23 35.9091 9.81C35.9091 8.39 34.7691 7.25 33.3491 7.25ZM33.3491 11.55C32.3991 11.55 31.6091 10.76 31.6091 9.81C31.6091 8.86 32.3991 8.07 33.3491 8.07C34.2991 8.07 35.0891 8.86 35.0891 9.81C35.0891 10.76 34.2991 11.55 33.3491 11.55Z" stroke="#ACB4C9" stroke-width="0.25" stroke-miterlimit="10" stroke-linecap="round"/>
<path d="M17.6205 49.9598C19.0405 49.9598 20.1805 48.8198 20.1805 47.3998C20.1805 45.9798 19.0405 44.8398 17.6205 44.8398C16.2005 44.8398 15.0605 45.9798 15.0605 47.3998C15.0605 48.8198 16.2005 49.9598 17.6205 49.9598ZM17.6205 45.6598C18.5705 45.6598 19.3605 46.4498 19.3605 47.3998C19.3605 48.3498 18.5705 49.1398 17.6205 49.1398C16.6705 49.1398 15.8805 48.3498 15.8805 47.3998C15.8805 46.4498 16.6705 45.6598 17.6205 45.6598Z" fill="#ACB4C9"/>
<path d="M17.6205 49.9598C19.0405 49.9598 20.1805 48.8198 20.1805 47.3998C20.1805 45.9798 19.0405 44.8398 17.6205 44.8398C16.2005 44.8398 15.0605 45.9798 15.0605 47.3998C15.0605 48.8198 16.2005 49.9598 17.6205 49.9598ZM17.6205 45.6598C18.5705 45.6598 19.3605 46.4498 19.3605 47.3998C19.3605 48.3498 18.5705 49.1398 17.6205 49.1398C16.6705 49.1398 15.8805 48.3498 15.8805 47.3998C15.8805 46.4498 16.6705 45.6598 17.6205 45.6598Z" stroke="#ACB4C9" stroke-width="0.25" stroke-miterlimit="10" stroke-linecap="round"/>
<path d="M46.1596 22.7099C47.1496 21.6799 47.1496 20.0699 46.1596 19.0799C45.1296 18.0899 43.5196 18.0899 42.5296 19.0799C41.5396 20.0699 41.5396 21.7199 42.5296 22.7099C43.5196 23.6999 45.1696 23.7399 46.1596 22.7099ZM43.0896 19.6399C43.7596 18.9699 44.8596 18.9699 45.5696 19.6399C46.2396 20.3099 46.2396 21.4099 45.5696 22.1199C44.8996 22.7899 43.7996 22.7899 43.1296 22.1199C42.4596 21.4499 42.4596 20.3499 43.1296 19.6799" fill="#ACB4C9"/>
<path d="M46.1596 22.7099C47.1496 21.6799 47.1496 20.0699 46.1596 19.0799C45.1296 18.0899 43.5196 18.0899 42.5296 19.0799C41.5396 20.0699 41.5396 21.7199 42.5296 22.7099C43.5196 23.6999 45.1696 23.7399 46.1596 22.7099ZM43.0896 19.6399C43.7596 18.9699 44.8596 18.9699 45.5696 19.6399C46.2396 20.3099 46.2396 21.4099 45.5696 22.1199C44.8996 22.7899 43.7996 22.7899 43.1296 22.1199C42.4596 21.4499 42.4596 20.3499 43.1296 19.6799L43.0896 19.6399Z" stroke="#ACB4C9" stroke-width="0.25" stroke-miterlimit="10" stroke-linecap="round"/>
<path d="M8.47086 34.4998C7.48086 33.5098 5.79086 33.5098 4.84086 34.4998C3.89086 35.4898 3.85086 37.1398 4.84086 38.1298C5.83086 39.1198 7.48086 39.1598 8.47086 38.1298C9.46086 37.1398 9.46086 35.4898 8.47086 34.4998ZM7.88086 37.5398C7.21086 38.2098 6.11086 38.2098 5.44086 37.5398C4.77086 36.8698 4.77086 35.7698 5.44086 35.0998C6.11086 34.4298 7.21086 34.4298 7.92086 35.0998C8.59086 35.7698 8.59086 36.8698 7.92086 37.5798" fill="#ACB4C9"/>
<path d="M8.47086 34.4998C7.48086 33.5098 5.79086 33.5098 4.84086 34.4998C3.89086 35.4898 3.85086 37.1398 4.84086 38.1298C5.83086 39.1198 7.48086 39.1598 8.47086 38.1298C9.46086 37.1398 9.46086 35.4898 8.47086 34.4998ZM7.88086 37.5398C7.21086 38.2098 6.11086 38.2098 5.44086 37.5398C4.77086 36.8698 4.77086 35.7698 5.44086 35.0998C6.11086 34.4298 7.21086 34.4298 7.92086 35.0998C8.59086 35.7698 8.59086 36.8698 7.92086 37.5798L7.88086 37.5398Z" stroke="#ACB4C9" stroke-width="0.25" stroke-miterlimit="10" stroke-linecap="round"/>
<path d="M44.2709 39.0399C45.6909 39.0399 46.8309 37.8999 46.8309 36.4799C46.8309 35.0599 45.6909 33.9199 44.2709 33.9199C42.8509 33.9199 41.7109 35.0599 41.7109 36.4799C41.7109 37.8999 42.8509 39.0399 44.2709 39.0399ZM44.2709 34.7399C45.2209 34.7399 46.0109 35.5299 46.0109 36.4799C46.0109 37.4299 45.2209 38.2199 44.2709 38.2199C43.3209 38.2199 42.5309 37.4299 42.5309 36.4799C42.5309 35.5299 43.3209 34.7399 44.2709 34.7399Z" fill="#ACB4C9"/>
<path d="M44.2709 39.0399C45.6909 39.0399 46.8309 37.8999 46.8309 36.4799C46.8309 35.0599 45.6909 33.9199 44.2709 33.9199C42.8509 33.9199 41.7109 35.0599 41.7109 36.4799C41.7109 37.8999 42.8509 39.0399 44.2709 39.0399ZM44.2709 34.7399C45.2209 34.7399 46.0109 35.5299 46.0109 36.4799C46.0109 37.4299 45.2209 38.2199 44.2709 38.2199C43.3209 38.2199 42.5309 37.4299 42.5309 36.4799C42.5309 35.5299 43.3209 34.7399 44.2709 34.7399Z" stroke="#ACB4C9" stroke-width="0.25" stroke-miterlimit="10" stroke-linecap="round"/>
<path d="M6.69086 18.1401C5.27086 18.1401 4.13086 19.2801 4.13086 20.7001C4.13086 22.1201 5.27086 23.2601 6.69086 23.2601C8.11086 23.2601 9.25086 22.1201 9.25086 20.7001C9.25086 19.2801 8.11086 18.1401 6.69086 18.1401ZM6.69086 22.4701C5.74086 22.4701 4.95086 21.6801 4.95086 20.7301C4.95086 19.7801 5.74086 18.9901 6.69086 18.9901C7.64086 18.9901 8.43086 19.7801 8.43086 20.7301C8.43086 21.6801 7.64086 22.4701 6.69086 22.4701Z" fill="#ACB4C9"/>
<path d="M6.69086 18.1401C5.27086 18.1401 4.13086 19.2801 4.13086 20.7001C4.13086 22.1201 5.27086 23.2601 6.69086 23.2601C8.11086 23.2601 9.25086 22.1201 9.25086 20.7001C9.25086 19.2801 8.11086 18.1401 6.69086 18.1401ZM6.69086 22.4701C5.74086 22.4701 4.95086 21.6801 4.95086 20.7301C4.95086 19.7801 5.74086 18.9901 6.69086 18.9901C7.64086 18.9901 8.43086 19.7801 8.43086 20.7301C8.43086 21.6801 7.64086 22.4701 6.69086 22.4701Z" stroke="#ACB4C9" stroke-width="0.25" stroke-miterlimit="10" stroke-linecap="round"/>
<path d="M31.3806 45.6199C30.3906 46.6499 30.3506 48.2599 31.3806 49.2499C32.3706 50.2799 34.0206 50.2799 35.0106 49.2499C36.0006 48.2199 36.0406 46.6099 35.0106 45.6199C34.0206 44.6299 32.3706 44.6299 31.3806 45.6199ZM34.4506 48.6999C33.7806 49.3699 32.6406 49.3699 31.9706 48.6999C31.3006 48.0299 31.3006 46.9299 31.9706 46.2599C32.6406 45.5899 33.7406 45.5899 34.4106 46.2599C35.0806 46.9299 35.0806 48.0299 34.4106 48.7399" fill="#ACB4C9"/>
<path d="M31.3806 45.6199C30.3906 46.6499 30.3506 48.2599 31.3806 49.2499C32.3706 50.2799 34.0206 50.2799 35.0106 49.2499C36.0006 48.2199 36.0406 46.6099 35.0106 45.6199C34.0206 44.6299 32.3706 44.6299 31.3806 45.6199ZM34.4506 48.6999C33.7806 49.3699 32.6406 49.3699 31.9706 48.6999C31.3006 48.0299 31.3006 46.9299 31.9706 46.2599C32.6406 45.5899 33.7406 45.5899 34.4106 46.2599C35.0806 46.9299 35.0806 48.0299 34.4106 48.7399L34.4506 48.6999Z" stroke="#ACB4C9" stroke-width="0.25" stroke-miterlimit="10" stroke-linecap="round"/>
<path d="M19.5905 11.5502C20.5805 10.5602 20.5805 8.91023 19.5905 7.92023C18.6005 6.93023 16.9505 6.93023 15.9605 7.92023C14.9005 8.98023 15.0505 10.6002 15.9605 11.5102C16.9505 12.5402 18.6005 12.5402 19.6305 11.5102M16.5505 8.52023C17.2205 7.85023 18.3205 7.85023 18.9905 8.52023C19.6605 9.19023 19.6605 10.2902 18.9905 11.0002C18.3205 11.7102 17.2205 11.6702 16.5105 11.0002C15.8405 10.3302 15.8405 9.23023 16.5105 8.56023" fill="#ACB4C9"/>
<path d="M19.5905 11.5502C20.5805 10.5602 20.5805 8.91023 19.5905 7.92023C18.6005 6.93023 16.9505 6.93023 15.9605 7.92023C14.9005 8.98023 15.0505 10.6002 15.9605 11.5102C16.9505 12.5402 18.6005 12.5402 19.6305 11.5102L19.5905 11.5502ZM16.5505 8.52023C17.2205 7.85023 18.3205 7.85023 18.9905 8.52023C19.6605 9.19023 19.6605 10.2902 18.9905 11.0002C18.3205 11.7102 17.2205 11.6702 16.5105 11.0002C15.8405 10.3302 15.8405 9.23023 16.5105 8.56023L16.5505 8.52023Z" stroke="#ACB4C9" stroke-width="0.25" stroke-miterlimit="10" stroke-linecap="round"/>
<path d="M31.4193 28.0698H28.9793C29.0193 26.7298 29.2593 25.3498 29.6493 23.9298C29.9293 22.9398 30.2793 21.9598 30.7093 20.9698C30.7893 20.7698 30.7093 20.4998 30.5093 20.4198C30.3093 20.3398 30.0793 20.4198 29.9593 20.6198C29.5293 21.6498 29.1693 22.6698 28.8593 23.6598C28.4693 25.1198 28.2293 26.5798 28.1493 27.9998H23.0193C23.0193 26.4998 22.8193 25.0398 22.3893 23.6598C22.1093 22.6298 21.6793 21.6098 21.1693 20.5798C21.0493 20.3798 20.8193 20.2998 20.6193 20.3798C20.4193 20.4998 20.3393 20.7298 20.4193 20.9298C20.8893 21.9198 21.2893 22.8998 21.5593 23.8498C21.9493 25.1898 22.1093 26.5698 22.1493 27.9898H19.6693C19.4293 27.9898 19.2793 28.1898 19.2793 28.3798C19.2793 28.5698 19.4793 28.7698 19.6693 28.7698H22.1093C22.0693 30.1098 21.8293 31.4898 21.4393 32.9098C21.1593 33.8998 20.8093 34.8798 20.3793 35.8698C20.2993 36.0698 20.3793 36.2998 20.5793 36.4198C20.7793 36.4998 21.0493 36.4198 21.1293 36.2198C21.5593 35.1898 21.9193 34.1698 22.2293 33.1398C22.6193 31.6798 22.8593 30.2198 22.9393 28.7998H28.0693C28.0693 30.2998 28.2693 31.7198 28.6993 33.1398C28.9393 34.0898 29.3293 35.1098 29.8793 36.2198C29.9993 36.4198 30.2293 36.4998 30.4293 36.4198C30.6293 36.2998 30.7093 36.0698 30.6293 35.8698C30.1193 34.8098 29.7193 33.8598 29.4893 32.9498C29.0993 31.6098 28.8993 30.2298 28.8993 28.8098H31.3793C31.6193 28.8098 31.7693 28.6098 31.7693 28.4198C31.7693 28.2298 31.5693 28.0298 31.3793 28.0298" fill="#ACB4C9"/>
<path d="M31.4193 28.0698H28.9793C29.0193 26.7298 29.2593 25.3498 29.6493 23.9298C29.9293 22.9398 30.2793 21.9598 30.7093 20.9698C30.7893 20.7698 30.7093 20.4998 30.5093 20.4198C30.3093 20.3398 30.0793 20.4198 29.9593 20.6198C29.5293 21.6498 29.1693 22.6698 28.8593 23.6598C28.4693 25.1198 28.2293 26.5798 28.1493 27.9998H23.0193C23.0193 26.4998 22.8193 25.0398 22.3893 23.6598C22.1093 22.6298 21.6793 21.6098 21.1693 20.5798C21.0493 20.3798 20.8193 20.2998 20.6193 20.3798C20.4193 20.4998 20.3393 20.7298 20.4193 20.9298C20.8893 21.9198 21.2893 22.8998 21.5593 23.8498C21.9493 25.1898 22.1093 26.5698 22.1493 27.9898H19.6693C19.4293 27.9898 19.2793 28.1898 19.2793 28.3798C19.2793 28.5698 19.4793 28.7698 19.6693 28.7698H22.1093C22.0693 30.1098 21.8293 31.4898 21.4393 32.9098C21.1593 33.8998 20.8093 34.8798 20.3793 35.8698C20.2993 36.0698 20.3793 36.2998 20.5793 36.4198C20.7793 36.4998 21.0493 36.4198 21.1293 36.2198C21.5593 35.1898 21.9193 34.1698 22.2293 33.1398C22.6193 31.6798 22.8593 30.2198 22.9393 28.7998H28.0693C28.0693 30.2998 28.2693 31.7198 28.6993 33.1398C28.9393 34.0898 29.3293 35.1098 29.8793 36.2198C29.9993 36.4198 30.2293 36.4998 30.4293 36.4198C30.6293 36.2998 30.7093 36.0698 30.6293 35.8698C30.1193 34.8098 29.7193 33.8598 29.4893 32.9498C29.0993 31.6098 28.8993 30.2298 28.8993 28.8098H31.3793C31.6193 28.8098 31.7693 28.6098 31.7693 28.4198C31.7693 28.2298 31.5693 28.0298 31.3793 28.0298L31.4193 28.0698Z" stroke="#ACB4C9" stroke-miterlimit="10" stroke-linecap="round"/>
</g>
<defs>
<clipPath id="clip0_2067_1469">
<rect width="50.9" height="57.3" fill="white"/>
</clipPath>
</defs>
</svg>
