<svg width="52" height="52" viewBox="0 0 52 52" fill="none" xmlns="http://www.w3.org/2000/svg">
<path d="M34.125 40.625H11.375C9.57937 40.625 8.125 39.1706 8.125 37.375V8.125C8.125 6.32937 9.57937 4.875 11.375 4.875H34.125C35.9206 4.875 37.375 6.32937 37.375 8.125V37.375C37.375 39.1706 35.9206 40.625 34.125 40.625Z" stroke="black" stroke-width="2" stroke-miterlimit="10" stroke-linecap="round" stroke-linejoin="round"/>
<path d="M14.625 47.125H40.625C42.4206 47.125 43.875 45.6706 43.875 43.875V11.375" stroke="black" stroke-width="2" stroke-miterlimit="10" stroke-linecap="round" stroke-linejoin="round"/>
<path d="M29.137 19.1605C28.8071 17.7663 27.681 16.6304 26.3274 16.3363C24.8941 16.0243 23.5876 16.879 22.7491 17.8751C21.9025 16.8693 20.5781 16.0129 19.1286 16.346C17.8172 16.6466 16.7236 17.7321 16.3807 19.0793C16.0281 20.4638 16.4181 21.7426 17.1981 22.6543L22.1202 28.9381C22.4452 29.3525 23.0546 29.3525 23.3796 28.9398L28.5049 22.4203H28.487C29.124 21.5476 29.4311 20.402 29.137 19.1605Z" fill="black"/>
</svg>
