<?xml version="1.0" encoding="UTF-8"?>
<svg id="Chat" xmlns="http://www.w3.org/2000/svg" viewBox="0 0 50.9 57.3">
  <defs>
    <style>
      .cls-1 {
        fill: #acb4c9;
      }
    </style>
  </defs>
  <path class="cls-1" d="M25.46,16c-.53,0-.97.45-.97.97s.45.97.97.97.97-.45.97-.97-.45-.97-.97-.97"/>
  <path class="cls-1" d="M9.25,33.58c.53,0,.97-.45.97-.97s-.45-.97-.97-.97-.97.45-.97.97.45.97.97.97"/>
  <path class="cls-1" d="M33.28,6.23c-8.79,0-16,6.08-16.57,13.7C8.32,20.33.46,26.37.46,34.56c0,3.4,1.34,6.73,3.81,9.32.49,1.99-.12,4.13-1.58,5.59-.28.28-.36.69-.2,1.05.16.36.53.61.89.61,2.8,0,5.47-1.09,7.46-3,1.94.65,4.46,1.05,6.81,1.05,8.79,0,16-6.08,16.57-13.7,2.07-.08,4.17-.45,5.88-1.05,1.99,1.9,4.66,3,7.46,3,.41,0,.73-.24.89-.61s.08-.77-.2-1.05c-1.46-1.46-2.07-3.61-1.58-5.59,2.47-2.63,3.81-5.92,3.81-9.32,0-8.47-8.47-14.63-17.18-14.63M17.64,47.28c-2.31,0-4.94-.45-6.69-1.13-.36-.16-.81-.04-1.09.24-1.17,1.3-2.71,2.19-4.38,2.59.93-1.78,1.17-3.85.61-5.83-.04-.16-.12-.28-.24-.41-2.23-2.27-3.44-5.19-3.44-8.18,0-6.89,6.97-12.68,15.24-12.68,7.78,0,14.63,5.43,14.63,12.68s-6.56,12.68-14.63,12.68M45.07,29.05s-.2.24-.24.41c-.57,1.99-.32,4.05.61,5.79-1.66-.41-3.2-1.3-4.38-2.59-.28-.28-.69-.41-1.09-.24-1.54.61-3.69,1.01-5.75,1.13-.28-3.69-2.11-7.17-5.27-9.72h12.72c.53,0,.97-.45.97-.97s-.45-.97-.97-.97h-15.72c-2.23-1.13-4.7-1.78-7.25-1.9.57-6.56,6.89-11.75,14.63-11.75,8.27,0,15.24,5.83,15.24,12.68,0,3-1.22,5.88-3.44,8.18"/>
  <path class="cls-1" d="M25.46,31.64h-12.32c-.53,0-.97.45-.97.97s.45.97.97.97h12.32c.53,0,.97-.45.97-.97s-.45-.97-.97-.97"/>
  <path class="cls-1" d="M25.46,37.47H9.25c-.53,0-.97.45-.97.97s.45.97.97.97h16.21c.53,0,.97-.45.97-.97s-.45-.97-.97-.97"/>
  <path class="cls-1" d="M41.67,16h-12.32c-.53,0-.97.45-.97.97s.45.97.97.97h12.32c.53,0,.97-.45.97-.97s-.45-.97-.97-.97"/>
</svg>