<svg width="1203" height="348" viewBox="0 0 1203 348" fill="none" xmlns="http://www.w3.org/2000/svg">
<g clip-path="url(#clip0_2208_3222)">
<path d="M553.88 0H465.42C453.1 0 441.29 4.89 432.58 13.6L259.76 186.45C240.93 205.28 213.14 211.89 186.01 202.3C185.35 202.07 184.69 201.8 184.05 201.51C136.56 179.82 129.26 121.72 162.15 88.84C189.06 61.93 232.85 61.93 259.76 88.84L272.94 102.02C282.88 111.96 299 111.96 308.95 102.02L338.89 72.08L307.7 40.89C254.35 -12.45 167.55 -12.45 114.2 40.89C60.85 94.24 60.85 181.04 114.2 234.39C137.32 257.51 167.26 271.3 199.48 273.96H222.41C254.63 271.3 284.57 257.51 307.69 234.39L356.34 185.74C371.19 202.02 432.74 262.14 432.74 262.14C438.95 268.35 449.08 273.96 461.17 273.96H552.26L419.45 141.13L416.09 137.79L419.68 134.22L553.88 0Z" fill="#D62300"/>
<path d="M43.51 347.61C67.5399 347.61 87.02 328.13 87.02 304.1C87.02 280.07 67.5399 260.59 43.51 260.59C19.4801 260.59 0 280.07 0 304.1C0 328.13 19.4801 347.61 43.51 347.61Z" fill="#D62300"/>
<path d="M620.32 214.21V55.98C620.32 53.64 622.21 51.75 624.55 51.75H649.24C651.58 51.75 653.47 53.64 653.47 55.98V218.44H624.55C622.21 218.44 620.32 216.55 620.32 214.21ZM644.69 218.44V188.95H727.71C730.05 188.95 731.94 190.84 731.94 193.18V214.21C731.94 216.55 730.05 218.44 727.71 218.44H644.69Z" fill="#D62300"/>
<path d="M965.301 99.88H939.201V55.98C939.201 53.64 937.311 51.75 934.971 51.75H909.681C907.341 51.75 905.451 53.64 905.451 55.98V99.88H879.921C877.581 99.88 875.691 101.77 875.691 104.11V125.14C875.691 127.48 877.581 129.37 879.921 129.37H905.451V214.21C905.451 216.55 907.341 218.44 909.681 218.44H934.971C937.311 218.44 939.201 216.55 939.201 214.21V129.37H965.291C967.631 129.37 969.521 127.48 969.521 125.14V104.11C969.531 101.77 967.631 99.88 965.301 99.88Z" fill="#D62300"/>
<path d="M1064.3 99.88H1038.21V55.98C1038.21 53.64 1036.32 51.75 1033.98 51.75H1008.69C1006.35 51.75 1004.46 53.64 1004.46 55.98V99.88H979.593C977.253 99.88 975.363 101.77 975.363 104.11V125.14C975.363 127.48 977.253 129.37 979.593 129.37H1004.46V214.21C1004.46 216.55 1006.35 218.44 1008.69 218.44H1033.98C1036.32 218.44 1038.21 216.55 1038.21 214.21V129.37H1064.3C1066.64 129.37 1068.53 127.48 1068.53 125.14V104.11C1068.53 101.77 1066.63 99.88 1064.3 99.88Z" fill="#D62300"/>
<path d="M1156.24 265.67L1139.19 250.01C1136.05 247.13 1131.26 247.25 1128.29 250.27C1099.69 279.36 1042.78 308.72 980.12 308.72C917.46 308.72 860.56 279.36 831.95 250.27C828.97 247.24 824.18 247.13 821.05 250.01L804 265.67C802.42 267.12 801.51 269.11 801.46 271.25C801.4 273.4 802.2 275.44 803.71 276.99C838.07 312.14 905.95 347.61 980.13 347.61C1054.31 347.61 1122.19 312.14 1156.55 276.99C1158.06 275.45 1158.86 273.41 1158.8 271.26C1158.73 269.11 1157.82 267.13 1156.24 265.67Z" fill="#FF8732"/>
<path d="M804.809 96C769.689 96 741.219 124.47 741.219 159.59C741.219 194.71 769.689 223.18 804.809 223.18C839.929 223.18 868.399 194.71 868.399 159.59C868.399 124.47 839.929 96 804.809 96ZM804.809 189.81C788.119 189.81 774.589 176.28 774.589 159.59C774.589 142.9 788.119 129.37 804.809 129.37C821.499 129.37 835.029 142.9 835.029 159.59C835.029 176.28 821.499 189.81 804.809 189.81Z" fill="#D62300"/>
<path d="M1138.44 96C1103.32 96 1074.85 124.47 1074.85 159.59C1074.85 194.71 1103.32 223.18 1138.44 223.18C1173.56 223.18 1202.03 194.71 1202.03 159.59C1202.03 124.47 1173.56 96 1138.44 96ZM1138.44 189.81C1121.75 189.81 1108.22 176.28 1108.22 159.59C1108.22 142.9 1121.75 129.37 1138.44 129.37C1155.13 129.37 1168.66 142.9 1168.66 159.59C1168.66 176.28 1155.13 189.81 1138.44 189.81Z" fill="#D62300"/>
</g>
<defs>
<clipPath id="clip0_2208_3222">
<rect width="1202.03" height="347.61" fill="white"/>
</clipPath>
</defs>
</svg>
