<svg width="51" height="58" viewBox="0 0 51 58" fill="none" xmlns="http://www.w3.org/2000/svg">
<g clip-path="url(#clip0_2067_1490)">
<path d="M35.5408 27.8833L35.2048 27.552L35.5888 27.2208L49 14H40.1488C38.9008 14 37.7488 14.4732 36.8752 15.3249L19.5664 32.388C17.6944 34.2334 14.9008 34.8959 12.2128 33.9495C12.1648 33.9495 12.0688 33.9022 12.0208 33.8549C7.2592 31.7256 6.5392 25.9905 9.8128 22.7634C12.5008 20.1136 16.8784 20.1136 19.576 22.7634L20.872 24.041C21.88 25.0347 23.464 25.0347 24.4816 24.041L27.4672 21.0978L24.3376 18.0126C19 12.7508 10.3408 12.7508 5.0032 18.0126C-0.3344 23.2744 -0.3344 31.8107 5.0032 37.0726C7.3072 39.3438 10.2928 40.7256 13.5184 40.9621H15.8224C19.048 40.7256 22.024 39.3533 24.3376 37.0726L29.1952 32.2839C30.6832 33.8927 36.8368 39.817 36.8368 39.817C37.4608 40.4322 38.4688 41 39.6784 41H48.8176L35.5504 27.9211V27.8738L35.5408 27.8833Z" stroke="#ACB4C9" stroke-width="2" stroke-miterlimit="10"/>
</g>
<defs>
<clipPath id="clip0_2067_1490">
<rect width="50.9" height="57.3" fill="white"/>
</clipPath>
</defs>
</svg>
