<svg width="51" height="58" viewBox="0 0 51 58" fill="none" xmlns="http://www.w3.org/2000/svg">
<mask id="mask0_2067_1501" style="mask-type:luminance" maskUnits="userSpaceOnUse" x="0" y="0" width="51" height="58">
<path d="M50.9 0H0V57.3H50.9V0Z" fill="white"/>
</mask>
<g mask="url(#mask0_2067_1501)">
<path d="M4.0344 7H46.8792C48.3 7 49.5 8.21858 49.5 9.74937V48.301C49.5 49.7915 48.3384 51 46.9272 51H4.0728C2.652 51 1.5 49.7814 1.5 48.301V9.74937C1.5 8.25887 2.6232 7 4.0344 7ZM4.0344 7V7.01007" stroke="#ACB4C9" stroke-width="2" stroke-miterlimit="10"/>
<path d="M25.0815 20.1599C25.0815 23.7799 22.1315 26.6899 18.5515 26.6899C14.9715 26.6899 12.0215 23.7399 12.0215 20.1599C12.0215 16.5799 14.9315 13.6299 18.5515 13.6299C22.1715 13.6299 25.0815 16.5399 25.0815 20.1599Z" stroke="#ACB4C9" stroke-width="2" stroke-miterlimit="10"/>
<path d="M43.0209 20.1599C43.0209 23.7799 40.0709 26.6899 36.4909 26.6899C32.9109 26.6899 29.9609 23.7399 29.9609 20.1599C29.9609 16.5799 32.8709 13.6299 36.4909 13.6299C40.1109 13.6299 43.0209 16.5399 43.0209 20.1599Z" stroke="#ACB4C9" stroke-width="2" stroke-miterlimit="10"/>
<path d="M25.0815 37.1999C25.0815 40.8199 22.1315 43.7299 18.5515 43.7299C14.9715 43.7299 12.0215 40.8199 12.0215 37.1999C12.0215 33.5799 14.9315 30.6699 18.5515 30.6699C22.1715 30.6699 25.0815 33.6199 25.0815 37.1999Z" stroke="#ACB4C9" stroke-width="2" stroke-miterlimit="10"/>
<path d="M43.0209 37.1999C43.0209 40.8199 40.0709 43.7299 36.4909 43.7299C32.9109 43.7299 29.9609 40.8199 29.9609 37.1999C29.9609 33.5799 32.8709 30.6699 36.4909 30.6699C40.1109 30.6699 43.0209 33.6199 43.0209 37.1999Z" stroke="#ACB4C9" stroke-width="2" stroke-miterlimit="10"/>
</g>
</svg>
