<svg width="51" height="58" viewBox="0 0 51 58" fill="none" xmlns="http://www.w3.org/2000/svg">
<g clip-path="url(#clip0_2060_1429)">
<path d="M3.1 6.83008H47.73C49.21 6.83008 50.46 8.04008 50.46 9.56008V47.8401C50.46 49.3201 49.25 50.5201 47.78 50.5201H3.14C1.66 50.5201 0.459999 49.3101 0.459999 47.8401V9.56008C0.459999 8.08008 1.67 6.88008 3.14 6.88008L3.1 6.84008V6.83008Z" stroke="#ACB4C9" stroke-width="0.5" stroke-miterlimit="10"/>
<path d="M23.58 20.1599C23.58 23.7799 20.63 26.6899 17.05 26.6899C13.47 26.6899 10.52 23.7399 10.52 20.1599C10.52 16.5799 13.43 13.6299 17.05 13.6299C20.67 13.6299 23.58 16.5399 23.58 20.1599Z" stroke="#ACB4C9" stroke-width="0.5" stroke-miterlimit="10"/>
<path d="M41.52 20.1599C41.52 23.7799 38.57 26.6899 34.99 26.6899C31.41 26.6899 28.46 23.7399 28.46 20.1599C28.46 16.5799 31.37 13.6299 34.99 13.6299C38.61 13.6299 41.52 16.5399 41.52 20.1599Z" stroke="#ACB4C9" stroke-width="0.5" stroke-miterlimit="10"/>
<path d="M23.58 37.1999C23.58 40.8199 20.63 43.7299 17.05 43.7299C13.47 43.7299 10.52 40.8199 10.52 37.1999C10.52 33.5799 13.43 30.6699 17.05 30.6699C20.67 30.6699 23.58 33.6199 23.58 37.1999Z" stroke="#ACB4C9" stroke-width="0.5" stroke-miterlimit="10"/>
<path d="M41.52 37.1999C41.52 40.8199 38.57 43.7299 34.99 43.7299C31.41 43.7299 28.46 40.8199 28.46 37.1999C28.46 33.5799 31.37 30.6699 34.99 30.6699C38.61 30.6699 41.52 33.6199 41.52 37.1999Z" stroke="#ACB4C9" stroke-width="0.5" stroke-miterlimit="10"/>
</g>
<defs>
<clipPath id="clip0_2060_1429">
<rect width="50.9" height="57.3" fill="white"/>
</clipPath>
</defs>
</svg>
