<?xml version="1.0" encoding="UTF-8"?>
<svg id="Photo" xmlns="http://www.w3.org/2000/svg" viewBox="0 0 50.9 57.3">
  <defs>
    <style>
      .cls-1 {
        fill: #acb4c9;
      }
    </style>
  </defs>
  <path class="cls-1" d="M48.92,46.35H1.08c-.62,0-1.08-.51-1.08-1.08V11.78c0-.62.51-1.08,1.08-1.08h47.85c.62,0,1.08.51,1.08,1.08v33.49c0,.62-.51,1.08-1.08,1.08M39.79,44.19h7.95v-10.62l-9.44-9.44-9.28,9.28,10.77,10.77h0ZM2.15,44.19h34.56l-20.36-20.36c-2.31,1.54-9.49,6.26-14.21,9.33v11.03ZM16.56,21.32c.26,0,.56.1.77.31l10.21,10.21,10.05-10.05c.46-.46,1.08-.46,1.54,0l8.67,8.67V12.81H2.21v17.69c5.69-3.69,13.64-9.03,13.79-9.08.15-.1.36-.15.62-.15M27.69,25.78c-2.51,0-4.56-2.05-4.56-4.56s2.05-4.56,4.56-4.56,4.56,2.05,4.56,4.56-2.05,4.56-4.56,4.56M27.69,18.86c-1.33,0-2.36,1.03-2.36,2.36s1.03,2.36,2.36,2.36,2.36-1.03,2.36-2.36-1.03-2.36-2.36-2.36"/>
</svg>