<?xml version="1.0" encoding="UTF-8"?>
<svg id="Promotion" xmlns="http://www.w3.org/2000/svg" viewBox="0 0 50.9 57.3">
  <defs>
    <style>
      .cls-1 {
        fill: #acb4c9;
      }
    </style>
  </defs>
  <path class="cls-1" d="M50.2,17.81l-1.37-3.83.17-1.03c.29-1.54-.23-3.2-1.37-4.29l-2.98-2.97,3.66-3.66c.34-.34.34-.92,0-1.26s-.92-.34-1.26,0l-3.66,3.66-2.98-2.97c-1.14-1.14-2.75-1.66-4.29-1.37l-8.24,1.43c-.97.17-1.89.63-2.57,1.37L1.91,26.28C.02,28.17.02,31.26,1.91,33.2l10.53,10.53-.52,1.83c-.74,2.63.8,5.44,3.49,6.12l19.68,5.44c2.69.74,5.44-.86,6.12-3.49l9.1-32.84c.29-.97.23-2-.11-2.97M3.17,27.6L26.57,4.2c.46-.46,1.03-.74,1.66-.86l8.24-1.49c1.03-.17,2,.17,2.75.86l2.98,2.97-2.63,2.63c-1.09-.51-2.46-.34-3.32.51-1.14,1.14-1.14,2.97,0,4.06,1.14,1.14,2.98,1.14,4.06,0,.92-.92,1.09-2.23.52-3.32l2.57-2.57,2.98,2.97c.69.69,1.03,1.72.86,2.69l-1.43,8.24c-.11.63-.4,1.2-.86,1.66l-23.4,23.4c-1.14,1.14-3.2,1.14-4.35,0L3.17,31.94c-1.2-1.2-1.2-3.15,0-4.35M39.04,10.09c.4.4.4,1.09,0,1.54-.4.4-1.09.4-1.54,0-.4-.4-.4-1.14,0-1.54.46-.46,1.14-.46,1.54,0M48.59,20.39l-9.1,32.84c-.46,1.72-2.23,2.69-3.95,2.23l-19.68-5.44c-1.72-.46-2.69-2.23-2.23-3.95l.23-.86,2.06,2c1.89,1.89,4.98,1.89,6.92,0l23.4-23.4c.69-.69,1.2-1.6,1.37-2.57l.63-3.66.29.86c.23.63.23,1.32.06,1.95"/>
  <path class="cls-1" d="M31.43,26.28c0-.51-.4-.92-.92-.92h-15.28c-.52,0-.92.4-.92.92s.4.92.92.92h15.28c.52,0,.92-.4.92-.92"/>
  <path class="cls-1" d="M19.82,29.43c-1.03,1.03-1.03,2.69,0,3.72s2.69,1.03,3.72,0c1.03-1.03,1.03-2.69,0-3.72-.97-.97-2.75-.97-3.72,0M22.28,31.89h0c-.29.34-.86.34-1.2,0s-.34-.86,0-1.2.86-.34,1.2,0,.34.86,0,1.2"/>
  <path class="cls-1" d="M25.94,23.08h0c1.03-1.03,1.03-2.69,0-3.72s-2.69-1.03-3.72,0c-1.03,1.03-1.03,2.69,0,3.72s2.69,1.03,3.72,0M23.48,20.62c.34-.34.86-.34,1.2,0s.34.86,0,1.2c-.29.29-.86.29-1.2,0-.34-.34-.34-.86,0-1.2"/>
</svg>