<?xml version="1.0" encoding="UTF-8"?>
<svg id="Scan" xmlns="http://www.w3.org/2000/svg" viewBox="0 0 50.9 57.3">
  <defs>
    <style>
      .cls-1 {
        fill: #acb4c9;
      }

      .cls-2 {
        fill: none;
        stroke: #acb4c9;
        stroke-miterlimit: 10;
        stroke-width: .5px;
      }
    </style>
  </defs>
  <path class="cls-2" d="M17.75,23.62c0-4.02,3.22-7.24,7.24-7.24s7.24,3.22,7.24,7.24-3.22,7.24-7.24,7.24-7.24-3.22-7.24-7.24Z"/>
  <path class="cls-2" d="M20.23,29.05l-7.71,9.12c-.94,1.07-.13,2.82,1.27,2.82h23.32c1.47,0,2.21-1.68,1.34-2.82l-7.71-9.12"/>
  <path class="cls-1" d="M2.34,19.8c1.01,0,1.81-.8,1.81-1.81v-8.91c0-1.01.8-1.81,1.81-1.81h9.79c1.01,0,1.81-.8,1.81-1.81s-.8-1.74-1.81-1.74H5.96C3.01,3.72.6,6.13.6,9.08v8.91c0,1.01.8,1.81,1.81,1.81"/>
  <path class="cls-1" d="M45.03,3.78h-9.79c-1.01,0-1.81.8-1.81,1.81s.8,1.81,1.81,1.81h9.79c1.01,0,1.81.8,1.81,1.81v8.91c0,1.01.8,1.74,1.81,1.74s1.81-.8,1.81-1.74v-8.91c0-2.95-2.41-5.36-5.36-5.36"/>
  <path class="cls-1" d="M48.58,37.56c-1.01,0-1.81.8-1.81,1.81v8.91c0,1.01-.8,1.81-1.81,1.81h-9.79c-1.01,0-1.81.8-1.81,1.81s.8,1.74,1.81,1.74h9.79c2.95,0,5.36-2.41,5.36-5.36v-8.91c0-1.01-.8-1.81-1.81-1.81"/>
  <path class="cls-1" d="M15.68,50.03H5.89c-1.01,0-1.81-.8-1.81-1.81v-8.91c0-1.01-.8-1.81-1.81-1.81s-1.81.8-1.81,1.81v8.91c0,2.95,2.41,5.36,5.36,5.36h9.79c1.01,0,1.81-.8,1.81-1.81s-.8-1.81-1.81-1.81"/>
  <path class="cls-1" d="M48.58,26.9H2.34c-1.01,0-1.81.8-1.81,1.81s.8,1.81,1.81,1.81h46.25c1.01,0,1.81-.8,1.81-1.81s-.8-1.81-1.81-1.81"/>
</svg>