<?xml version="1.0" encoding="UTF-8"?>
<svg id="Layer_1" data-name="Layer 1" xmlns="http://www.w3.org/2000/svg" viewBox="0 0 200 200">
  <defs>
    <style>
      .cls-1 {
        fill: #fff;
      }
    </style>
  </defs>
  <path class="cls-1" d="M138.1,151.29c-1.92-.65-4,.37-4.65,2.29,0,0,0,.01,0,.02-.26,.8-.55,1.61-.88,2.38-.79,1.86,.08,4.01,1.94,4.8,.45,.2,.94,.3,1.43,.29,1.47,0,2.8-.88,3.37-2.23,.4-.99,.77-1.94,1.1-2.9,.65-1.91-.37-4-2.29-4.65,0,0-.01,0-.02,0"/>
  <path class="cls-1" d="M147.63,92.67c.03-12.82-5.14-25.1-14.32-34.04-1.46-1.41-3.79-1.38-5.2,.07-1.42,1.46-1.38,3.79,.07,5.2,7.79,7.54,12.17,17.92,12.13,28.76v22.79c.02,9.42-1.22,18.79-3.67,27.88-.53,1.95,.62,3.97,2.57,4.5,.01,0,.02,0,.03,0h.95c1.7,.06,3.22-1.06,3.66-2.71,2.52-9.73,3.75-19.74,3.66-29.79l.11-22.68Z"/>
  <path class="cls-1" d="M46.62,138.83c.97,0,1.91-.38,2.6-1.06l2.13-2.16c5.35-5.34,8.36-12.59,8.35-20.15v-22.79c-.02-22.25,18.01-40.31,40.27-40.33,6.03,0,11.99,1.35,17.43,3.95,1.76,1,4,.39,5-1.37,1-1.76,.38-4-1.37-5-.15-.09-.31-.16-.47-.23-23.73-11.35-52.17-1.32-63.52,22.41-3.07,6.42-4.67,13.44-4.66,20.56v22.79c.01,5.63-2.23,11.03-6.23,14.99l-2.13,2.12c-1.43,1.42-1.44,3.74-.02,5.18,0,0,.01,.01,.02,.02,.69,.69,1.63,1.07,2.6,1.06Z"/>
  <path class="cls-1" d="M132.97,103.66c0-2.02-1.64-3.66-3.66-3.66s-3.66,1.64-3.66,3.66v11.8c.04,17.88-5.05,35.4-14.66,50.48-1.09,1.7-.6,3.96,1.1,5.06,.59,.38,1.28,.58,1.98,.59,1.25,0,2.41-.64,3.08-1.69,10.37-16.26,15.87-35.15,15.83-54.44v-11.8Z"/>
  <path class="cls-1" d="M70.69,107.33c2.02,0,3.66-1.64,3.66-3.66v-10.99c-.88-14.16,9.89-26.36,24.05-27.24,14.16-.88,26.36,9.89,27.24,24.05,.26,2.02,2.12,3.45,4.14,3.19,2.03-.26,3.45-2.12,3.19-4.14-1.14-18.21-16.83-32.04-35.04-30.9-18.21,1.14-32.04,16.83-30.9,35.04v10.99c0,2.02,1.64,3.66,3.66,3.66"/>
  <path class="cls-1" d="M70.69,114.65c-2.02-.15-3.77,1.37-3.92,3.39v.02c-.62,8.59-4.31,16.67-10.4,22.75l-4.43,4.62c-1.53,1.33-1.69,3.64-.36,5.17,1.33,1.53,3.64,1.69,5.17,.36,.14-.12,.27-.26,.4-.4l4.58-4.58c7.38-7.31,11.87-17.04,12.64-27.4,.14-2.02-1.38-3.77-3.4-3.91-.09,0-.18-.01-.27-.01"/>
  <path class="cls-1" d="M113.59,129.31c-1.98-.41-3.92,.87-4.32,2.86h0c-2.72,12.92-8.62,24.94-17.18,34.99-1.32,1.54-1.13,3.85,.4,5.17,1.54,1.32,3.85,1.13,5.17-.4,9.35-10.99,15.81-24.13,18.79-38.25,.43-1.98-.83-3.93-2.81-4.35-.01,0-.03,0-.04-.01"/>
  <path class="cls-1" d="M89.01,92.67c0-6.07,4.92-10.99,10.99-10.99s10.99,4.92,10.99,10.99v25.35c-.16,2.02,1.35,3.79,3.37,3.96,2.02,.16,3.79-1.35,3.96-3.37v-25.94c0-10.12-8.2-18.32-18.32-18.32s-18.32,8.2-18.32,18.32v22.79c.12,13.43-5.16,26.34-14.66,35.83-1.44,1.42-1.45,3.74-.02,5.18,0,0,.01,.01,.02,.02,1.42,1.44,3.74,1.44,5.18,.02,.01,0,.02-.01,.02-.02,10.85-10.88,16.9-25.66,16.78-41.03v-22.79Z"/>
  <path class="cls-1" d="M80.4,158.14c-.99,1.17-2.05,2.27-3.15,3.37-1.44,1.42-1.45,3.75-.02,5.18,.01,0,.02,.01,.02,.02,1.42,1.44,3.74,1.45,5.18,.02,.01,0,.02-.02,.02-.02,1.25-1.25,2.38-2.49,3.66-3.66,1.32-1.54,1.13-3.85-.4-5.17-1.54-1.32-3.85-1.13-5.17,.4l-.15-.15Z"/>
  <path class="cls-1" d="M92.67,153.82c7.19-11.5,11.01-24.79,10.99-38.36v-22.79c0-2.02-1.64-3.66-3.67-3.66s-3.66,1.64-3.66,3.66v22.79c.02,12.19-3.41,24.14-9.89,34.48-1.07,1.72-.55,3.98,1.17,5.05,1.72,1.07,3.98,.55,5.06-1.17"/>
  <path class="cls-1" d="M50.87,60.43c1.61,1.23,3.91,.92,5.13-.69,.01-.01,.02-.03,.03-.04,18.21-24.28,52.65-29.2,76.93-10.99,13.84,10.38,21.98,26.67,21.98,43.97v18.32c0,2.02,1.64,3.66,3.66,3.66s3.66-1.64,3.66-3.66v-18.32c.03-34.4-27.83-62.3-62.23-62.33-19.64-.02-38.14,9.24-49.91,24.96-1.22,1.62-.88,3.91,.73,5.13"/>
  <path class="cls-1" d="M45.05,92.67c0-7.26,1.43-14.46,4.21-21.17,.59-1.94-.5-3.98-2.44-4.57-1.68-.51-3.48,.24-4.3,1.79-3.18,7.59-4.81,15.73-4.8,23.96v18.32c0,2.02,1.64,3.66,3.66,3.66s3.66-1.64,3.66-3.66v-18.32Z"/>
  <path class="cls-1" d="M8.41,52.37c2.02,0,3.66-1.64,3.66-3.66V12.07H48.71c2.03,0,3.66-1.64,3.66-3.66s-1.64-3.67-3.66-3.67H8.41c-2.02,0-3.66,1.64-3.66,3.67V48.71c0,2.02,1.64,3.66,3.66,3.66"/>
  <path class="cls-1" d="M191.59,4.75h-40.3c-2.03,0-3.66,1.64-3.66,3.66s1.64,3.66,3.66,3.66h36.64V48.71c0,2.03,1.64,3.67,3.66,3.67s3.66-1.64,3.66-3.67V8.41c0-2.02-1.64-3.66-3.66-3.66"/>
  <path class="cls-1" d="M191.59,147.63c-2.02,0-3.66,1.64-3.66,3.66v36.64h-36.64c-2.03,0-3.66,1.64-3.66,3.66s1.64,3.67,3.66,3.67h40.3c2.02,0,3.66-1.64,3.66-3.67v-40.3c0-2.02-1.64-3.66-3.66-3.66"/>
  <path class="cls-1" d="M48.71,187.93H12.07v-36.64c0-2.02-1.64-3.66-3.66-3.66s-3.66,1.64-3.66,3.66v40.3c0,2.03,1.64,3.66,3.66,3.66H48.71c2.02,0,3.66-1.64,3.66-3.66s-1.64-3.66-3.66-3.66"/>
</svg>