<svg width="46" height="46" viewBox="0 0 46 46" fill="none" xmlns="http://www.w3.org/2000/svg">
<g clip-path="url(#clip0_944_715)">
<path d="M26.437 7.72869C25.0774 8.32736 23.8139 9.06625 22.6464 9.94536C21.4789 10.8245 20.423 11.8279 19.4787 12.9556C21.3869 12.24 23.3259 12.1054 25.2959 12.5519C27.2659 12.9983 28.9829 13.9352 30.4467 15.3624C31.7833 16.6655 32.6861 18.1587 33.1553 19.8421C33.6245 21.5255 33.7291 23.2646 33.469 25.0594C33.2088 26.8542 32.6224 28.6334 31.7098 30.3972C30.7971 32.1609 29.6271 33.7747 28.1999 35.2386C27.2226 36.241 26.1893 37.1655 25.1 38.0122C24.0107 38.8589 22.8336 39.5967 21.5686 40.2256L19.5638 38.271C20.9075 37.6568 22.1671 36.914 23.3425 36.0427C24.5179 35.1713 25.5778 34.1718 26.5221 33.0441C24.6139 33.7597 22.6749 33.8943 20.7049 33.4478C18.7349 33.0013 17.0179 32.0645 15.5541 30.6373C14.2176 29.3342 13.3147 27.8409 12.8455 26.1575C12.3763 24.4741 12.2717 22.7351 12.5319 20.9403C12.792 19.1455 13.3784 17.3662 14.2911 15.6025C15.2037 13.8387 16.3737 12.2249 17.8009 10.7611C18.7782 9.75865 19.8115 8.83411 20.9008 7.98742C21.9901 7.14073 23.1672 6.40294 24.4322 5.77404L26.437 7.72869ZM28.5851 17.2717C26.994 15.7204 25.0986 14.9587 22.8989 14.9866C20.6991 15.0145 18.8236 15.824 17.2723 17.4151C15.721 19.0062 14.9593 20.9017 14.9872 23.1014C15.015 25.3011 15.8245 27.1766 17.4157 28.7279C19.0068 30.2792 20.9022 31.0409 23.1019 31.0131C25.3017 30.9852 27.1772 30.1757 28.7285 28.5845C30.2798 26.9934 31.0415 25.098 31.0136 22.8983C30.9858 20.6986 30.1763 18.8231 28.5851 17.2717ZM26.7236 19.1811C25.6734 18.1572 24.4099 17.6547 22.9329 17.6734C21.456 17.6921 20.2056 18.2265 19.1817 19.2767C18.1578 20.3268 17.6552 21.5904 17.674 23.0673C17.6927 24.5443 18.2271 25.7947 19.2773 26.8185C20.3274 27.8424 21.591 28.345 23.0679 28.3263C24.5448 28.3076 25.7953 27.7731 26.8191 26.723C27.843 25.6728 28.3456 24.4093 28.3268 22.9323C28.3081 21.4554 27.7737 20.205 26.7236 19.1811ZM24.862 21.0905C25.3871 21.6024 25.6543 22.2276 25.6636 22.9661C25.673 23.7046 25.4217 24.3363 24.9098 24.8614C24.3978 25.3865 23.7726 25.6537 23.0342 25.663C22.2957 25.6724 21.6639 25.4211 21.1388 24.9092C20.6138 24.3973 20.3465 23.772 20.3372 23.0336C20.3278 22.2951 20.5791 21.6633 21.091 21.1383C21.603 20.6132 22.2282 20.346 22.9667 20.3366C23.7051 20.3272 24.3369 20.5785 24.862 21.0905Z" fill="#F86064"/>
</g>
<defs>
<clipPath id="clip0_944_715">
<rect width="32" height="32" fill="white" transform="translate(23.2871 45.6255) rotate(-135.726)"/>
</clipPath>
</defs>
</svg>
