<svg width="51" height="58" viewBox="0 0 51 58" fill="none" xmlns="http://www.w3.org/2000/svg">
<g clip-path="url(#clip0_2067_1499)">
<path d="M39.1802 27.7102C41.5202 26.1902 43.0802 23.5502 43.0802 20.5402C43.0802 15.8202 39.2502 11.9502 34.4902 11.9502C29.7302 11.9502 25.9402 15.7802 25.9402 20.5402C25.9402 23.5502 27.5002 26.1902 29.8402 27.7102C28.0902 28.2702 26.4602 29.1202 25.0102 30.2402C23.5602 29.1202 21.9202 28.2302 20.1802 27.7102C22.5202 26.1902 24.0802 23.5502 24.0802 20.5402C24.0802 15.8202 20.2502 11.9502 15.4902 11.9502C10.7302 11.9502 6.94023 15.7802 6.94023 20.5402C6.94023 23.5502 8.50023 26.1902 10.8402 27.7102C4.56023 29.6802 -0.00976562 35.5502 -0.00976562 42.5102V43.9602C-0.00976562 44.5502 0.470234 45.1102 1.07023 45.1102H48.9102C49.5002 45.1102 49.9902 44.5502 49.9902 43.9602V42.5102C49.9902 35.6002 45.4202 29.6802 39.1402 27.7102M28.5 20.5402C28.5 17.0102 31.0002 14.5 34.5302 14.5C38.0602 14.5 40.5 17.0102 40.5 20.5402C40.5 24.0702 38.0602 26.5 34.5302 26.5C31.0002 26.5 28.5 24.0702 28.5 20.5402ZM9.5 20.5C9.5 16.97 12.0102 14.5 15.5402 14.5C19.0702 14.5 21.5 16.97 21.5 20.5C21.5 24.03 19.03 26.5 15.5 26.5C11.97 26.5 9.5 24.03 9.5 20.5ZM2.23023 42.5002C2.23023 35.1402 8.22023 29.5 15.5402 29.5C22.8602 29.5 28.8502 35.2102 28.8502 42.5002H2.23023ZM47.8402 42.5102L31 42.5C30.96 42.28 31.4902 36.7402 26.6902 31.7202C28.9602 30.0502 31.7102 29.5 34.5302 29.5C41.8902 29.5 47.8402 35.1402 47.8402 42.4602V42.5102Z" fill="#ACB4C9"/>
</g>
<defs>
<clipPath id="clip0_2067_1499">
<rect width="50.9" height="57.3" fill="white"/>
</clipPath>
</defs>
</svg>
