<svg width="32" height="32" viewBox="0 0 32 32" fill="none" xmlns="http://www.w3.org/2000/svg">
<path d="M5.66667 26.3333C4.93333 26.3333 4.30556 26.0722 3.78333 25.55C3.26111 25.0278 3 24.4 3 23.6667V7.66667C3 6.93333 3.26111 6.30556 3.78333 5.78333C4.30556 5.26111 4.93333 5 5.66667 5H11L16.3333 4.99996L21.6667 5H27C27.7333 5 28.3611 5.26111 28.8833 5.78333C29.4056 6.30556 29.6667 6.93333 29.6667 7.66667V23.6667C29.6667 24.4 29.4056 25.0278 28.8833 25.55C28.3611 26.0722 27.7333 26.3333 27 26.3333H5.66667ZM5.66667 23.6667H27V7.66667H5.66667V23.6667ZM8.33333 21H24.3333L19.3333 14.3333L15.3333 19.6667L12.3333 15.6667L8.33333 21ZM23.6667 14.3333C24.2222 14.3333 24.6944 14.1389 25.0833 13.75C25.4722 13.3611 25.6667 12.8889 25.6667 12.3333C25.6667 11.7778 25.4722 11.3056 25.0833 10.9167C24.6944 10.5278 24.2222 10.3333 23.6667 10.3333C23.1111 10.3333 22.6389 10.5278 22.25 10.9167C21.8611 11.3056 21.6667 11.7778 21.6667 12.3333C21.6667 12.8889 21.8611 13.3611 22.25 13.75C22.6389 14.1389 23.1111 14.3333 23.6667 14.3333ZM13.8 5H18.8667L16.3333 4.99996L13.8 5Z" fill="#F86064"/>
</svg>
