<?xml version="1.0" encoding="UTF-8"?>
<svg id="wallet" xmlns="http://www.w3.org/2000/svg" viewBox="0 0 50.9 57.3">
  <defs>
    <style>
      .cls-1 {
        fill: #acb4c9;
        fill-rule: evenodd;
      }
    </style>
  </defs>
  <path class="cls-1" d="M50,23.42c0-1.87-.74-3.65-2.07-4.98-1.33-1.33-3.1-2.07-4.98-2.07H7.04c-1.87,0-3.65.74-4.98,2.07-1.33,1.33-2.07,3.1-2.07,4.98v25.67c0,1.87.74,3.65,2.07,4.98,1.33,1.33,3.1,2.07,4.98,2.07h35.91c1.87,0,3.65-.74,4.98-2.07,1.33-1.33,2.07-3.1,2.07-4.98v-25.67ZM46.16,23.42v25.67c0,.84-.34,1.67-.94,2.27s-1.43.94-2.27.94H7.04c-.84,0-1.68-.34-2.27-.94s-.94-1.43-.94-2.27v-25.67c0-.84.34-1.67.94-2.27s1.43-.94,2.27-.94h35.91c.84,0,1.68.34,2.27.94s.94,1.43.94,2.27"/>
  <path class="cls-1" d="M26.06,10.71l2.46-5.27,12.81,5.96-2.81,6.06c-.44.94,0,2.12.94,2.56.99.44,2.12,0,2.56-.94l3.65-7.78c.44-.99,0-2.12-.94-2.56L28.47,1.15c-.94-.44-2.12,0-2.56.94l-3.25,7.04c-.44.99,0,2.12.94,2.56.99.44,2.12,0,2.56-.94"/>
  <path class="cls-1" d="M10.54,19.08l5.17-11.08,12.76,5.96-1.63,3.5c-.44.94,0,2.12.94,2.56.99.44,2.12,0,2.56-.94l2.46-5.22c.44-.99,0-2.12-.94-2.56L15.62,3.71c-.99-.44-2.12,0-2.56.94l-5.96,12.81c-.44.94,0,2.12.94,2.56.99.44,2.12,0,2.56-.94"/>
  <path class="cls-1" d="M50,28.54c0-1.03-.84-1.92-1.92-1.92h-10.25c-3.89,0-7.04,3.15-7.04,7.04v5.12c0,3.89,3.15,7.04,7.04,7.04h10.25c1.08,0,1.92-.89,1.92-1.92v-15.37h0ZM46.16,30.46v11.53h-8.33c-1.77,0-3.2-1.43-3.2-3.2v-5.12c0-1.77,1.43-3.2,3.2-3.2h8.33Z"/>
  <path class="cls-1" d="M39.11,33.67c1.43,0,2.56,1.13,2.56,2.56s-1.13,2.56-2.56,2.56-2.56-1.13-2.56-2.56,1.13-2.56,2.56-2.56"/>
</svg>