<svg width="25" height="24" viewBox="0 0 25 24" fill="none" xmlns="http://www.w3.org/2000/svg">
<path d="M20.1719 10H4.17188V18C4.17188 21 5.17187 22 8.17187 22H16.1719C19.1719 22 20.1719 21 20.1719 18V10Z" stroke="#464C59" stroke-width="1.5" stroke-miterlimit="10" stroke-linecap="round" stroke-linejoin="round"/>
<path d="M21.7012 7V8C21.7012 9.1 21.1712 10 19.7012 10H4.70117C3.17117 10 2.70117 9.1 2.70117 8V7C2.70117 5.9 3.17117 5 4.70117 5H19.7012C21.1712 5 21.7012 5.9 21.7012 7Z" stroke="#464C59" stroke-width="1.5" stroke-miterlimit="10" stroke-linecap="round" stroke-linejoin="round"/>
<path d="M11.8419 4.99994H6.32193C5.98193 4.62994 5.99193 4.05994 6.35193 3.69994L7.77193 2.27994C8.14193 1.90994 8.75193 1.90994 9.12193 2.27994L11.8419 4.99994Z" stroke="#464C59" stroke-width="1.5" stroke-miterlimit="10" stroke-linecap="round" stroke-linejoin="round"/>
<path d="M18.0708 4.99994H12.5508L15.2708 2.27994C15.6408 1.90994 16.2508 1.90994 16.6208 2.27994L18.0408 3.69994C18.4008 4.05994 18.4108 4.62994 18.0708 4.99994Z" stroke="#464C59" stroke-width="1.5" stroke-miterlimit="10" stroke-linecap="round" stroke-linejoin="round"/>
<path d="M9.14062 10V15.14C9.14062 15.94 10.0206 16.41 10.6906 15.98L11.6306 15.36C11.9706 15.14 12.4006 15.14 12.7306 15.36L13.6206 15.96C14.2806 16.4 15.1706 15.93 15.1706 15.13V10H9.14062Z" stroke="#464C59" stroke-width="1.5" stroke-miterlimit="10" stroke-linecap="round" stroke-linejoin="round"/>
</svg>
