<svg width="25" height="24" viewBox="0 0 25 24" fill="none" xmlns="http://www.w3.org/2000/svg">
<path d="M2.60156 9V6.5C2.60156 4.01 4.61156 2 7.10156 2H9.60156" stroke="#464C59" stroke-width="1.5" stroke-linecap="round" stroke-linejoin="round"/>
<path d="M15.6016 2H18.1016C20.5916 2 22.6016 4.01 22.6016 6.5V9" stroke="#464C59" stroke-width="1.5" stroke-linecap="round" stroke-linejoin="round"/>
<path d="M22.6016 16V17.5C22.6016 19.99 20.5916 22 18.1016 22H16.6016" stroke="#464C59" stroke-width="1.5" stroke-linecap="round" stroke-linejoin="round"/>
<path d="M9.60156 22H7.10156C4.61156 22 2.60156 19.99 2.60156 17.5V15" stroke="#464C59" stroke-width="1.5" stroke-linecap="round" stroke-linejoin="round"/>
<path d="M17.6016 9.5V14.5C17.6016 16.5 16.6016 17.5 14.6016 17.5H10.6016C8.60156 17.5 7.60156 16.5 7.60156 14.5V9.5C7.60156 7.5 8.60156 6.5 10.6016 6.5H14.6016C16.6016 6.5 17.6016 7.5 17.6016 9.5Z" stroke="#464C59" stroke-width="1.5" stroke-linecap="round" stroke-linejoin="round"/>
<path d="M19.6016 12H5.60156" stroke="#464C59" stroke-width="1.5" stroke-linecap="round" stroke-linejoin="round"/>
</svg>
