<svg width="32" height="32" viewBox="0 0 32 32" fill="none" xmlns="http://www.w3.org/2000/svg">
<path d="M11.0111 28.327C11.8737 27.4645 12.3692 26.3633 12.4977 25.2254C12.672 23.7113 12.1673 22.1422 11.0111 20.9859C10.3229 20.2977 9.47864 19.8389 8.58853 19.6278C6.8909 19.1966 5.00974 19.6462 3.66999 20.9859C2.74318 21.9128 2.23848 23.0965 2.17425 24.317C2.12836 24.84 2.17425 25.3814 2.31189 25.9045C2.52295 26.7946 2.98177 27.6388 3.66999 28.327C5.69797 30.355 8.98311 30.355 11.0111 28.327ZM9.28593 23.7022C9.81816 23.7022 10.2586 24.1426 10.2586 24.6748C10.2495 25.2163 9.81816 25.6475 9.27676 25.6567L8.31324 25.6475L8.32241 26.5744C8.31324 27.1158 7.88195 27.5471 7.34054 27.5562C6.79914 27.5471 6.36785 27.1158 6.35867 26.5744L6.36785 25.6475L5.40433 25.6567C4.86292 25.6475 4.43163 25.2163 4.42246 24.6748C4.43163 24.4087 4.54175 24.1701 4.7161 23.9958C4.89045 23.8214 5.12904 23.7113 5.39515 23.7022L6.36785 23.7022L6.36785 22.6928C6.36785 22.4175 6.47796 22.1789 6.65232 22.0045C6.82667 21.8302 7.06525 21.7201 7.34054 21.7201C7.87277 21.7201 8.31324 22.1605 8.31324 22.6927L8.31324 23.7022L9.28593 23.7022Z" fill="url(#paint0_linear_1751_1810)"/>
<path d="M20.1266 5.12951V10.0609H18.18V5.12951C18.18 4.77913 17.8686 4.61042 17.6609 4.61042C17.5961 4.61042 17.5312 4.6234 17.4663 4.64935L7.17524 8.52958C6.48744 8.78913 6.04621 9.43799 6.04621 10.1777V11.0472C4.86527 11.9296 4.09961 13.3442 4.09961 14.9404V10.1777C4.09961 8.6334 5.04696 7.2578 6.48744 6.71275L16.7915 2.81955C17.077 2.71573 17.3754 2.66382 17.6609 2.66382C18.9587 2.66382 20.1266 3.71498 20.1266 5.12951Z" fill="url(#paint1_linear_1751_1810)"/>
<path d="M28.7585 18.8217V20.1195C28.7585 20.4698 28.486 20.7553 28.1226 20.7683H26.2279C25.5401 20.7683 24.9172 20.2622 24.8653 19.5874C24.8264 19.1851 24.9821 18.8087 25.2417 18.5492C25.4752 18.3026 25.7997 18.1729 26.1501 18.1729H28.1096C28.486 18.1858 28.7585 18.4713 28.7585 18.8217Z" fill="url(#paint2_linear_1751_1810)"/>
<path d="M26.1352 16.808H27.4588C28.1726 16.808 28.7566 16.2241 28.7566 15.5103V14.9393C28.7566 12.253 26.5634 10.0598 23.8771 10.0598H8.97909C7.87602 10.0598 6.86379 10.4232 6.04621 11.0461C4.86527 11.9286 4.09961 13.3431 4.09961 14.9393V17.2493C4.09961 17.7424 4.6187 18.0539 5.08589 17.8981C5.81262 17.6516 6.57828 17.5218 7.34395 17.5218C11.2761 17.5218 14.4815 20.7272 14.4815 24.6593C14.4815 25.5937 14.2349 26.6189 13.8456 27.5273C13.638 27.9945 13.9624 28.5525 14.4685 28.5525H23.8771C26.5634 28.5525 28.7566 26.3594 28.7566 23.6731V23.4265C28.7566 22.7127 28.1726 22.1287 27.4588 22.1287H26.3298C25.084 22.1287 23.8901 21.3631 23.5656 20.1562C23.3061 19.1699 23.6175 18.2096 24.2664 17.5867C24.7466 17.0935 25.4084 16.808 26.1352 16.808ZM19.0236 16.5485H12.5349C12.0028 16.5485 11.5616 16.1073 11.5616 15.5752C11.5616 15.0431 12.0028 14.6019 12.5349 14.6019H19.0236C19.5556 14.6019 19.9969 15.0431 19.9969 15.5752C19.9969 16.1073 19.5556 16.5485 19.0236 16.5485Z" fill="url(#paint3_linear_1751_1810)"/>
<defs>
<linearGradient id="paint0_linear_1751_1810" x1="11.0111" y1="28.327" x2="3.66999" y2="20.9859" gradientUnits="userSpaceOnUse">
<stop stop-color="#EAC71F"/>
<stop offset="1" stop-color="#D4517C"/>
</linearGradient>
<linearGradient id="paint1_linear_1751_1810" x1="12.1131" y1="2.66382" x2="12.1131" y2="14.9404" gradientUnits="userSpaceOnUse">
<stop stop-color="#EAC71F"/>
<stop offset="1" stop-color="#D4517C"/>
</linearGradient>
<linearGradient id="paint2_linear_1751_1810" x1="26.8089" y1="18.1729" x2="26.8089" y2="20.7683" gradientUnits="userSpaceOnUse">
<stop stop-color="#EAC71F"/>
<stop offset="1" stop-color="#D4517C"/>
</linearGradient>
<linearGradient id="paint3_linear_1751_1810" x1="16.4281" y1="10.0598" x2="16.4281" y2="28.5525" gradientUnits="userSpaceOnUse">
<stop stop-color="#EAC71F"/>
<stop offset="1" stop-color="#D4517C"/>
</linearGradient>
</defs>
</svg>
