<svg width="50" height="50" viewBox="0 0 50 50" fill="none" xmlns="http://www.w3.org/2000/svg">
<g clip-path="url(#clip0_2163_1557)">
<path d="M25.2017 49.6901C38.8376 49.6901 49.8917 38.636 49.8917 25.0001C49.8917 11.3641 38.8376 0.310059 25.2017 0.310059C11.5658 0.310059 0.511719 11.3641 0.511719 25.0001C0.511719 38.636 11.5658 49.6901 25.2017 49.6901Z" fill="url(#paint0_linear_2163_1557)"/>
<mask id="mask0_2163_1557" style="mask-type:luminance" maskUnits="userSpaceOnUse" x="0" y="0" width="50" height="50">
<path d="M25.2017 49.6901C38.8376 49.6901 49.8917 38.636 49.8917 25.0001C49.8917 11.3641 38.8376 0.310059 25.2017 0.310059C11.5658 0.310059 0.511719 11.3641 0.511719 25.0001C0.511719 38.636 11.5658 49.6901 25.2017 49.6901Z" fill="white"/>
</mask>
<g mask="url(#mask0_2163_1557)">
<path d="M54.0025 13.75H46.7025C45.6825 13.75 44.7125 14.15 43.9925 14.87L29.7125 29.15C28.1525 30.71 25.8625 31.25 23.6225 30.46C23.5725 30.44 23.5125 30.42 23.4625 30.39C19.5425 28.6 18.9325 23.8 21.6525 21.08C23.8725 18.86 27.4925 18.86 29.7125 21.08L30.8025 22.17C31.6225 22.99 32.9525 22.99 33.7725 22.17L36.2425 19.7L33.6625 17.12C29.2525 12.71 22.0825 12.71 17.6825 17.12C13.2725 21.53 13.2725 28.7 17.6825 33.1C19.5925 35.01 22.0625 36.15 24.7225 36.37H26.6125C29.2725 36.15 31.7425 35.01 33.6525 33.1L37.6725 29.08C38.9125 30.43 44.0025 35.4 44.0025 35.4C44.5125 35.91 45.3525 36.38 46.3525 36.38H53.8725L42.9025 25.4L42.6225 25.12L42.9225 24.82L54.0025 13.75Z" fill="white"/>
</g>
<mask id="mask1_2163_1557" style="mask-type:luminance" maskUnits="userSpaceOnUse" x="0" y="0" width="50" height="50">
<path d="M25.2017 49.6901C38.8376 49.6901 49.8917 38.636 49.8917 25.0001C49.8917 11.3641 38.8376 0.310059 25.2017 0.310059C11.5658 0.310059 0.511719 11.3641 0.511719 25.0001C0.511719 38.636 11.5658 49.6901 25.2017 49.6901Z" fill="white"/>
</mask>
<g mask="url(#mask1_2163_1557)">
<path d="M13.9202 41.8301C15.7206 41.8301 17.1802 40.3705 17.1802 38.5701C17.1802 36.7696 15.7206 35.3101 13.9202 35.3101C12.1197 35.3101 10.6602 36.7696 10.6602 38.5701C10.6602 40.3705 12.1197 41.8301 13.9202 41.8301Z" fill="white"/>
</g>
</g>
<defs>
<linearGradient id="paint0_linear_2163_1557" x1="0.508919" y1="25.0001" x2="49.8975" y2="25.0001" gradientUnits="userSpaceOnUse">
<stop stop-color="#D72A08"/>
<stop offset="1" stop-color="#E98A78"/>
</linearGradient>
<clipPath id="clip0_2163_1557">
<rect width="50" height="50" fill="white"/>
</clipPath>
</defs>
</svg>
