<svg width="50" height="50" viewBox="0 0 50 50" fill="none" xmlns="http://www.w3.org/2000/svg">
<path d="M41.6392 22.73C41.6292 22.72 41.6292 22.72 41.6392 22.73L26.9992 8.09C26.3792 7.47 25.5492 7.12 24.6592 7.12C23.7692 7.12 22.9492 7.46 22.3192 8.09L7.69922 22.72C7.69922 22.72 7.68922 22.73 7.68922 22.74C6.40922 24.03 6.40922 26.12 7.69922 27.4C8.28922 27.99 9.05922 28.33 9.88922 28.36C9.91922 28.36 9.95922 28.36 9.98922 28.36H10.5692V39.13C10.5692 41.26 12.2992 42.99 14.4392 42.99H20.1592C20.7392 42.99 21.2092 42.52 21.2092 41.94V33.5C21.2092 32.53 21.9992 31.74 22.9692 31.74H26.3492C27.3192 31.74 28.1092 32.53 28.1092 33.5V41.94C28.1092 42.52 28.5792 42.99 29.1592 42.99H34.8792C37.0092 42.99 38.7492 41.26 38.7492 39.13V28.36H39.2892C40.1692 28.36 40.9992 28.02 41.6292 27.39C42.9192 26.11 42.9192 24.01 41.6392 22.73Z" fill="url(#paint0_linear_2163_1543)"/>
<defs>
<linearGradient id="paint0_linear_2163_1543" x1="-17.2491" y1="25.0591" x2="515.686" y2="25.0591" gradientUnits="userSpaceOnUse">
<stop stop-color="#D62300"/>
<stop offset="1" stop-color="#FF8732"/>
</linearGradient>
</defs>
</svg>
