<svg width="50" height="50" viewBox="0 0 50 50" fill="none" xmlns="http://www.w3.org/2000/svg">
<path d="M40.7589 13.56H36.1989C36.8989 12.62 37.3189 11.46 37.3189 10.2C37.3189 7.10998 34.8089 4.59998 31.7189 4.59998C29.8589 4.59998 28.4889 5.26998 27.3989 6.69998C26.4889 7.89998 25.8289 9.56998 24.9989 11.68C24.1689 9.56998 23.4989 7.89998 22.5989 6.69998C21.5089 5.26998 20.1389 4.59998 18.2789 4.59998C15.1889 4.59998 12.6789 7.10998 12.6789 10.2C12.6789 11.46 13.0989 12.62 13.7989 13.56H9.23891C7.38891 13.56 5.87891 15.07 5.87891 16.92V19.16C5.87891 20.62 6.81891 21.87 8.11891 22.33V39.48C8.11891 41.33 9.62891 42.84 11.4789 42.84H38.5189C40.3689 42.84 41.8789 41.33 41.8789 39.48V22.33C43.1789 21.87 44.1189 20.62 44.1189 19.16V16.92C44.1189 15.06 42.6089 13.56 40.7589 13.56ZM27.0589 12.57C28.7789 8.21998 29.4289 6.83998 31.7289 6.83998C33.5789 6.83998 35.0889 8.34998 35.0889 10.2C35.0889 12.05 33.5789 13.56 31.7289 13.56H26.6689C26.7989 13.21 26.9289 12.88 27.0589 12.57ZM18.2789 6.82998C20.5789 6.82998 21.2289 8.20998 22.9489 12.56C23.0689 12.87 23.1989 13.21 23.3389 13.55H18.2789C16.4289 13.55 14.9189 12.04 14.9189 10.19C14.9189 8.33998 16.4289 6.82998 18.2789 6.82998ZM20.5189 40.59H11.4789C10.8589 40.59 10.3589 40.09 10.3589 39.47V22.52H20.5189V40.59ZM20.5189 20.28H9.23891C8.61891 20.28 8.11891 19.78 8.11891 19.16V16.92C8.11891 16.3 8.61891 15.8 9.23891 15.8H20.5189V20.28ZM27.2389 40.59H22.7589V15.8C22.9889 15.8 25.9489 15.8 27.2389 15.8V40.59ZM39.6389 39.47C39.6389 40.09 39.1389 40.59 38.5189 40.59H29.4789V22.52H39.6389V39.47ZM41.8789 19.16C41.8789 19.78 41.3789 20.28 40.7589 20.28H29.4789V15.8H40.7589C41.3789 15.8 41.8789 16.3 41.8789 16.92V19.16Z" fill="url(#paint0_linear_2163_1568)"/>
<defs>
<linearGradient id="paint0_linear_2163_1568" x1="-467.131" y1="23.7134" x2="58.7513" y2="23.7134" gradientUnits="userSpaceOnUse">
<stop stop-color="#D62300"/>
<stop offset="1" stop-color="#FF8732"/>
</linearGradient>
</defs>
</svg>
