<svg width="50" height="50" viewBox="0 0 50 50" fill="none" xmlns="http://www.w3.org/2000/svg">
<path d="M9.54031 18.9901C10.2103 18.9901 10.7503 18.4501 10.7503 17.7801V11.7001C10.7503 11.0301 11.2903 10.4901 11.9603 10.4901H18.6403C19.3103 10.4901 19.8503 9.95007 19.8503 9.28007C19.8503 8.61007 19.3103 8.07007 18.6403 8.07007H11.9603C9.95031 8.07007 8.32031 9.70007 8.32031 11.7101V17.7801C8.32031 18.4401 8.87031 18.9901 9.54031 18.9901Z" fill="url(#paint0_linear_2163_1572)"/>
<path d="M37.9017 8.06006H31.2217C30.5517 8.06006 30.0117 8.60006 30.0117 9.27006C30.0117 9.94006 30.5517 10.4801 31.2217 10.4801H37.9017C38.5717 10.4801 39.1117 11.0201 39.1117 11.6901V17.7601C39.1117 18.4301 39.6517 18.9701 40.3217 18.9701C40.9917 18.9701 41.5317 18.4301 41.5317 17.7601V11.7001C41.5417 9.69006 39.9117 8.06006 37.9017 8.06006Z" fill="url(#paint1_linear_2163_1572)"/>
<path d="M40.3295 31.13C39.6595 31.13 39.1195 31.67 39.1195 32.34V38.41C39.1195 39.08 38.5795 39.62 37.9095 39.62H31.2295C30.5595 39.62 30.0195 40.16 30.0195 40.83C30.0195 41.5 30.5595 42.04 31.2295 42.04H37.9095C39.9195 42.04 41.5495 40.41 41.5495 38.4V32.33C41.5395 31.67 40.9995 31.13 40.3295 31.13Z" fill="url(#paint2_linear_2163_1572)"/>
<path d="M18.6498 39.63H11.9698C11.2998 39.63 10.7598 39.09 10.7598 38.42V32.35C10.7598 31.68 10.2198 31.14 9.54984 31.14C8.87984 31.14 8.33984 31.68 8.33984 32.35V38.42C8.33984 40.43 9.96984 42.06 11.9798 42.06H18.6598C19.3298 42.06 19.8698 41.52 19.8698 40.85C19.8598 40.17 19.3198 39.63 18.6498 39.63Z" fill="url(#paint3_linear_2163_1572)"/>
<path d="M40.332 23.8401H9.54203C8.87203 23.8401 8.33203 24.3801 8.33203 25.0501C8.33203 25.7201 8.87203 26.2601 9.54203 26.2601H40.332C41.002 26.2601 41.542 25.7201 41.542 25.0501C41.542 24.3901 41.002 23.8401 40.332 23.8401Z" fill="url(#paint4_linear_2163_1572)"/>
<defs>
<linearGradient id="paint0_linear_2163_1572" x1="-412.957" y1="13.5239" x2="167.701" y2="13.5239" gradientUnits="userSpaceOnUse">
<stop stop-color="#D62300"/>
<stop offset="1" stop-color="#FF8732"/>
</linearGradient>
<linearGradient id="paint1_linear_2163_1572" x1="-413.736" y1="13.5239" x2="166.921" y2="13.5239" gradientUnits="userSpaceOnUse">
<stop stop-color="#D62300"/>
<stop offset="1" stop-color="#FF8732"/>
</linearGradient>
<linearGradient id="paint2_linear_2163_1572" x1="-413.739" y1="36.5944" x2="166.919" y2="36.5944" gradientUnits="userSpaceOnUse">
<stop stop-color="#D62300"/>
<stop offset="1" stop-color="#FF8732"/>
</linearGradient>
<linearGradient id="paint3_linear_2163_1572" x1="-412.957" y1="36.5944" x2="167.7" y2="36.5944" gradientUnits="userSpaceOnUse">
<stop stop-color="#D62300"/>
<stop offset="1" stop-color="#FF8732"/>
</linearGradient>
<linearGradient id="paint4_linear_2163_1572" x1="-403.276" y1="25.0592" x2="164.041" y2="25.0592" gradientUnits="userSpaceOnUse">
<stop stop-color="#D62300"/>
<stop offset="1" stop-color="#FF8732"/>
</linearGradient>
</defs>
</svg>
